<svg width="582" height="567" viewBox="0 0 582 567" fill="none" xmlns="http://www.w3.org/2000/svg">
<path d="M458.834 245.546C446.951 245.546 437.282 254.926 437.282 266.425V347.577C448.661 352.639 455.542 362.892 455.542 374.043C455.542 381.461 452.505 388.537 446.951 394L402.78 441.232C400.737 443.713 398.003 447.57 396.633 451.869C395.875 454.167 395.656 456.63 395.584 459.713H381.598C381.664 455.401 382.022 451.621 383.319 447.771C385.69 440.323 390.455 434.245 393.268 431.026L436.766 385.601C439.403 382.571 440.84 378.715 440.84 374.752C440.84 365.567 433.165 358.096 423.744 358.096C419.276 358.096 415.056 359.744 411.849 362.768L321.652 451.054C306.053 466.972 307.077 483.19 307.077 495.334L307.162 527.21H384.526V513.814C384.526 505.126 386.266 499.391 393.31 492.924L464.399 419.344C474.572 407.744 480.253 392.907 480.253 377.545V266.425C480.259 254.926 470.662 245.546 458.834 245.546Z" fill="#0A91E4"/>
<path d="M136.782 362.774C133.556 359.767 129.343 358.114 124.887 358.114C115.454 358.114 107.767 365.573 107.767 374.757C107.767 378.732 109.209 382.589 111.847 385.613L155.357 431.038C158.164 434.257 162.935 440.323 165.312 447.771C166.585 451.627 166.949 455.401 167.028 459.719H153.023C152.969 456.63 152.732 454.167 151.986 451.869C150.616 447.57 147.888 443.719 145.833 441.25L101.662 394C96.1024 388.537 93.0711 381.461 93.0711 374.043C93.0711 362.892 99.9399 352.639 111.331 347.577V266.425C111.331 254.926 101.656 245.546 89.7731 245.546C77.9452 245.546 68.3604 254.926 68.3604 266.425V377.545C68.3604 392.907 74.0288 407.744 84.2077 419.344L155.303 492.918C162.353 499.391 164.075 505.132 164.075 513.814V527.21H241.451L241.536 495.334C241.536 483.19 242.554 466.972 226.967 451.054L136.782 362.774Z" fill="#0A91E4"/>
<path d="M178.268 119.655C189.975 129.063 208.211 126.341 208.211 126.341C208.211 126.341 207.459 108.386 195.746 98.9769C184.046 89.5742 165.804 92.2733 165.804 92.2733C165.804 92.2733 166.562 110.246 178.268 119.655Z" fill="#0A91E4"/>
<path d="M411.716 158.435H382.156V147.32C382.156 139.104 378.985 131.438 375.232 124.238C373.135 120.204 370.807 116.288 368.751 112.231C367.296 109.331 365.908 106.236 365.332 103.017C367.266 101.812 367.975 99.2368 367.587 97.0102C367.127 94.4468 364.635 93.1061 362.198 93.1061H344.107C341.676 93.1061 339.385 94.1279 338.633 96.6203C337.942 98.9179 338.706 101.735 340.767 103.017C339.821 108.645 336.511 113.932 333.789 118.846C330.224 125.319 326.641 131.904 324.926 139.098C323.501 145.058 323.95 151.436 323.95 157.52V158.435H301.864C295.807 152.234 289.048 146.516 282.264 142.713C280.736 141.845 280.269 140.581 280.475 139.37C280.912 136.907 284.083 134.651 287.126 136.346C295.056 140.811 302.707 145.873 309.424 151.773C309.424 151.773 310.218 146.274 309.175 140.823C308.06 135.023 305.392 130.764 305.392 130.764C297.396 120.139 285.938 108.273 274.431 101.836C269.866 99.2782 274.734 92.923 279.299 95.4804C287.217 99.916 294.85 104.984 301.561 110.86C291.77 63.2205 273.079 40.1212 249.435 42.9207C238.274 44.2319 225.598 52.0813 231.878 84.8197L243.943 147.875C235.831 137.22 222.864 130.292 208.21 130.292C189.138 130.292 172.909 141.998 166.573 158.435H136.903V325.866H411.716V158.435ZM384.235 299.075H164.385V185.226H384.235V299.075Z" fill="#0A91E4"/>
<path d="M475.524 230.734C463.642 230.734 453.972 240.113 453.972 251.612V332.758C465.351 337.826 472.232 348.079 472.232 359.23C472.232 366.648 469.195 373.724 463.642 379.187L419.47 426.419C417.427 428.9 414.693 432.757 413.323 437.057C412.565 439.354 412.347 441.817 412.274 444.9H398.288C398.355 440.589 398.712 436.809 400.01 432.952C402.38 425.51 407.145 419.432 409.958 416.208L453.457 370.788C456.094 367.759 457.531 363.902 457.531 359.939C457.531 350.749 449.856 343.283 440.434 343.283C435.966 343.283 431.747 344.931 428.54 347.955L338.342 436.242C322.743 452.159 323.768 468.377 323.768 480.521L323.853 512.397H401.216V499.001C401.216 490.313 402.956 484.578 410.001 478.105L481.084 404.531C491.262 392.931 496.943 378.095 496.943 362.726V251.612C496.949 240.113 487.352 230.734 475.524 230.734Z" fill="white"/>
<path d="M153.472 347.961C150.247 344.949 146.033 343.301 141.578 343.301C132.144 343.301 124.457 350.76 124.457 359.945C124.457 363.914 125.9 367.77 128.537 370.8L172.042 416.225C174.855 419.444 179.626 425.51 182.002 432.952C183.275 436.814 183.639 440.589 183.718 444.9H169.714C169.659 441.817 169.423 439.348 168.677 437.051C167.307 432.757 164.579 428.906 162.523 426.437L118.352 379.187C112.793 373.724 109.762 366.648 109.762 359.23C109.762 348.079 116.63 337.826 128.022 332.758V251.612C128.022 240.113 118.346 230.734 106.464 230.734C94.6356 230.734 85.0508 240.113 85.0508 251.612V362.726C85.0508 378.095 90.7192 392.931 100.898 404.525L171.987 478.099C179.044 484.578 180.766 490.319 180.766 499.001V512.397H258.141L258.226 480.521C258.226 468.377 259.245 452.159 243.658 436.242L153.472 347.961Z" fill="white"/>
<path d="M194.958 104.836C206.664 114.245 224.9 111.528 224.9 111.528C224.9 111.528 224.149 93.5727 212.436 84.1641C200.735 74.7613 182.493 77.4605 182.493 77.4605C182.493 77.4605 183.245 95.4332 194.958 104.836Z" fill="white"/>
<path d="M428.407 143.616H398.846V132.507C398.846 124.291 395.675 116.625 391.923 109.419C389.825 105.391 387.497 101.475 385.442 97.4177C383.987 94.5177 382.599 91.4228 382.023 88.2039C383.957 86.9991 384.666 84.4239 384.278 82.1973C383.817 79.634 381.325 78.2932 378.888 78.2932H360.798C358.367 78.2932 356.075 79.315 355.323 81.8075C354.632 84.105 355.396 86.9223 357.457 88.2039C356.512 93.8326 353.202 99.1187 350.479 104.033C346.915 110.5 343.332 117.091 341.616 124.279C340.191 130.245 340.64 136.623 340.64 142.707V143.622H318.554C312.498 137.415 305.738 131.703 298.954 127.894C297.427 127.032 296.96 125.768 297.16 124.557C297.602 122.094 300.773 119.832 303.81 121.527C311.746 125.998 319.397 131.06 326.108 136.954C326.108 136.96 326.908 131.455 325.866 126.01C324.75 120.21 322.083 115.946 322.083 115.946C314.086 105.32 302.628 93.4546 291.122 87.0227C286.556 84.4653 291.425 78.1042 295.99 80.6676C303.907 85.1031 311.54 90.1707 318.251 96.0474C308.46 48.4076 289.77 25.3083 266.126 28.1019C254.965 29.419 242.288 37.2684 248.569 70.0068L260.633 133.062C252.522 122.407 239.554 115.479 224.901 115.479C205.828 115.479 189.599 127.185 183.264 143.616H153.594V311.047H428.407V143.616ZM400.926 284.262H181.075V170.413H400.926V284.262Z" fill="white"/>
</svg>
