<svg width="316" height="311" viewBox="0 0 316 311" fill="none" xmlns="http://www.w3.org/2000/svg">
<path d="M249.127 134.682C242.675 134.682 237.425 139.827 237.425 146.134V190.646C243.603 193.423 247.339 199.046 247.339 205.163C247.339 209.232 245.69 213.113 242.675 216.109L218.692 242.016C217.583 243.377 216.098 245.492 215.354 247.851C214.943 249.111 214.824 250.462 214.785 252.153H207.191C207.227 249.788 207.421 247.715 208.126 245.603C209.413 241.517 212 238.184 213.527 236.418L237.145 211.503C238.577 209.841 239.357 207.725 239.357 205.552C239.357 200.514 235.19 196.416 230.075 196.416C227.649 196.416 225.358 197.32 223.616 198.978L174.643 247.404C166.173 256.134 166.73 265.03 166.73 271.691L166.776 289.175H208.781V281.828C208.781 277.062 209.725 273.916 213.55 270.369L252.148 230.01C257.672 223.648 260.756 215.51 260.756 207.084V146.134C260.759 139.827 255.549 134.682 249.127 134.682Z" fill="#5E248B"/>
<path d="M74.2664 198.982C72.5153 197.333 70.2276 196.426 67.8082 196.426C62.6864 196.426 58.5125 200.517 58.5125 205.555C58.5125 207.735 59.2959 209.85 60.7278 211.509L84.3521 236.425C85.8762 238.19 88.4667 241.517 89.757 245.603C90.4483 247.718 90.6458 249.788 90.6886 252.156H83.0848C83.0552 250.462 82.9268 249.111 82.5219 247.851C81.778 245.492 80.2968 243.38 79.1809 242.026L55.1978 216.109C52.1794 213.113 50.5335 209.232 50.5335 205.163C50.5335 199.046 54.263 193.423 60.448 190.646V146.134C60.448 139.827 55.1945 134.682 48.7429 134.682C42.3208 134.682 37.1167 139.827 37.1167 146.134V207.084C37.1167 215.51 40.1944 223.648 45.7211 230.01L84.3225 270.366C88.1507 273.92 89.0855 277.065 89.0855 281.828V289.175H131.097L131.143 271.691C131.143 265.03 131.696 256.134 123.233 247.404L74.2664 198.982Z" fill="#5E248B"/>
<path d="M96.7916 65.6307C103.148 70.7913 113.049 69.2979 113.049 69.2979C113.049 69.2979 112.641 59.4496 106.281 54.2889C99.9286 49.1315 90.0239 50.612 90.0239 50.612C90.0239 50.612 90.4354 60.47 96.7916 65.6307Z" fill="#5E248B"/>
<path d="M223.544 86.9018H207.494V80.8049C207.494 76.2986 205.772 72.0937 203.735 68.1446C202.596 65.932 201.332 63.7841 200.216 61.5585C199.426 59.9679 198.672 58.2704 198.359 56.5048C199.409 55.8439 199.794 54.4315 199.584 53.2101C199.334 51.8042 197.981 51.0688 196.657 51.0688H186.835C185.515 51.0688 184.271 51.6292 183.863 52.9963C183.487 54.2565 183.902 55.8018 185.021 56.5048C184.508 59.5921 182.711 62.4915 181.233 65.1869C179.297 68.7375 177.352 72.3496 176.42 76.2954C175.647 79.5641 175.89 83.0629 175.89 86.3997V86.9018H163.899C160.61 83.5002 156.94 80.3643 153.257 78.278C152.427 77.8018 152.174 77.1085 152.286 76.4444C152.523 75.0935 154.244 73.856 155.897 74.7858C160.202 77.2349 164.356 80.0112 168.003 83.2476C168.003 83.2476 168.435 80.2315 167.869 77.2414C167.263 74.0601 165.815 71.7244 165.815 71.7244C161.473 65.8963 155.252 59.388 149.004 55.8569C146.525 54.4541 149.169 50.9683 151.647 52.3711C155.946 54.804 160.09 57.5836 163.734 60.807C158.418 34.6765 148.27 22.0065 135.432 23.542C129.372 24.2612 122.49 28.5666 125.9 46.5236L132.45 81.1094C128.046 75.2652 121.005 71.4652 113.049 71.4652C102.694 71.4652 93.8817 77.886 90.4419 86.9018H74.3325V178.738H223.544V86.9018ZM208.623 164.043H89.2536V101.597H208.623V164.043Z" fill="#5E248B"/>
<path d="M258.189 126.558C251.737 126.558 246.487 131.702 246.487 138.009V182.518C252.665 185.298 256.401 190.922 256.401 197.038C256.401 201.107 254.752 204.988 251.737 207.984L227.754 233.891C226.645 235.252 225.16 237.368 224.416 239.726C224.005 240.986 223.886 242.337 223.847 244.028H216.253C216.289 241.663 216.483 239.59 217.188 237.474C218.475 233.393 221.062 230.059 222.589 228.29L246.207 203.378C247.639 201.716 248.419 199.6 248.419 197.427C248.419 192.386 244.252 188.291 239.137 188.291C236.711 188.291 234.42 189.195 232.678 190.854L183.705 239.279C175.235 248.01 175.792 256.905 175.792 263.566L175.838 281.05H217.843V273.703C217.843 268.937 218.787 265.792 222.612 262.241L261.207 221.886C266.734 215.523 269.818 207.385 269.818 198.956V138.009C269.821 131.702 264.611 126.558 258.189 126.558Z" fill="white"/>
<path d="M83.3285 190.857C81.5773 189.205 79.2896 188.301 76.8702 188.301C71.7484 188.301 67.5745 192.392 67.5745 197.43C67.5745 199.607 68.358 201.722 69.7898 203.384L93.4108 228.3C94.9382 230.065 97.5287 233.393 98.819 237.474C99.5103 239.593 99.7078 241.663 99.7506 244.028H92.1468C92.1172 242.337 91.9888 240.983 91.584 239.723C90.84 237.368 89.3588 235.255 88.2429 233.901L64.2598 207.984C61.2414 204.988 59.5955 201.107 59.5955 197.038C59.5955 190.922 63.325 185.298 69.51 182.518V138.009C69.51 131.702 64.2565 126.558 57.8049 126.558C51.3828 126.558 46.1787 131.702 46.1787 138.009V198.956C46.1787 207.385 49.2564 215.523 54.7831 221.882L93.3812 262.238C97.2127 265.792 98.1475 268.94 98.1475 273.703V281.05H140.159L140.205 263.566C140.205 256.905 140.758 248.01 132.295 239.279L83.3285 190.857Z" fill="white"/>
<path d="M105.854 57.5026C112.21 62.6633 122.111 61.1731 122.111 61.1731C122.111 61.1731 121.703 51.3247 115.343 46.1641C108.991 41.0067 99.0859 42.4872 99.0859 42.4872C99.0859 42.4872 99.4941 52.3452 105.854 57.5026Z" fill="white"/>
<path d="M232.606 78.7737H216.556V72.68C216.556 68.1738 214.834 63.9688 212.797 60.0165C211.658 57.8071 210.394 55.6592 209.278 53.4337C208.488 51.843 207.734 50.1455 207.421 48.3799C208.471 47.719 208.856 46.3066 208.646 45.0852C208.396 43.6793 207.043 42.9439 205.719 42.9439H195.897C194.577 42.9439 193.333 43.5043 192.925 44.8714C192.549 46.1316 192.964 47.6769 194.083 48.3799C193.57 51.4672 191.773 54.3667 190.295 57.062C188.359 60.6093 186.414 64.2247 185.482 68.1673C184.709 71.4393 184.952 74.938 184.952 78.2748V78.7769H172.961C169.672 75.3721 166.002 72.2394 162.319 70.1499C161.489 69.6769 161.236 68.9837 161.344 68.3195C161.585 66.9686 163.306 65.7279 164.955 66.6576C169.264 69.11 173.418 71.8863 177.062 75.1194C177.062 75.1227 177.497 72.1034 176.931 69.1165C176.325 65.9352 174.877 63.5962 174.877 63.5962C170.535 57.7682 164.314 51.2599 158.066 47.732C155.587 46.3292 158.231 42.8402 160.709 44.2462C165.008 46.6791 169.152 49.4587 172.796 52.6821C167.48 26.5516 157.332 13.8816 144.494 15.4139C138.434 16.1363 131.552 20.4417 134.962 38.3988L141.512 72.9845C137.108 67.1403 130.067 63.3403 122.111 63.3403C111.756 63.3403 102.944 69.7612 99.5039 78.7737H83.3945V170.609H232.606V78.7737ZM217.685 155.918H98.3157V93.4717H217.685V155.918Z" fill="white"/>
</svg>
