<svg xmlns="http://www.w3.org/2000/svg" xmlns:xlink="http://www.w3.org/1999/xlink" width="500" zoomAndPan="magnify" viewBox="0 0 375 374.999991" height="500" preserveAspectRatio="xMidYMid meet" version="1.0"><defs><clipPath id="id1"><path d="M 17.84375 37.898438 L 345.59375 37.898438 L 345.59375 202 L 17.84375 202 Z M 17.84375 37.898438 " clip-rule="nonzero"/></clipPath><clipPath id="id2"><path d="M 175 213 L 345.59375 213 L 345.59375 238 L 175 238 Z M 175 213 " clip-rule="nonzero"/></clipPath><clipPath id="id3"><path d="M 17.84375 213 L 36 213 L 36 238 L 17.84375 238 Z M 17.84375 213 " clip-rule="nonzero"/></clipPath><clipPath id="id4"><path d="M 47 336 L 165 336 L 165 348.398438 L 47 348.398438 Z M 47 336 " clip-rule="nonzero"/></clipPath><clipPath id="id5"><path d="M 257 342 L 317 342 L 317 348.398438 L 257 348.398438 Z M 257 342 " clip-rule="nonzero"/></clipPath><clipPath id="id6"><path d="M 29.117188 26.695312 L 356.867188 26.695312 L 356.867188 191 L 29.117188 191 Z M 29.117188 26.695312 " clip-rule="nonzero"/></clipPath><clipPath id="id7"><path d="M 187 202 L 356.867188 202 L 356.867188 226 L 187 226 Z M 187 202 " clip-rule="nonzero"/></clipPath><clipPath id="id8"><path d="M 29.117188 202 L 47 202 L 47 226 L 29.117188 226 Z M 29.117188 202 " clip-rule="nonzero"/></clipPath><clipPath id="id9"><path d="M 58 325 L 176 325 L 176 337.195312 L 58 337.195312 Z M 58 325 " clip-rule="nonzero"/></clipPath><clipPath id="id10"><path d="M 269 331 L 328 331 L 328 337.195312 L 269 337.195312 Z M 269 331 " clip-rule="nonzero"/></clipPath></defs><g clip-path="url(#id1)"><path fill="#4e3165" d="M 339.707031 37.898438 L 23.726562 37.898438 C 23.34375 37.898438 22.964844 37.9375 22.585938 38.011719 C 22.210938 38.085938 21.84375 38.195312 21.488281 38.34375 C 21.132812 38.492188 20.796875 38.671875 20.476562 38.886719 C 20.15625 39.097656 19.863281 39.34375 19.589844 39.613281 C 19.320312 39.886719 19.074219 40.183594 18.863281 40.503906 C 18.648438 40.820312 18.46875 41.160156 18.320312 41.515625 C 18.175781 41.871094 18.0625 42.238281 17.988281 42.613281 C 17.914062 42.992188 17.875 43.371094 17.875 43.757812 L 17.875 201.9375 L 35.429688 201.9375 C 35.429688 201.359375 35.460938 200.785156 35.515625 200.214844 C 35.570312 199.640625 35.65625 199.070312 35.769531 198.507812 C 35.878906 197.941406 36.019531 197.386719 36.1875 196.835938 C 36.355469 196.285156 36.546875 195.742188 36.765625 195.210938 C 36.988281 194.679688 37.234375 194.160156 37.503906 193.652344 C 37.773438 193.144531 38.070312 192.648438 38.390625 192.171875 C 38.707031 191.691406 39.050781 191.230469 39.414062 190.785156 C 39.78125 190.339844 40.164062 189.914062 40.574219 189.507812 C 40.980469 189.101562 41.40625 188.714844 41.847656 188.351562 C 42.292969 187.984375 42.753906 187.640625 43.234375 187.324219 C 43.710938 187.003906 44.203125 186.707031 44.710938 186.4375 C 45.21875 186.164062 45.738281 185.917969 46.269531 185.699219 C 46.796875 185.476562 47.339844 185.285156 47.890625 185.117188 C 48.441406 184.949219 48.996094 184.8125 49.5625 184.699219 C 50.125 184.585938 50.691406 184.5 51.265625 184.445312 C 51.835938 184.390625 52.410156 184.359375 52.984375 184.359375 L 158.3125 184.359375 C 158.886719 184.359375 159.460938 184.390625 160.03125 184.445312 C 160.605469 184.5 161.171875 184.585938 161.738281 184.699219 C 162.300781 184.8125 162.859375 184.949219 163.40625 185.117188 C 163.957031 185.285156 164.5 185.476562 165.03125 185.699219 C 165.5625 185.917969 166.082031 186.164062 166.585938 186.4375 C 167.09375 186.707031 167.585938 187.003906 168.066406 187.324219 C 168.542969 187.640625 169.003906 187.984375 169.449219 188.351562 C 169.894531 188.714844 170.316406 189.101562 170.726562 189.507812 C 171.132812 189.914062 171.515625 190.339844 171.882812 190.785156 C 172.246094 191.230469 172.589844 191.691406 172.90625 192.171875 C 173.226562 192.648438 173.523438 193.144531 173.792969 193.652344 C 174.066406 194.160156 174.308594 194.679688 174.53125 195.210938 C 174.75 195.742188 174.945312 196.285156 175.109375 196.835938 C 175.277344 197.386719 175.417969 197.941406 175.527344 198.507812 C 175.640625 199.070312 175.726562 199.640625 175.78125 200.214844 C 175.839844 200.785156 175.867188 201.359375 175.867188 201.9375 L 345.558594 201.9375 L 345.558594 43.757812 C 345.558594 43.371094 345.523438 42.992188 345.445312 42.613281 C 345.371094 42.238281 345.261719 41.871094 345.113281 41.515625 C 344.96875 41.160156 344.785156 40.820312 344.574219 40.503906 C 344.359375 40.183594 344.117188 39.886719 343.84375 39.613281 C 343.574219 39.34375 343.277344 39.097656 342.957031 38.886719 C 342.640625 38.671875 342.300781 38.492188 341.945312 38.34375 C 341.59375 38.195312 341.226562 38.085938 340.847656 38.011719 C 340.472656 37.9375 340.09375 37.898438 339.707031 37.898438 Z M 339.707031 37.898438 " fill-opacity="1" fill-rule="nonzero"/></g><g clip-path="url(#id2)"><path fill="#4e3165" d="M 175.867188 237.085938 L 246.085938 237.085938 C 246.085938 236.511719 246.113281 235.9375 246.167969 235.363281 C 246.226562 234.792969 246.308594 234.222656 246.421875 233.65625 C 246.535156 233.09375 246.671875 232.535156 246.839844 231.984375 C 247.007812 231.433594 247.199219 230.894531 247.421875 230.359375 C 247.640625 229.828125 247.886719 229.308594 248.15625 228.800781 C 248.429688 228.292969 248.722656 227.800781 249.042969 227.324219 C 249.363281 226.84375 249.703125 226.382812 250.070312 225.9375 C 250.433594 225.492188 250.820312 225.066406 251.226562 224.660156 C 251.632812 224.253906 252.058594 223.867188 252.503906 223.5 C 252.945312 223.136719 253.40625 222.792969 253.886719 222.472656 C 254.363281 222.152344 254.855469 221.859375 255.363281 221.585938 C 255.871094 221.316406 256.390625 221.070312 256.921875 220.847656 C 257.453125 220.628906 257.992188 220.433594 258.542969 220.269531 C 259.09375 220.101562 259.648438 219.960938 260.214844 219.847656 C 260.777344 219.738281 261.347656 219.652344 261.917969 219.597656 C 262.488281 219.539062 263.0625 219.511719 263.636719 219.511719 L 310.449219 219.511719 C 311.027344 219.511719 311.597656 219.539062 312.171875 219.597656 C 312.742188 219.652344 313.3125 219.738281 313.875 219.847656 C 314.4375 219.960938 314.996094 220.101562 315.546875 220.269531 C 316.097656 220.433594 316.636719 220.628906 317.167969 220.847656 C 317.699219 221.070312 318.21875 221.316406 318.726562 221.585938 C 319.234375 221.859375 319.726562 222.152344 320.203125 222.472656 C 320.679688 222.792969 321.140625 223.136719 321.585938 223.5 C 322.03125 223.867188 322.457031 224.253906 322.863281 224.660156 C 323.269531 225.066406 323.65625 225.492188 324.019531 225.9375 C 324.386719 226.382812 324.726562 226.84375 325.046875 227.324219 C 325.367188 227.800781 325.660156 228.292969 325.933594 228.800781 C 326.203125 229.308594 326.449219 229.828125 326.667969 230.359375 C 326.886719 230.894531 327.082031 231.433594 327.25 231.984375 C 327.414062 232.535156 327.554688 233.09375 327.667969 233.65625 C 327.78125 234.222656 327.863281 234.792969 327.921875 235.363281 C 327.976562 235.9375 328.003906 236.511719 328.003906 237.085938 L 345.558594 237.085938 L 345.558594 213.652344 L 175.867188 213.652344 Z M 175.867188 237.085938 " fill-opacity="1" fill-rule="nonzero"/></g><path fill="#4e3165" d="M 175.867188 248.804688 L 175.867188 283.953125 L 209.332031 283.953125 L 200.554688 248.804688 Z M 175.867188 248.804688 " fill-opacity="1" fill-rule="nonzero"/><g clip-path="url(#id3)"><path fill="#4e3165" d="M 17.875 213.652344 L 35.429688 213.652344 L 35.429688 237.085938 L 17.875 237.085938 Z M 17.875 213.652344 " fill-opacity="1" fill-rule="nonzero"/></g><path fill="#4e3165" d="M 47.132812 219.511719 L 164.164062 219.511719 L 164.164062 324.964844 L 47.132812 324.964844 Z M 47.132812 219.511719 " fill-opacity="1" fill-rule="nonzero"/><g clip-path="url(#id4)"><path fill="#4e3165" d="M 47.132812 342.539062 C 47.132812 342.925781 47.171875 343.304688 47.246094 343.683594 C 47.320312 344.058594 47.433594 344.425781 47.578125 344.78125 C 47.726562 345.136719 47.90625 345.476562 48.121094 345.792969 C 48.332031 346.113281 48.574219 346.410156 48.847656 346.683594 C 49.121094 346.953125 49.414062 347.195312 49.734375 347.410156 C 50.054688 347.625 50.390625 347.804688 50.746094 347.953125 C 51.101562 348.097656 51.46875 348.210938 51.84375 348.285156 C 52.21875 348.359375 52.601562 348.398438 52.984375 348.398438 L 158.3125 348.398438 C 158.695312 348.398438 159.078125 348.359375 159.453125 348.285156 C 159.832031 348.210938 160.195312 348.097656 160.550781 347.953125 C 160.90625 347.804688 161.242188 347.625 161.5625 347.410156 C 161.882812 347.195312 162.179688 346.953125 162.449219 346.683594 C 162.722656 346.410156 162.964844 346.113281 163.175781 345.792969 C 163.390625 345.476562 163.570312 345.136719 163.71875 344.78125 C 163.863281 344.425781 163.976562 344.058594 164.050781 343.683594 C 164.125 343.304688 164.164062 342.925781 164.164062 342.539062 L 164.164062 336.679688 L 47.132812 336.679688 Z M 47.132812 342.539062 " fill-opacity="1" fill-rule="nonzero"/></g><path fill="#4e3165" d="M 158.3125 196.078125 L 52.984375 196.078125 C 52.601562 196.078125 52.21875 196.113281 51.84375 196.191406 C 51.46875 196.265625 51.101562 196.375 50.746094 196.523438 C 50.390625 196.671875 50.054688 196.851562 49.734375 197.066406 C 49.414062 197.277344 49.121094 197.519531 48.847656 197.792969 C 48.574219 198.066406 48.332031 198.363281 48.121094 198.679688 C 47.90625 199 47.726562 199.339844 47.578125 199.695312 C 47.433594 200.050781 47.320312 200.414062 47.246094 200.792969 C 47.171875 201.171875 47.132812 201.550781 47.132812 201.9375 L 47.132812 207.792969 L 164.164062 207.792969 L 164.164062 201.9375 C 164.164062 201.550781 164.125 201.171875 164.050781 200.792969 C 163.976562 200.414062 163.863281 200.050781 163.71875 199.695312 C 163.570312 199.339844 163.390625 199 163.175781 198.679688 C 162.964844 198.363281 162.722656 198.066406 162.449219 197.792969 C 162.179688 197.519531 161.882812 197.277344 161.5625 197.066406 C 161.242188 196.851562 160.90625 196.671875 160.550781 196.523438 C 160.195312 196.375 159.832031 196.265625 159.453125 196.191406 C 159.078125 196.113281 158.695312 196.078125 158.3125 196.078125 Z M 158.3125 196.078125 " fill-opacity="1" fill-rule="nonzero"/><path fill="#4e3165" d="M 257.789062 248.804688 L 316.300781 248.804688 L 316.300781 330.824219 L 257.789062 330.824219 Z M 257.789062 248.804688 " fill-opacity="1" fill-rule="nonzero"/><g clip-path="url(#id5)"><path fill="#4e3165" d="M 263.636719 348.398438 L 310.449219 348.398438 C 310.835938 348.398438 311.214844 348.359375 311.59375 348.285156 C 311.96875 348.210938 312.335938 348.097656 312.691406 347.953125 C 313.042969 347.804688 313.382812 347.625 313.703125 347.410156 C 314.019531 347.195312 314.316406 346.953125 314.589844 346.683594 C 314.859375 346.410156 315.101562 346.113281 315.316406 345.792969 C 315.527344 345.476562 315.710938 345.136719 315.855469 344.78125 C 316.003906 344.425781 316.113281 344.058594 316.191406 343.683594 C 316.265625 343.304688 316.300781 342.925781 316.300781 342.539062 L 257.789062 342.539062 C 257.789062 342.925781 257.824219 343.304688 257.898438 343.683594 C 257.972656 344.058594 258.085938 344.425781 258.234375 344.78125 C 258.378906 345.136719 258.558594 345.476562 258.773438 345.792969 C 258.988281 346.113281 259.230469 346.410156 259.5 346.683594 C 259.773438 346.953125 260.066406 347.195312 260.386719 347.410156 C 260.707031 347.625 261.042969 347.804688 261.398438 347.953125 C 261.753906 348.097656 262.121094 348.210938 262.496094 348.285156 C 262.875 348.359375 263.253906 348.398438 263.636719 348.398438 Z M 263.636719 348.398438 " fill-opacity="1" fill-rule="nonzero"/></g><path fill="#4e3165" d="M 310.449219 231.226562 L 263.636719 231.226562 C 263.253906 231.226562 262.875 231.265625 262.496094 231.339844 C 262.121094 231.417969 261.753906 231.527344 261.398438 231.675781 C 261.042969 231.820312 260.707031 232.003906 260.386719 232.214844 C 260.066406 232.429688 259.773438 232.671875 259.5 232.945312 C 259.230469 233.214844 258.988281 233.511719 258.773438 233.832031 C 258.558594 234.152344 258.378906 234.488281 258.234375 234.84375 C 258.085938 235.199219 257.972656 235.566406 257.898438 235.945312 C 257.824219 236.320312 257.789062 236.703125 257.789062 237.085938 L 316.300781 237.085938 C 316.300781 236.703125 316.265625 236.320312 316.191406 235.945312 C 316.113281 235.566406 316.003906 235.199219 315.855469 234.84375 C 315.710938 234.488281 315.527344 234.152344 315.316406 233.832031 C 315.101562 233.511719 314.859375 233.214844 314.589844 232.945312 C 314.316406 232.671875 314.019531 232.429688 313.703125 232.214844 C 313.382812 232.003906 313.042969 231.820312 312.691406 231.675781 C 312.335938 231.527344 311.96875 231.417969 311.59375 231.339844 C 311.214844 231.265625 310.835938 231.226562 310.449219 231.226562 Z M 310.449219 231.226562 " fill-opacity="1" fill-rule="nonzero"/><g clip-path="url(#id6)"><path fill="#ffffff" d="M 350.984375 26.695312 L 35.003906 26.695312 C 34.621094 26.695312 34.238281 26.734375 33.863281 26.808594 C 33.484375 26.882812 33.121094 26.996094 32.765625 27.140625 C 32.410156 27.289062 32.074219 27.46875 31.753906 27.683594 C 31.433594 27.898438 31.136719 28.140625 30.867188 28.410156 C 30.59375 28.683594 30.351562 28.980469 30.136719 29.300781 C 29.925781 29.617188 29.746094 29.957031 29.597656 30.3125 C 29.449219 30.667969 29.339844 31.035156 29.265625 31.410156 C 29.191406 31.789062 29.152344 32.167969 29.152344 32.554688 L 29.152344 190.734375 L 46.707031 190.734375 C 46.707031 190.15625 46.734375 189.582031 46.792969 189.011719 C 46.847656 188.4375 46.933594 187.867188 47.042969 187.304688 C 47.15625 186.738281 47.296875 186.183594 47.460938 185.632812 C 47.628906 185.082031 47.824219 184.539062 48.042969 184.007812 C 48.261719 183.476562 48.507812 182.957031 48.78125 182.449219 C 49.050781 181.941406 49.347656 181.449219 49.664062 180.96875 C 49.984375 180.488281 50.328125 180.027344 50.691406 179.582031 C 51.054688 179.136719 51.441406 178.710938 51.847656 178.304688 C 52.253906 177.898438 52.679688 177.511719 53.125 177.148438 C 53.570312 176.78125 54.03125 176.441406 54.507812 176.121094 C 54.988281 175.800781 55.480469 175.503906 55.984375 175.234375 C 56.492188 174.960938 57.011719 174.714844 57.542969 174.496094 C 58.074219 174.273438 58.617188 174.082031 59.164062 173.914062 C 59.714844 173.746094 60.273438 173.609375 60.835938 173.496094 C 61.402344 173.382812 61.96875 173.296875 62.539062 173.242188 C 63.113281 173.1875 63.6875 173.15625 64.261719 173.15625 L 169.589844 173.15625 C 170.164062 173.15625 170.738281 173.1875 171.308594 173.242188 C 171.878906 173.296875 172.449219 173.382812 173.011719 173.496094 C 173.578125 173.609375 174.132812 173.746094 174.683594 173.914062 C 175.234375 174.082031 175.773438 174.273438 176.304688 174.496094 C 176.835938 174.714844 177.355469 174.960938 177.863281 175.234375 C 178.371094 175.503906 178.863281 175.800781 179.339844 176.121094 C 179.820312 176.441406 180.28125 176.78125 180.722656 177.148438 C 181.167969 177.511719 181.59375 177.898438 182 178.304688 C 182.40625 178.710938 182.792969 179.136719 183.15625 179.582031 C 183.523438 180.027344 183.863281 180.488281 184.183594 180.96875 C 184.503906 181.449219 184.796875 181.941406 185.070312 182.449219 C 185.339844 182.957031 185.585938 183.476562 185.804688 184.007812 C 186.027344 184.539062 186.21875 185.082031 186.386719 185.632812 C 186.554688 186.183594 186.691406 186.738281 186.804688 187.304688 C 186.917969 187.867188 187 188.4375 187.058594 189.011719 C 187.113281 189.582031 187.140625 190.15625 187.140625 190.734375 L 356.835938 190.734375 L 356.835938 32.554688 C 356.835938 32.167969 356.796875 31.789062 356.722656 31.410156 C 356.648438 31.035156 356.535156 30.667969 356.390625 30.3125 C 356.242188 29.957031 356.0625 29.617188 355.847656 29.300781 C 355.636719 28.980469 355.394531 28.683594 355.121094 28.410156 C 354.851562 28.140625 354.554688 27.898438 354.234375 27.683594 C 353.914062 27.46875 353.578125 27.289062 353.222656 27.140625 C 352.867188 26.996094 352.503906 26.882812 352.125 26.808594 C 351.75 26.734375 351.367188 26.695312 350.984375 26.695312 Z M 350.984375 26.695312 " fill-opacity="1" fill-rule="nonzero"/></g><g clip-path="url(#id7)"><path fill="#ffffff" d="M 187.140625 225.882812 L 257.359375 225.882812 C 257.359375 225.308594 257.386719 224.734375 257.445312 224.160156 C 257.5 223.589844 257.585938 223.019531 257.699219 222.457031 C 257.808594 221.890625 257.949219 221.332031 258.117188 220.78125 C 258.28125 220.230469 258.476562 219.691406 258.695312 219.160156 C 258.917969 218.625 259.160156 218.105469 259.433594 217.597656 C 259.703125 217.089844 260 216.597656 260.320312 216.121094 C 260.636719 215.640625 260.980469 215.179688 261.34375 214.734375 C 261.710938 214.289062 262.09375 213.863281 262.5 213.457031 C 262.910156 213.050781 263.332031 212.664062 263.777344 212.296875 C 264.222656 211.933594 264.683594 211.589844 265.160156 211.269531 C 265.640625 210.949219 266.132812 210.65625 266.640625 210.382812 C 267.148438 210.113281 267.664062 209.867188 268.195312 209.648438 C 268.726562 209.425781 269.269531 209.234375 269.820312 209.066406 C 270.367188 208.898438 270.925781 208.757812 271.488281 208.644531 C 272.054688 208.535156 272.621094 208.449219 273.195312 208.394531 C 273.765625 208.335938 274.339844 208.308594 274.914062 208.308594 L 321.726562 208.308594 C 322.300781 208.308594 322.875 208.335938 323.445312 208.394531 C 324.019531 208.449219 324.585938 208.535156 325.152344 208.644531 C 325.714844 208.757812 326.273438 208.898438 326.820312 209.066406 C 327.371094 209.234375 327.914062 209.425781 328.445312 209.648438 C 328.976562 209.867188 329.496094 210.113281 330 210.382812 C 330.507812 210.65625 331 210.949219 331.480469 211.269531 C 331.957031 211.589844 332.417969 211.933594 332.863281 212.296875 C 333.308594 212.664062 333.734375 213.050781 334.140625 213.457031 C 334.546875 213.863281 334.929688 214.289062 335.296875 214.734375 C 335.660156 215.179688 336.003906 215.640625 336.324219 216.121094 C 336.640625 216.597656 336.9375 217.089844 337.207031 217.597656 C 337.480469 218.105469 337.722656 218.625 337.945312 219.160156 C 338.164062 219.691406 338.359375 220.230469 338.523438 220.78125 C 338.691406 221.332031 338.832031 221.890625 338.945312 222.457031 C 339.054688 223.019531 339.140625 223.589844 339.195312 224.160156 C 339.253906 224.734375 339.28125 225.308594 339.28125 225.882812 L 356.835938 225.882812 L 356.835938 202.449219 L 187.140625 202.449219 Z M 187.140625 225.882812 " fill-opacity="1" fill-rule="nonzero"/></g><path fill="#ffffff" d="M 187.140625 237.601562 L 187.140625 272.753906 L 220.605469 272.753906 L 211.828125 237.601562 Z M 187.140625 237.601562 " fill-opacity="1" fill-rule="nonzero"/><g clip-path="url(#id8)"><path fill="#ffffff" d="M 29.152344 202.449219 L 46.707031 202.449219 L 46.707031 225.882812 L 29.152344 225.882812 Z M 29.152344 202.449219 " fill-opacity="1" fill-rule="nonzero"/></g><path fill="#ffffff" d="M 58.410156 208.308594 L 175.4375 208.308594 L 175.4375 313.761719 L 58.410156 313.761719 Z M 58.410156 208.308594 " fill-opacity="1" fill-rule="nonzero"/><g clip-path="url(#id9)"><path fill="#ffffff" d="M 58.410156 331.335938 C 58.410156 331.722656 58.449219 332.101562 58.523438 332.480469 C 58.597656 332.855469 58.707031 333.222656 58.855469 333.578125 C 59.003906 333.933594 59.183594 334.273438 59.394531 334.589844 C 59.609375 334.910156 59.851562 335.207031 60.125 335.480469 C 60.394531 335.75 60.691406 335.996094 61.011719 336.207031 C 61.328125 336.421875 61.667969 336.601562 62.023438 336.75 C 62.378906 336.898438 62.742188 337.007812 63.121094 337.082031 C 63.496094 337.15625 63.878906 337.195312 64.261719 337.195312 L 169.589844 337.195312 C 169.972656 337.195312 170.351562 337.15625 170.730469 337.082031 C 171.105469 337.007812 171.472656 336.898438 171.828125 336.75 C 172.183594 336.601562 172.519531 336.421875 172.839844 336.207031 C 173.160156 335.996094 173.453125 335.75 173.726562 335.480469 C 173.996094 335.207031 174.238281 334.910156 174.453125 334.589844 C 174.667969 334.273438 174.847656 333.933594 174.992188 333.578125 C 175.140625 333.222656 175.253906 332.855469 175.328125 332.480469 C 175.402344 332.101562 175.4375 331.722656 175.4375 331.335938 L 175.4375 325.476562 L 58.410156 325.476562 Z M 58.410156 331.335938 " fill-opacity="1" fill-rule="nonzero"/></g><path fill="#ffffff" d="M 169.589844 184.875 L 64.261719 184.875 C 63.878906 184.875 63.496094 184.914062 63.121094 184.988281 C 62.742188 185.0625 62.378906 185.171875 62.023438 185.320312 C 61.667969 185.46875 61.328125 185.648438 61.011719 185.863281 C 60.691406 186.074219 60.394531 186.320312 60.125 186.589844 C 59.851562 186.863281 59.609375 187.160156 59.394531 187.476562 C 59.183594 187.796875 59.003906 188.136719 58.855469 188.492188 C 58.707031 188.847656 58.597656 189.214844 58.523438 189.589844 C 58.449219 189.96875 58.410156 190.347656 58.410156 190.734375 L 58.410156 196.589844 L 175.4375 196.589844 L 175.4375 190.734375 C 175.4375 190.347656 175.402344 189.96875 175.328125 189.589844 C 175.253906 189.214844 175.140625 188.847656 174.992188 188.492188 C 174.847656 188.136719 174.667969 187.796875 174.453125 187.476562 C 174.238281 187.160156 173.996094 186.863281 173.726562 186.589844 C 173.453125 186.320312 173.160156 186.074219 172.839844 185.863281 C 172.519531 185.648438 172.183594 185.46875 171.828125 185.320312 C 171.472656 185.171875 171.105469 185.0625 170.730469 184.988281 C 170.351562 184.914062 169.972656 184.875 169.589844 184.875 Z M 169.589844 184.875 " fill-opacity="1" fill-rule="nonzero"/><path fill="#ffffff" d="M 269.0625 237.601562 L 327.578125 237.601562 L 327.578125 319.621094 L 269.0625 319.621094 Z M 269.0625 237.601562 " fill-opacity="1" fill-rule="nonzero"/><g clip-path="url(#id10)"><path fill="#ffffff" d="M 274.914062 337.195312 L 321.726562 337.195312 C 322.109375 337.195312 322.492188 337.15625 322.867188 337.082031 C 323.246094 337.007812 323.609375 336.898438 323.964844 336.75 C 324.320312 336.601562 324.65625 336.421875 324.976562 336.207031 C 325.296875 335.996094 325.59375 335.75 325.863281 335.480469 C 326.136719 335.207031 326.378906 334.910156 326.589844 334.589844 C 326.804688 334.273438 326.984375 333.933594 327.132812 333.578125 C 327.28125 333.222656 327.390625 332.855469 327.464844 332.480469 C 327.539062 332.101562 327.578125 331.722656 327.578125 331.335938 L 269.0625 331.335938 C 269.0625 331.722656 269.101562 332.101562 269.175781 332.480469 C 269.25 332.855469 269.363281 333.222656 269.507812 333.578125 C 269.65625 333.933594 269.835938 334.273438 270.050781 334.589844 C 270.261719 334.910156 270.503906 335.207031 270.777344 335.480469 C 271.046875 335.75 271.34375 335.996094 271.664062 336.207031 C 271.984375 336.421875 272.320312 336.601562 272.675781 336.75 C 273.03125 336.898438 273.394531 337.007812 273.773438 337.082031 C 274.148438 337.15625 274.53125 337.195312 274.914062 337.195312 Z M 274.914062 337.195312 " fill-opacity="1" fill-rule="nonzero"/></g><path fill="#ffffff" d="M 321.726562 220.027344 L 274.914062 220.027344 C 274.53125 220.027344 274.148438 220.0625 273.773438 220.136719 C 273.394531 220.214844 273.03125 220.324219 272.675781 220.472656 C 272.320312 220.617188 271.984375 220.800781 271.664062 221.011719 C 271.34375 221.226562 271.046875 221.46875 270.777344 221.742188 C 270.503906 222.011719 270.261719 222.308594 270.050781 222.628906 C 269.835938 222.949219 269.65625 223.285156 269.507812 223.640625 C 269.363281 223.996094 269.25 224.363281 269.175781 224.742188 C 269.101562 225.117188 269.0625 225.5 269.0625 225.882812 L 327.578125 225.882812 C 327.578125 225.5 327.539062 225.117188 327.464844 224.742188 C 327.390625 224.363281 327.28125 223.996094 327.132812 223.640625 C 326.984375 223.285156 326.804688 222.949219 326.589844 222.628906 C 326.378906 222.308594 326.136719 222.011719 325.863281 221.742188 C 325.59375 221.46875 325.296875 221.226562 324.976562 221.011719 C 324.65625 220.800781 324.320312 220.617188 323.964844 220.472656 C 323.609375 220.324219 323.246094 220.214844 322.867188 220.136719 C 322.492188 220.0625 322.109375 220.027344 321.726562 220.027344 Z M 321.726562 220.027344 " fill-opacity="1" fill-rule="nonzero"/></svg>