<svg xmlns="http://www.w3.org/2000/svg" xmlns:xlink="http://www.w3.org/1999/xlink" width="500" zoomAndPan="magnify" viewBox="0 0 375 374.999991" height="500" preserveAspectRatio="xMidYMid meet" version="1.0"><defs><clipPath id="id1"><path d="M 195 191 L 344.667969 191 L 344.667969 340.25 L 195 340.25 Z M 195 191 " clip-rule="nonzero"/></clipPath><clipPath id="id2"><path d="M 46 42.5 L 344.667969 42.5 L 344.667969 207 L 46 207 Z M 46 42.5 " clip-rule="nonzero"/></clipPath><clipPath id="id3"><path d="M 16.917969 72 L 315 72 L 315 237 L 16.917969 237 Z M 16.917969 72 " clip-rule="nonzero"/></clipPath><clipPath id="id4"><path d="M 209 183 L 358.390625 183 L 358.390625 332.683594 L 209 332.683594 Z M 209 183 " clip-rule="nonzero"/></clipPath><clipPath id="id5"><path d="M 60 34.933594 L 358.390625 34.933594 L 358.390625 199 L 60 199 Z M 60 34.933594 " clip-rule="nonzero"/></clipPath><clipPath id="id6"><path d="M 30.640625 64 L 329 64 L 329 229 L 30.640625 229 Z M 30.640625 64 " clip-rule="nonzero"/></clipPath></defs><g clip-path="url(#id1)"><path fill="#4e3165" d="M 270.144531 191.375 C 268.925781 191.375 267.710938 191.402344 266.492188 191.464844 C 265.277344 191.523438 264.058594 191.613281 262.847656 191.734375 C 261.636719 191.851562 260.425781 192 259.21875 192.179688 C 258.015625 192.359375 256.816406 192.566406 255.621094 192.804688 C 254.425781 193.042969 253.234375 193.308594 252.054688 193.605469 C 250.871094 193.902344 249.695312 194.226562 248.53125 194.578125 C 247.363281 194.933594 246.207031 195.316406 245.0625 195.726562 C 243.914062 196.136719 242.777344 196.574219 241.652344 197.039062 C 240.523438 197.507812 239.410156 198 238.308594 198.519531 C 237.207031 199.042969 236.121094 199.589844 235.046875 200.164062 C 233.96875 200.738281 232.910156 201.339844 231.863281 201.964844 C 230.820312 202.589844 229.789062 203.242188 228.777344 203.917969 C 227.765625 204.597656 226.769531 205.296875 225.789062 206.023438 C 224.808594 206.75 223.851562 207.496094 222.90625 208.269531 C 221.964844 209.042969 221.042969 209.839844 220.140625 210.65625 C 219.238281 211.476562 218.355469 212.316406 217.492188 213.175781 C 216.632812 214.039062 215.792969 214.921875 214.972656 215.824219 C 214.15625 216.726562 213.359375 217.648438 212.585938 218.589844 C 211.8125 219.53125 211.0625 220.492188 210.335938 221.46875 C 209.613281 222.449219 208.910156 223.445312 208.234375 224.457031 C 207.554688 225.46875 206.902344 226.5 206.277344 227.542969 C 205.652344 228.589844 205.050781 229.648438 204.476562 230.722656 C 203.902344 231.796875 203.355469 232.882812 202.832031 233.984375 C 202.3125 235.085938 201.816406 236.199219 201.351562 237.324219 C 200.886719 238.453125 200.445312 239.585938 200.035156 240.734375 C 199.625 241.882812 199.242188 243.039062 198.890625 244.203125 C 198.535156 245.371094 198.210938 246.542969 197.914062 247.726562 C 197.621094 248.90625 197.351562 250.09375 197.113281 251.289062 C 196.875 252.484375 196.667969 253.683594 196.488281 254.890625 C 196.3125 256.09375 196.160156 257.304688 196.042969 258.515625 C 195.921875 259.726562 195.832031 260.941406 195.773438 262.160156 C 195.714844 263.375 195.683594 264.59375 195.683594 265.8125 C 195.683594 267.03125 195.714844 268.246094 195.773438 269.464844 C 195.832031 270.679688 195.921875 271.894531 196.042969 273.109375 C 196.160156 274.320312 196.3125 275.527344 196.488281 276.734375 C 196.667969 277.9375 196.875 279.140625 197.113281 280.332031 C 197.351562 281.527344 197.621094 282.71875 197.914062 283.898438 C 198.210938 285.082031 198.535156 286.253906 198.890625 287.417969 C 199.242188 288.585938 199.625 289.742188 200.035156 290.890625 C 200.445312 292.035156 200.886719 293.171875 201.351562 294.296875 C 201.816406 295.421875 202.3125 296.535156 202.832031 297.636719 C 203.355469 298.738281 203.902344 299.828125 204.476562 300.902344 C 205.050781 301.976562 205.652344 303.035156 206.277344 304.082031 C 206.902344 305.125 207.554688 306.152344 208.234375 307.167969 C 208.910156 308.179688 209.613281 309.175781 210.335938 310.152344 C 211.0625 311.132812 211.8125 312.09375 212.585938 313.035156 C 213.359375 313.976562 214.15625 314.898438 214.972656 315.800781 C 215.792969 316.703125 216.632812 317.585938 217.492188 318.445312 C 218.355469 319.308594 219.238281 320.148438 220.140625 320.964844 C 221.042969 321.785156 221.964844 322.578125 222.90625 323.351562 C 223.851562 324.125 224.808594 324.875 225.789062 325.601562 C 226.769531 326.328125 227.765625 327.027344 228.777344 327.703125 C 229.789062 328.382812 230.820312 329.03125 231.863281 329.660156 C 232.910156 330.285156 233.96875 330.886719 235.046875 331.460938 C 236.121094 332.035156 237.207031 332.582031 238.308594 333.101562 C 239.410156 333.625 240.523438 334.117188 241.652344 334.582031 C 242.777344 335.050781 243.914062 335.488281 245.0625 335.898438 C 246.207031 336.308594 247.363281 336.691406 248.53125 337.042969 C 249.695312 337.398438 250.871094 337.722656 252.054688 338.019531 C 253.234375 338.316406 254.425781 338.582031 255.621094 338.820312 C 256.816406 339.058594 258.015625 339.265625 259.21875 339.445312 C 260.425781 339.621094 261.636719 339.769531 262.847656 339.890625 C 264.058594 340.011719 265.277344 340.101562 266.492188 340.160156 C 267.710938 340.21875 268.925781 340.25 270.144531 340.25 C 271.363281 340.25 272.582031 340.21875 273.800781 340.160156 C 275.015625 340.101562 276.230469 340.011719 277.445312 339.890625 C 278.65625 339.773438 279.867188 339.621094 281.070312 339.445312 C 282.277344 339.265625 283.476562 339.058594 284.671875 338.820312 C 285.867188 338.582031 287.058594 338.316406 288.238281 338.019531 C 289.421875 337.722656 290.59375 337.398438 291.761719 337.042969 C 292.929688 336.691406 294.085938 336.308594 295.230469 335.898438 C 296.378906 335.488281 297.515625 335.050781 298.640625 334.582031 C 299.769531 334.117188 300.882812 333.625 301.984375 333.101562 C 303.085938 332.582031 304.171875 332.035156 305.246094 331.460938 C 306.324219 330.886719 307.382812 330.285156 308.425781 329.660156 C 309.472656 329.03125 310.503906 328.382812 311.515625 327.703125 C 312.527344 327.027344 313.523438 326.328125 314.503906 325.601562 C 315.480469 324.875 316.441406 324.125 317.386719 323.351562 C 318.328125 322.578125 319.25 321.785156 320.152344 320.964844 C 321.054688 320.148438 321.9375 319.308594 322.800781 318.445312 C 323.660156 317.585938 324.5 316.703125 325.320312 315.800781 C 326.136719 314.898438 326.933594 313.976562 327.707031 313.035156 C 328.480469 312.09375 329.230469 311.132812 329.957031 310.152344 C 330.679688 309.175781 331.382812 308.179688 332.058594 307.167969 C 332.738281 306.152344 333.386719 305.125 334.015625 304.082031 C 334.640625 303.035156 335.242188 301.976562 335.816406 300.902344 C 336.390625 299.828125 336.9375 298.738281 337.460938 297.636719 C 337.980469 296.535156 338.472656 295.421875 338.941406 294.296875 C 339.40625 293.171875 339.84375 292.035156 340.257812 290.890625 C 340.667969 289.742188 341.046875 288.585938 341.402344 287.421875 C 341.757812 286.253906 342.082031 285.082031 342.378906 283.898438 C 342.671875 282.71875 342.941406 281.527344 343.179688 280.332031 C 343.414062 279.140625 343.625 277.9375 343.804688 276.734375 C 343.980469 275.527344 344.128906 274.320312 344.25 273.109375 C 344.371094 271.894531 344.460938 270.679688 344.519531 269.464844 C 344.578125 268.246094 344.609375 267.03125 344.609375 265.8125 C 344.609375 264.59375 344.578125 263.375 344.519531 262.160156 C 344.460938 260.941406 344.371094 259.726562 344.25 258.515625 C 344.128906 257.304688 343.980469 256.09375 343.804688 254.890625 C 343.625 253.683594 343.414062 252.484375 343.179688 251.289062 C 342.941406 250.09375 342.671875 248.90625 342.378906 247.726562 C 342.082031 246.542969 341.757812 245.371094 341.402344 244.203125 C 341.046875 243.039062 340.667969 241.882812 340.257812 240.734375 C 339.84375 239.585938 339.40625 238.453125 338.941406 237.324219 C 338.472656 236.199219 337.980469 235.085938 337.460938 233.984375 C 336.9375 232.882812 336.390625 231.796875 335.816406 230.722656 C 335.242188 229.648438 334.640625 228.589844 334.015625 227.542969 C 333.386719 226.5 332.738281 225.46875 332.058594 224.457031 C 331.382812 223.445312 330.679688 222.449219 329.957031 221.46875 C 329.230469 220.492188 328.480469 219.53125 327.707031 218.589844 C 326.933594 217.648438 326.136719 216.726562 325.320312 215.824219 C 324.5 214.921875 323.660156 214.039062 322.800781 213.175781 C 321.9375 212.316406 321.054688 211.476562 320.152344 210.65625 C 319.25 209.839844 318.328125 209.042969 317.386719 208.269531 C 316.441406 207.496094 315.480469 206.75 314.503906 206.023438 C 313.523438 205.296875 312.527344 204.597656 311.515625 203.917969 C 310.503906 203.242188 309.472656 202.589844 308.425781 201.964844 C 307.382812 201.339844 306.324219 200.738281 305.246094 200.164062 C 304.171875 199.589844 303.085938 199.042969 301.984375 198.519531 C 300.882812 198 299.769531 197.507812 298.640625 197.039062 C 297.515625 196.574219 296.378906 196.136719 295.230469 195.726562 C 294.085938 195.316406 292.929688 194.933594 291.761719 194.578125 C 290.59375 194.226562 289.421875 193.902344 288.238281 193.605469 C 287.058594 193.308594 285.867188 193.042969 284.671875 192.804688 C 283.476562 192.566406 282.277344 192.359375 281.070312 192.179688 C 279.867188 192 278.65625 191.851562 277.445312 191.734375 C 276.230469 191.613281 275.015625 191.523438 273.800781 191.464844 C 272.582031 191.402344 271.363281 191.375 270.144531 191.375 Z M 292.484375 250.925781 C 292.484375 251.414062 292.4375 251.898438 292.34375 252.375 C 292.246094 252.855469 292.105469 253.320312 291.917969 253.773438 C 291.730469 254.222656 291.5 254.652344 291.230469 255.058594 C 290.957031 255.464844 290.648438 255.84375 290.304688 256.1875 C 289.957031 256.535156 289.582031 256.84375 289.175781 257.113281 C 288.769531 257.386719 288.339844 257.613281 287.886719 257.800781 C 287.4375 257.988281 286.972656 258.128906 286.492188 258.226562 C 286.011719 258.320312 285.527344 258.367188 285.039062 258.367188 C 284.550781 258.367188 284.066406 258.320312 283.585938 258.226562 C 283.105469 258.128906 282.640625 257.988281 282.1875 257.800781 C 281.738281 257.613281 281.308594 257.386719 280.902344 257.113281 C 280.496094 256.84375 280.121094 256.535156 279.773438 256.1875 C 279.429688 255.84375 279.117188 255.464844 278.847656 255.058594 C 278.574219 254.652344 278.347656 254.222656 278.160156 253.773438 C 277.972656 253.320312 277.832031 252.855469 277.734375 252.375 C 277.640625 251.898438 277.59375 251.414062 277.59375 250.925781 L 277.59375 249.808594 C 277.59375 249.390625 277.550781 248.980469 277.472656 248.574219 C 277.390625 248.164062 277.269531 247.769531 277.109375 247.386719 C 276.953125 247.003906 276.757812 246.636719 276.527344 246.292969 C 276.296875 245.945312 276.03125 245.628906 275.738281 245.332031 C 275.445312 245.039062 275.125 244.777344 274.78125 244.546875 C 274.433594 244.316406 274.070312 244.121094 273.683594 243.960938 C 273.300781 243.804688 272.90625 243.683594 272.5 243.601562 C 272.089844 243.519531 271.679688 243.480469 271.261719 243.480469 L 269.03125 243.480469 C 268.613281 243.480469 268.203125 243.519531 267.792969 243.601562 C 267.386719 243.683594 266.992188 243.804688 266.605469 243.960938 C 266.222656 244.121094 265.859375 244.316406 265.511719 244.546875 C 265.167969 244.777344 264.847656 245.039062 264.554688 245.332031 C 264.261719 245.628906 263.996094 245.945312 263.765625 246.292969 C 263.535156 246.636719 263.339844 247.003906 263.183594 247.386719 C 263.023438 247.769531 262.902344 248.164062 262.820312 248.574219 C 262.742188 248.980469 262.699219 249.390625 262.699219 249.808594 C 262.699219 250.402344 262.777344 250.984375 262.933594 251.554688 C 263.09375 252.125 263.328125 252.664062 263.636719 253.167969 C 263.945312 253.675781 264.320312 254.128906 264.753906 254.53125 C 265.1875 254.933594 265.671875 255.269531 266.199219 255.539062 L 281.09375 262.984375 C 282.015625 263.464844 282.898438 264.011719 283.742188 264.621094 C 284.582031 265.234375 285.375 265.90625 286.121094 266.632812 C 286.863281 267.363281 287.550781 268.140625 288.179688 268.972656 C 288.804688 269.804688 289.371094 270.675781 289.871094 271.589844 C 290.367188 272.5 290.796875 273.445312 291.160156 274.421875 C 291.519531 275.402344 291.804688 276.398438 292.015625 277.417969 C 292.230469 278.4375 292.363281 279.464844 292.425781 280.503906 C 292.484375 281.542969 292.46875 282.582031 292.375 283.621094 C 292.28125 284.65625 292.113281 285.679688 291.867188 286.691406 C 291.625 287.703125 291.304688 288.691406 290.914062 289.65625 C 290.523438 290.621094 290.066406 291.554688 289.539062 292.449219 C 289.007812 293.347656 288.417969 294.203125 287.765625 295.011719 C 287.109375 295.820312 286.398438 296.578125 285.632812 297.285156 C 284.867188 297.988281 284.050781 298.632812 283.191406 299.21875 C 282.328125 299.800781 281.429688 300.320312 280.492188 300.773438 C 279.554688 301.222656 278.585938 301.605469 277.59375 301.914062 L 277.59375 303.03125 C 277.59375 303.519531 277.542969 304.003906 277.449219 304.484375 C 277.355469 304.960938 277.210938 305.425781 277.027344 305.878906 C 276.839844 306.332031 276.609375 306.757812 276.335938 307.167969 C 276.066406 307.574219 275.757812 307.949219 275.410156 308.292969 C 275.066406 308.640625 274.691406 308.949219 274.28125 309.21875 C 273.875 309.492188 273.449219 309.71875 272.996094 309.90625 C 272.542969 310.09375 272.078125 310.234375 271.597656 310.332031 C 271.121094 310.425781 270.636719 310.472656 270.144531 310.472656 C 269.65625 310.472656 269.171875 310.425781 268.695312 310.332031 C 268.214844 310.234375 267.75 310.09375 267.296875 309.90625 C 266.84375 309.71875 266.414062 309.492188 266.007812 309.21875 C 265.601562 308.949219 265.226562 308.640625 264.882812 308.292969 C 264.535156 307.949219 264.226562 307.574219 263.953125 307.167969 C 263.683594 306.757812 263.453125 306.332031 263.265625 305.878906 C 263.078125 305.425781 262.9375 304.960938 262.84375 304.484375 C 262.746094 304.003906 262.699219 303.519531 262.699219 303.03125 L 262.699219 301.914062 C 261.632812 301.582031 260.597656 301.171875 259.59375 300.675781 C 258.59375 300.183594 257.636719 299.609375 256.722656 298.964844 C 255.8125 298.320312 254.957031 297.605469 254.15625 296.824219 C 253.359375 296.039062 252.625 295.199219 251.960938 294.304688 C 251.296875 293.40625 250.707031 292.460938 250.191406 291.46875 C 249.675781 290.476562 249.242188 289.449219 248.886719 288.390625 C 248.535156 287.332031 248.269531 286.25 248.085938 285.144531 C 247.90625 284.042969 247.8125 282.933594 247.808594 281.816406 L 247.808594 280.699219 C 247.808594 280.210938 247.855469 279.726562 247.949219 279.246094 C 248.046875 278.769531 248.1875 278.300781 248.375 277.851562 C 248.5625 277.398438 248.789062 276.96875 249.0625 276.5625 C 249.335938 276.15625 249.644531 275.78125 249.988281 275.4375 C 250.335938 275.089844 250.710938 274.78125 251.117188 274.511719 C 251.523438 274.238281 251.953125 274.007812 252.402344 273.820312 C 252.855469 273.636719 253.320312 273.492188 253.800781 273.398438 C 254.28125 273.304688 254.765625 273.253906 255.253906 273.253906 C 255.742188 273.253906 256.226562 273.304688 256.707031 273.398438 C 257.1875 273.492188 257.652344 273.636719 258.101562 273.820312 C 258.554688 274.007812 258.984375 274.238281 259.390625 274.511719 C 259.796875 274.78125 260.171875 275.089844 260.519531 275.4375 C 260.863281 275.78125 261.171875 276.15625 261.445312 276.5625 C 261.714844 276.96875 261.945312 277.398438 262.132812 277.851562 C 262.320312 278.300781 262.460938 278.769531 262.558594 279.246094 C 262.652344 279.726562 262.699219 280.210938 262.699219 280.699219 L 262.699219 281.816406 C 262.699219 282.230469 262.742188 282.644531 262.820312 283.050781 C 262.902344 283.457031 263.023438 283.851562 263.183594 284.238281 C 263.339844 284.621094 263.535156 284.984375 263.765625 285.332031 C 263.996094 285.675781 264.261719 285.996094 264.554688 286.289062 C 264.847656 286.582031 265.167969 286.847656 265.511719 287.078125 C 265.859375 287.308594 266.222656 287.503906 266.605469 287.660156 C 266.992188 287.820312 267.386719 287.941406 267.792969 288.019531 C 268.203125 288.101562 268.613281 288.144531 269.03125 288.144531 L 271.261719 288.144531 C 271.679688 288.144531 272.089844 288.101562 272.5 288.023438 C 272.90625 287.941406 273.300781 287.820312 273.683594 287.660156 C 274.070312 287.503906 274.433594 287.308594 274.78125 287.078125 C 275.125 286.847656 275.445312 286.582031 275.738281 286.289062 C 276.03125 285.996094 276.296875 285.675781 276.527344 285.332031 C 276.757812 284.984375 276.953125 284.621094 277.109375 284.238281 C 277.269531 283.851562 277.390625 283.457031 277.472656 283.050781 C 277.550781 282.644531 277.59375 282.230469 277.59375 281.816406 C 277.59375 281.222656 277.515625 280.640625 277.355469 280.070312 C 277.199219 279.5 276.964844 278.960938 276.65625 278.453125 C 276.347656 277.949219 275.972656 277.492188 275.539062 277.089844 C 275.101562 276.6875 274.621094 276.351562 274.09375 276.085938 L 259.199219 268.640625 C 258.277344 268.160156 257.394531 267.613281 256.550781 267 C 255.707031 266.390625 254.914062 265.71875 254.171875 264.988281 C 253.429688 264.261719 252.742188 263.480469 252.113281 262.652344 C 251.488281 261.820312 250.921875 260.949219 250.421875 260.035156 C 249.921875 259.121094 249.496094 258.175781 249.132812 257.199219 C 248.773438 256.222656 248.488281 255.226562 248.277344 254.207031 C 248.0625 253.1875 247.929688 252.15625 247.867188 251.117188 C 247.808594 250.078125 247.824219 249.039062 247.917969 248.003906 C 248.011719 246.96875 248.179688 245.941406 248.421875 244.929688 C 248.667969 243.917969 248.984375 242.929688 249.375 241.964844 C 249.765625 241 250.226562 240.070312 250.753906 239.171875 C 251.285156 238.277344 251.875 237.421875 252.527344 236.613281 C 253.183594 235.800781 253.894531 235.046875 254.660156 234.339844 C 255.425781 233.636719 256.238281 232.992188 257.101562 232.40625 C 257.964844 231.820312 258.863281 231.304688 259.800781 230.851562 C 260.738281 230.398438 261.707031 230.019531 262.699219 229.710938 L 262.699219 228.59375 C 262.699219 228.105469 262.746094 227.621094 262.84375 227.140625 C 262.9375 226.660156 263.078125 226.195312 263.265625 225.746094 C 263.453125 225.292969 263.683594 224.863281 263.953125 224.457031 C 264.226562 224.050781 264.535156 223.675781 264.882812 223.328125 C 265.226562 222.984375 265.601562 222.675781 266.007812 222.402344 C 266.414062 222.132812 266.84375 221.902344 267.296875 221.714844 C 267.75 221.527344 268.214844 221.386719 268.695312 221.292969 C 269.171875 221.195312 269.65625 221.148438 270.144531 221.148438 C 270.636719 221.148438 271.121094 221.195312 271.597656 221.292969 C 272.078125 221.386719 272.542969 221.527344 272.996094 221.714844 C 273.449219 221.902344 273.875 222.132812 274.285156 222.402344 C 274.691406 222.675781 275.066406 222.984375 275.410156 223.328125 C 275.757812 223.675781 276.066406 224.050781 276.335938 224.457031 C 276.609375 224.863281 276.839844 225.292969 277.027344 225.746094 C 277.210938 226.195312 277.355469 226.660156 277.449219 227.140625 C 277.542969 227.621094 277.59375 228.105469 277.59375 228.59375 L 277.59375 229.710938 C 278.660156 230.039062 279.695312 230.453125 280.699219 230.949219 C 281.699219 231.441406 282.65625 232.011719 283.570312 232.660156 C 284.480469 233.304688 285.335938 234.019531 286.136719 234.800781 C 286.933594 235.582031 287.664062 236.421875 288.332031 237.320312 C 288.996094 238.21875 289.585938 239.164062 290.101562 240.15625 C 290.617188 241.148438 291.050781 242.171875 291.40625 243.234375 C 291.757812 244.292969 292.023438 245.375 292.207031 246.476562 C 292.386719 247.582031 292.480469 248.691406 292.484375 249.808594 Z M 292.484375 250.925781 " fill-opacity="1" fill-rule="nonzero"/></g><g clip-path="url(#id2)"><path fill="#4e3165" d="M 337.164062 42.5 L 54.203125 42.5 C 53.714844 42.5 53.230469 42.546875 52.753906 42.640625 C 52.273438 42.738281 51.808594 42.878906 51.355469 43.066406 C 50.902344 43.253906 50.476562 43.480469 50.066406 43.753906 C 49.660156 44.023438 49.285156 44.332031 48.941406 44.679688 C 48.59375 45.023438 48.285156 45.402344 48.015625 45.808594 C 47.742188 46.214844 47.511719 46.644531 47.324219 47.09375 C 47.136719 47.546875 46.996094 48.011719 46.902344 48.492188 C 46.804688 48.96875 46.757812 49.453125 46.757812 49.941406 L 46.757812 57.386719 L 307.378906 57.386719 C 308.109375 57.386719 308.839844 57.421875 309.566406 57.496094 C 310.296875 57.566406 311.019531 57.671875 311.734375 57.816406 C 312.453125 57.957031 313.160156 58.136719 313.863281 58.347656 C 314.5625 58.5625 315.25 58.808594 315.925781 59.085938 C 316.601562 59.367188 317.261719 59.679688 317.90625 60.023438 C 318.554688 60.367188 319.179688 60.742188 319.789062 61.148438 C 320.398438 61.558594 320.984375 61.992188 321.550781 62.457031 C 322.113281 62.917969 322.65625 63.410156 323.171875 63.925781 C 323.691406 64.445312 324.179688 64.984375 324.644531 65.550781 C 325.109375 66.117188 325.546875 66.703125 325.953125 67.3125 C 326.359375 67.917969 326.734375 68.546875 327.078125 69.191406 C 327.421875 69.835938 327.734375 70.496094 328.015625 71.171875 C 328.296875 71.847656 328.542969 72.535156 328.753906 73.234375 C 328.96875 73.933594 329.144531 74.644531 329.285156 75.363281 C 329.429688 76.078125 329.535156 76.800781 329.609375 77.527344 C 329.679688 78.257812 329.714844 78.988281 329.714844 79.71875 L 329.714844 206.261719 L 337.164062 206.261719 C 337.652344 206.261719 338.136719 206.214844 338.613281 206.117188 C 339.09375 206.023438 339.558594 205.882812 340.011719 205.695312 C 340.464844 205.507812 340.894531 205.277344 341.300781 205.007812 C 341.707031 204.734375 342.082031 204.425781 342.429688 204.082031 C 342.773438 203.734375 343.082031 203.359375 343.355469 202.953125 C 343.625 202.546875 343.855469 202.117188 344.042969 201.667969 C 344.230469 201.214844 344.371094 200.75 344.464844 200.269531 C 344.5625 199.789062 344.609375 199.308594 344.609375 198.816406 L 344.609375 49.941406 C 344.609375 49.453125 344.5625 48.96875 344.464844 48.492188 C 344.371094 48.011719 344.230469 47.546875 344.042969 47.09375 C 343.855469 46.644531 343.625 46.214844 343.355469 45.808594 C 343.082031 45.402344 342.773438 45.023438 342.429688 44.679688 C 342.082031 44.332031 341.707031 44.023438 341.300781 43.753906 C 340.894531 43.480469 340.464844 43.253906 340.011719 43.066406 C 339.558594 42.878906 339.09375 42.738281 338.613281 42.640625 C 338.136719 42.546875 337.652344 42.5 337.164062 42.5 Z M 337.164062 42.5 " fill-opacity="1" fill-rule="nonzero"/></g><path fill="#4e3165" d="M 263.964844 109.492188 L 67.832031 109.492188 C 67.277344 111.066406 66.554688 112.554688 65.664062 113.964844 C 64.777344 115.375 63.742188 116.671875 62.5625 117.847656 C 61.382812 119.027344 60.089844 120.0625 58.679688 120.949219 C 57.269531 121.839844 55.777344 122.558594 54.203125 123.113281 L 54.203125 185.195312 C 55.777344 185.75 57.269531 186.472656 58.679688 187.363281 C 60.089844 188.25 61.382812 189.285156 62.5625 190.460938 C 63.742188 191.640625 64.777344 192.933594 65.664062 194.34375 C 66.554688 195.753906 67.277344 197.246094 67.832031 198.816406 L 211.171875 198.816406 C 215.199219 195.242188 219.519531 192.058594 224.128906 189.269531 C 228.738281 186.480469 233.5625 184.132812 238.601562 182.226562 C 243.640625 180.316406 248.8125 178.882812 254.113281 177.917969 C 259.414062 176.953125 264.757812 176.476562 270.144531 176.488281 C 272.679688 176.488281 275.136719 176.488281 277.59375 176.488281 L 277.59375 123.113281 C 276.019531 122.558594 274.527344 121.839844 273.117188 120.949219 C 271.707031 120.0625 270.414062 119.027344 269.234375 117.847656 C 268.054688 116.671875 267.019531 115.375 266.132812 113.964844 C 265.242188 112.554688 264.519531 111.066406 263.964844 109.492188 Z M 165.898438 191.375 C 164.679688 191.375 163.464844 191.316406 162.25 191.195312 C 161.035156 191.074219 159.832031 190.898438 158.636719 190.660156 C 157.4375 190.421875 156.257812 190.125 155.089844 189.773438 C 153.925781 189.417969 152.777344 189.007812 151.652344 188.542969 C 150.523438 188.074219 149.421875 187.554688 148.347656 186.980469 C 147.273438 186.40625 146.226562 185.777344 145.214844 185.101562 C 144.199219 184.425781 143.222656 183.699219 142.28125 182.925781 C 141.335938 182.152344 140.433594 181.335938 139.574219 180.472656 C 138.710938 179.609375 137.890625 178.710938 137.117188 177.765625 C 136.34375 176.824219 135.621094 175.847656 134.941406 174.832031 C 134.265625 173.820312 133.636719 172.773438 133.0625 171.699219 C 132.488281 170.625 131.96875 169.523438 131.5 168.398438 C 131.035156 167.273438 130.625 166.125 130.269531 164.960938 C 129.917969 163.792969 129.621094 162.613281 129.382812 161.417969 C 129.144531 160.222656 128.964844 159.015625 128.847656 157.804688 C 128.726562 156.589844 128.667969 155.375 128.667969 154.15625 C 128.667969 152.9375 128.726562 151.71875 128.847656 150.507812 C 128.964844 149.292969 129.144531 148.089844 129.382812 146.894531 C 129.621094 145.699219 129.917969 144.519531 130.269531 143.351562 C 130.625 142.183594 131.035156 141.039062 131.5 139.914062 C 131.96875 138.785156 132.488281 137.6875 133.0625 136.609375 C 133.636719 135.535156 134.265625 134.492188 134.941406 133.476562 C 135.621094 132.464844 136.34375 131.488281 137.117188 130.542969 C 137.890625 129.601562 138.710938 128.699219 139.574219 127.839844 C 140.433594 126.976562 141.335938 126.160156 142.28125 125.386719 C 143.222656 124.613281 144.199219 123.886719 145.214844 123.210938 C 146.226562 122.53125 147.273438 121.90625 148.347656 121.332031 C 149.421875 120.757812 150.523438 120.238281 151.652344 119.769531 C 152.777344 119.304688 153.925781 118.894531 155.089844 118.539062 C 156.257812 118.1875 157.4375 117.890625 158.636719 117.652344 C 159.832031 117.414062 161.035156 117.234375 162.25 117.117188 C 163.464844 116.996094 164.679688 116.9375 165.898438 116.9375 C 167.117188 116.9375 168.335938 116.996094 169.546875 117.117188 C 170.761719 117.234375 171.964844 117.414062 173.164062 117.652344 C 174.359375 117.890625 175.539062 118.1875 176.707031 118.539062 C 177.875 118.894531 179.019531 119.304688 180.148438 119.769531 C 181.273438 120.238281 182.375 120.757812 183.449219 121.332031 C 184.523438 121.90625 185.570312 122.53125 186.582031 123.210938 C 187.597656 123.886719 188.574219 124.613281 189.519531 125.386719 C 190.460938 126.160156 191.363281 126.976562 192.226562 127.839844 C 193.085938 128.699219 193.90625 129.601562 194.679688 130.542969 C 195.453125 131.488281 196.179688 132.464844 196.855469 133.476562 C 197.53125 134.492188 198.160156 135.535156 198.734375 136.609375 C 199.308594 137.6875 199.828125 138.785156 200.296875 139.914062 C 200.761719 141.039062 201.171875 142.183594 201.527344 143.351562 C 201.878906 144.519531 202.175781 145.699219 202.414062 146.894531 C 202.652344 148.089844 202.832031 149.292969 202.949219 150.507812 C 203.070312 151.71875 203.128906 152.9375 203.128906 154.15625 C 203.128906 155.375 203.070312 156.589844 202.949219 157.804688 C 202.832031 159.015625 202.652344 160.222656 202.414062 161.417969 C 202.175781 162.613281 201.882812 163.792969 201.527344 164.960938 C 201.171875 166.125 200.761719 167.273438 200.296875 168.398438 C 199.828125 169.523438 199.308594 170.625 198.734375 171.699219 C 198.160156 172.777344 197.53125 173.820312 196.855469 174.832031 C 196.179688 175.847656 195.453125 176.824219 194.679688 177.765625 C 193.90625 178.710938 193.085938 179.609375 192.226562 180.472656 C 191.363281 181.335938 190.460938 182.152344 189.519531 182.925781 C 188.574219 183.699219 187.597656 184.425781 186.582031 185.101562 C 185.570312 185.777344 184.523438 186.40625 183.449219 186.980469 C 182.375 187.554688 181.273438 188.074219 180.148438 188.542969 C 179.019531 189.007812 177.875 189.417969 176.707031 189.773438 C 175.539062 190.125 174.359375 190.421875 173.164062 190.660156 C 171.964844 190.898438 170.761719 191.074219 169.546875 191.195312 C 168.335938 191.316406 167.117188 191.375 165.898438 191.375 Z M 165.898438 191.375 " fill-opacity="1" fill-rule="nonzero"/><path fill="#4e3165" d="M 188.238281 154.15625 C 188.238281 154.886719 188.203125 155.617188 188.128906 156.34375 C 188.058594 157.074219 187.949219 157.792969 187.808594 158.511719 C 187.664062 159.230469 187.488281 159.9375 187.277344 160.636719 C 187.0625 161.335938 186.816406 162.027344 186.539062 162.703125 C 186.257812 163.378906 185.945312 164.039062 185.601562 164.683594 C 185.253906 165.328125 184.878906 165.953125 184.472656 166.5625 C 184.066406 167.171875 183.632812 167.757812 183.167969 168.324219 C 182.703125 168.886719 182.210938 169.429688 181.695312 169.945312 C 181.175781 170.464844 180.636719 170.953125 180.070312 171.417969 C 179.503906 171.882812 178.917969 172.316406 178.308594 172.722656 C 177.703125 173.128906 177.074219 173.503906 176.429688 173.851562 C 175.785156 174.195312 175.125 174.507812 174.449219 174.785156 C 173.773438 175.066406 173.082031 175.3125 172.382812 175.523438 C 171.683594 175.738281 170.972656 175.914062 170.257812 176.058594 C 169.539062 176.199219 168.816406 176.308594 168.089844 176.378906 C 167.359375 176.449219 166.628906 176.488281 165.898438 176.488281 C 165.167969 176.488281 164.4375 176.449219 163.710938 176.378906 C 162.980469 176.308594 162.257812 176.199219 161.539062 176.058594 C 160.824219 175.914062 160.113281 175.738281 159.414062 175.523438 C 158.714844 175.3125 158.027344 175.066406 157.351562 174.785156 C 156.675781 174.507812 156.011719 174.195312 155.367188 173.851562 C 154.722656 173.503906 154.097656 173.128906 153.488281 172.722656 C 152.878906 172.316406 152.292969 171.882812 151.726562 171.417969 C 151.160156 170.953125 150.621094 170.464844 150.101562 169.945312 C 149.585938 169.429688 149.09375 168.886719 148.628906 168.324219 C 148.167969 167.757812 147.730469 167.171875 147.324219 166.5625 C 146.917969 165.953125 146.542969 165.328125 146.199219 164.683594 C 145.851562 164.039062 145.539062 163.378906 145.261719 162.703125 C 144.980469 162.027344 144.734375 161.335938 144.523438 160.636719 C 144.308594 159.9375 144.132812 159.230469 143.988281 158.511719 C 143.847656 157.792969 143.738281 157.074219 143.667969 156.34375 C 143.597656 155.617188 143.558594 154.886719 143.558594 154.15625 C 143.558594 153.425781 143.597656 152.695312 143.667969 151.964844 C 143.738281 151.238281 143.847656 150.515625 143.988281 149.800781 C 144.132812 149.082031 144.308594 148.371094 144.523438 147.671875 C 144.734375 146.972656 144.980469 146.285156 145.261719 145.609375 C 145.539062 144.933594 145.851562 144.273438 146.199219 143.628906 C 146.542969 142.984375 146.917969 142.355469 147.324219 141.75 C 147.730469 141.140625 148.167969 140.554688 148.628906 139.988281 C 149.09375 139.421875 149.585938 138.882812 150.101562 138.363281 C 150.621094 137.847656 151.160156 137.355469 151.726562 136.894531 C 152.292969 136.429688 152.878906 135.996094 153.488281 135.585938 C 154.097656 135.179688 154.722656 134.804688 155.367188 134.460938 C 156.011719 134.117188 156.675781 133.804688 157.351562 133.523438 C 158.027344 133.246094 158.714844 133 159.414062 132.785156 C 160.113281 132.574219 160.824219 132.394531 161.539062 132.253906 C 162.257812 132.109375 162.980469 132.003906 163.710938 131.933594 C 164.4375 131.859375 165.167969 131.824219 165.898438 131.824219 C 166.628906 131.824219 167.359375 131.859375 168.089844 131.933594 C 168.816406 132.003906 169.539062 132.109375 170.257812 132.253906 C 170.972656 132.394531 171.683594 132.574219 172.382812 132.785156 C 173.082031 133 173.773438 133.246094 174.449219 133.523438 C 175.125 133.804688 175.785156 134.117188 176.429688 134.460938 C 177.074219 134.804688 177.703125 135.179688 178.308594 135.585938 C 178.917969 135.996094 179.503906 136.429688 180.070312 136.894531 C 180.636719 137.355469 181.175781 137.847656 181.695312 138.363281 C 182.210938 138.882812 182.703125 139.421875 183.167969 139.988281 C 183.632812 140.554688 184.066406 141.140625 184.472656 141.75 C 184.878906 142.355469 185.253906 142.984375 185.601562 143.628906 C 185.945312 144.273438 186.257812 144.933594 186.539062 145.609375 C 186.816406 146.285156 187.0625 146.972656 187.277344 147.671875 C 187.488281 148.371094 187.664062 149.082031 187.808594 149.800781 C 187.949219 150.515625 188.058594 151.238281 188.128906 151.964844 C 188.203125 152.695312 188.238281 153.425781 188.238281 154.15625 Z M 188.238281 154.15625 " fill-opacity="1" fill-rule="nonzero"/><g clip-path="url(#id3)"><path fill="#4e3165" d="M 24.421875 236.035156 L 185.929688 236.035156 C 188.742188 228.027344 192.640625 220.582031 197.621094 213.707031 L 61.652344 213.707031 C 61.164062 213.707031 60.679688 213.65625 60.199219 213.5625 C 59.71875 213.46875 59.253906 213.324219 58.800781 213.140625 C 58.351562 212.953125 57.921875 212.722656 57.515625 212.449219 C 57.109375 212.179688 56.730469 211.871094 56.386719 211.523438 C 56.039062 211.179688 55.730469 210.804688 55.460938 210.398438 C 55.1875 209.992188 54.957031 209.5625 54.773438 209.109375 C 54.585938 208.660156 54.445312 208.195312 54.347656 207.714844 C 54.253906 207.234375 54.203125 206.75 54.203125 206.261719 C 54.203125 205.773438 54.15625 205.289062 54.0625 204.808594 C 53.964844 204.332031 53.824219 203.863281 53.636719 203.414062 C 53.449219 202.960938 53.222656 202.53125 52.949219 202.125 C 52.679688 201.71875 52.371094 201.34375 52.023438 201 C 51.679688 200.652344 51.300781 200.34375 50.894531 200.074219 C 50.488281 199.800781 50.058594 199.570312 49.609375 199.382812 C 49.15625 199.199219 48.691406 199.054688 48.210938 198.960938 C 47.730469 198.867188 47.246094 198.816406 46.757812 198.816406 C 46.269531 198.816406 45.785156 198.769531 45.304688 198.675781 C 44.828125 198.578125 44.359375 198.4375 43.910156 198.25 C 43.457031 198.0625 43.027344 197.835938 42.621094 197.5625 C 42.214844 197.292969 41.839844 196.984375 41.492188 196.636719 C 41.148438 196.292969 40.839844 195.917969 40.566406 195.511719 C 40.296875 195.101562 40.066406 194.675781 39.878906 194.222656 C 39.691406 193.769531 39.550781 193.304688 39.457031 192.828125 C 39.359375 192.347656 39.3125 191.863281 39.3125 191.375 L 39.3125 116.9375 C 39.3125 116.449219 39.359375 115.964844 39.457031 115.484375 C 39.550781 115.003906 39.691406 114.539062 39.878906 114.089844 C 40.066406 113.636719 40.296875 113.207031 40.566406 112.800781 C 40.839844 112.394531 41.148438 112.019531 41.492188 111.671875 C 41.839844 111.328125 42.214844 111.019531 42.621094 110.746094 C 43.027344 110.476562 43.457031 110.246094 43.910156 110.058594 C 44.359375 109.871094 44.828125 109.730469 45.304688 109.636719 C 45.785156 109.539062 46.269531 109.492188 46.757812 109.492188 C 47.246094 109.492188 47.730469 109.445312 48.210938 109.351562 C 48.691406 109.253906 49.15625 109.113281 49.609375 108.925781 C 50.058594 108.738281 50.488281 108.511719 50.894531 108.238281 C 51.300781 107.96875 51.679688 107.660156 52.023438 107.3125 C 52.371094 106.96875 52.679688 106.589844 52.949219 106.183594 C 53.222656 105.777344 53.449219 105.347656 53.636719 104.898438 C 53.824219 104.445312 53.964844 103.980469 54.0625 103.5 C 54.15625 103.023438 54.203125 102.539062 54.203125 102.050781 C 54.203125 101.5625 54.253906 101.078125 54.347656 100.597656 C 54.445312 100.117188 54.585938 99.652344 54.773438 99.199219 C 54.960938 98.75 55.1875 98.320312 55.460938 97.914062 C 55.730469 97.507812 56.039062 97.132812 56.386719 96.785156 C 56.730469 96.441406 57.109375 96.132812 57.515625 95.859375 C 57.921875 95.589844 58.351562 95.359375 58.800781 95.171875 C 59.253906 94.984375 59.71875 94.84375 60.199219 94.75 C 60.679688 94.652344 61.164062 94.605469 61.652344 94.605469 L 270.144531 94.605469 C 270.636719 94.605469 271.121094 94.652344 271.597656 94.75 C 272.078125 94.84375 272.542969 94.984375 272.996094 95.171875 C 273.449219 95.359375 273.875 95.589844 274.285156 95.859375 C 274.691406 96.132812 275.066406 96.441406 275.410156 96.785156 C 275.757812 97.132812 276.066406 97.507812 276.335938 97.914062 C 276.609375 98.320312 276.839844 98.75 277.027344 99.199219 C 277.210938 99.652344 277.355469 100.117188 277.449219 100.597656 C 277.542969 101.078125 277.59375 101.5625 277.59375 102.050781 C 277.59375 102.539062 277.640625 103.023438 277.734375 103.5 C 277.832031 103.980469 277.972656 104.445312 278.160156 104.898438 C 278.347656 105.347656 278.574219 105.777344 278.847656 106.183594 C 279.117188 106.589844 279.429688 106.96875 279.773438 107.3125 C 280.121094 107.660156 280.496094 107.96875 280.902344 108.238281 C 281.308594 108.511719 281.738281 108.738281 282.1875 108.925781 C 282.640625 109.113281 283.105469 109.253906 283.585938 109.351562 C 284.066406 109.445312 284.550781 109.492188 285.039062 109.492188 C 285.527344 109.492188 286.011719 109.539062 286.492188 109.636719 C 286.972656 109.730469 287.4375 109.871094 287.886719 110.058594 C 288.339844 110.246094 288.769531 110.476562 289.175781 110.746094 C 289.582031 111.019531 289.957031 111.328125 290.304688 111.671875 C 290.648438 112.019531 290.957031 112.394531 291.230469 112.800781 C 291.5 113.207031 291.730469 113.636719 291.917969 114.089844 C 292.105469 114.539062 292.246094 115.003906 292.34375 115.484375 C 292.4375 115.964844 292.484375 116.449219 292.484375 116.9375 L 292.484375 179.316406 C 300.355469 181.332031 307.800781 184.382812 314.824219 188.472656 L 314.824219 79.71875 C 314.824219 79.230469 314.777344 78.746094 314.679688 78.265625 C 314.585938 77.785156 314.445312 77.320312 314.257812 76.871094 C 314.070312 76.417969 313.839844 75.988281 313.570312 75.582031 C 313.296875 75.175781 312.988281 74.800781 312.644531 74.453125 C 312.296875 74.109375 311.921875 73.800781 311.515625 73.527344 C 311.109375 73.257812 310.679688 73.027344 310.226562 72.839844 C 309.773438 72.652344 309.308594 72.511719 308.832031 72.417969 C 308.351562 72.320312 307.867188 72.273438 307.378906 72.273438 L 24.421875 72.273438 C 23.929688 72.273438 23.445312 72.320312 22.96875 72.417969 C 22.488281 72.511719 22.023438 72.652344 21.570312 72.839844 C 21.117188 73.027344 20.691406 73.257812 20.28125 73.527344 C 19.875 73.800781 19.5 74.109375 19.15625 74.453125 C 18.808594 74.800781 18.5 75.175781 18.230469 75.582031 C 17.957031 75.988281 17.726562 76.417969 17.539062 76.871094 C 17.355469 77.320312 17.210938 77.785156 17.117188 78.265625 C 17.023438 78.746094 16.972656 79.230469 16.972656 79.71875 L 16.972656 228.59375 C 16.972656 229.082031 17.023438 229.566406 17.117188 230.046875 C 17.210938 230.523438 17.355469 230.988281 17.539062 231.441406 C 17.726562 231.894531 17.957031 232.320312 18.230469 232.730469 C 18.5 233.136719 18.808594 233.511719 19.15625 233.855469 C 19.5 234.203125 19.875 234.511719 20.28125 234.78125 C 20.691406 235.054688 21.117188 235.28125 21.570312 235.46875 C 22.023438 235.65625 22.488281 235.796875 22.96875 235.894531 C 23.445312 235.988281 23.929688 236.035156 24.421875 236.035156 Z M 24.421875 236.035156 " fill-opacity="1" fill-rule="nonzero"/></g><path fill="#4e3165" d="M 136.113281 303.03125 L 188.90625 303.03125 C 186.722656 298.21875 184.960938 293.253906 183.621094 288.144531 L 136.113281 288.144531 C 135.625 288.144531 135.140625 288.191406 134.660156 288.285156 C 134.179688 288.382812 133.714844 288.523438 133.265625 288.710938 C 132.8125 288.898438 132.382812 289.125 131.976562 289.398438 C 131.570312 289.667969 131.195312 289.976562 130.847656 290.324219 C 130.503906 290.667969 130.195312 291.042969 129.921875 291.453125 C 129.652344 291.859375 129.421875 292.285156 129.234375 292.738281 C 129.046875 293.191406 128.90625 293.65625 128.8125 294.132812 C 128.714844 294.613281 128.667969 295.097656 128.667969 295.585938 C 128.667969 296.074219 128.714844 296.558594 128.8125 297.039062 C 128.90625 297.519531 129.046875 297.984375 129.234375 298.433594 C 129.421875 298.886719 129.652344 299.316406 129.921875 299.722656 C 130.195312 300.128906 130.503906 300.503906 130.847656 300.851562 C 131.195312 301.195312 131.570312 301.503906 131.976562 301.777344 C 132.382812 302.046875 132.8125 302.277344 133.265625 302.464844 C 133.714844 302.652344 134.179688 302.792969 134.660156 302.886719 C 135.140625 302.984375 135.625 303.03125 136.113281 303.03125 Z M 136.113281 303.03125 " fill-opacity="1" fill-rule="nonzero"/><path fill="#4e3165" d="M 136.113281 258.367188 C 135.625 258.367188 135.140625 258.414062 134.660156 258.511719 C 134.179688 258.605469 133.714844 258.746094 133.265625 258.933594 C 132.8125 259.121094 132.382812 259.351562 131.976562 259.621094 C 131.570312 259.894531 131.195312 260.203125 130.847656 260.546875 C 130.503906 260.894531 130.195312 261.269531 129.921875 261.675781 C 129.652344 262.082031 129.421875 262.511719 129.234375 262.964844 C 129.046875 263.414062 128.90625 263.878906 128.8125 264.359375 C 128.714844 264.839844 128.667969 265.324219 128.667969 265.8125 C 128.667969 266.300781 128.714844 266.785156 128.8125 267.265625 C 128.90625 267.742188 129.046875 268.207031 129.234375 268.660156 C 129.421875 269.113281 129.652344 269.539062 129.921875 269.949219 C 130.195312 270.355469 130.503906 270.730469 130.847656 271.074219 C 131.195312 271.421875 131.570312 271.730469 131.976562 272 C 132.382812 272.273438 132.8125 272.5 133.265625 272.6875 C 133.714844 272.875 134.179688 273.015625 134.660156 273.113281 C 135.140625 273.207031 135.625 273.253906 136.113281 273.253906 L 180.792969 273.253906 C 180.792969 270.800781 180.792969 268.34375 180.792969 265.8125 C 180.792969 263.28125 180.792969 260.824219 180.792969 258.367188 Z M 136.113281 258.367188 " fill-opacity="1" fill-rule="nonzero"/><g clip-path="url(#id4)"><path fill="#ffffff" d="M 283.867188 183.808594 C 282.648438 183.808594 281.433594 183.839844 280.214844 183.898438 C 278.996094 183.960938 277.78125 184.050781 276.570312 184.167969 C 275.359375 184.289062 274.148438 184.4375 272.941406 184.617188 C 271.738281 184.792969 270.535156 185.003906 269.34375 185.242188 C 268.148438 185.476562 266.957031 185.746094 265.777344 186.039062 C 264.59375 186.335938 263.417969 186.660156 262.253906 187.015625 C 261.085938 187.367188 259.929688 187.75 258.78125 188.160156 C 257.636719 188.570312 256.5 189.011719 255.375 189.476562 C 254.246094 189.941406 253.132812 190.4375 252.03125 190.957031 C 250.929688 191.476562 249.84375 192.027344 248.765625 192.601562 C 247.691406 193.175781 246.632812 193.773438 245.585938 194.402344 C 244.542969 195.027344 243.511719 195.679688 242.5 196.355469 C 241.488281 197.03125 240.492188 197.734375 239.511719 198.457031 C 238.53125 199.183594 237.574219 199.933594 236.628906 200.707031 C 235.6875 201.480469 234.765625 202.273438 233.863281 203.09375 C 232.960938 203.910156 232.078125 204.75 231.214844 205.613281 C 230.355469 206.472656 229.515625 207.355469 228.695312 208.257812 C 227.878906 209.160156 227.082031 210.082031 226.308594 211.023438 C 225.535156 211.964844 224.785156 212.925781 224.058594 213.90625 C 223.332031 214.882812 222.632812 215.878906 221.957031 216.890625 C 221.277344 217.90625 220.625 218.933594 220 219.980469 C 219.375 221.023438 218.773438 222.082031 218.199219 223.15625 C 217.625 224.234375 217.078125 225.320312 216.554688 226.421875 C 216.035156 227.523438 215.539062 228.636719 215.074219 229.761719 C 214.609375 230.886719 214.167969 232.023438 213.757812 233.171875 C 213.347656 234.316406 212.964844 235.472656 212.613281 236.640625 C 212.257812 237.804688 211.933594 238.980469 211.636719 240.160156 C 211.339844 241.34375 211.074219 242.53125 210.835938 243.726562 C 210.597656 244.921875 210.390625 246.121094 210.210938 247.324219 C 210.035156 248.53125 209.882812 249.738281 209.765625 250.953125 C 209.644531 252.164062 209.554688 253.378906 209.496094 254.59375 C 209.4375 255.8125 209.40625 257.03125 209.40625 258.246094 C 209.40625 259.464844 209.4375 260.683594 209.496094 261.898438 C 209.554688 263.117188 209.644531 264.332031 209.765625 265.542969 C 209.882812 266.757812 210.035156 267.964844 210.210938 269.171875 C 210.390625 270.375 210.597656 271.574219 210.835938 272.769531 C 211.074219 273.964844 211.339844 275.152344 211.636719 276.335938 C 211.933594 277.515625 212.257812 278.691406 212.613281 279.855469 C 212.964844 281.023438 213.347656 282.179688 213.757812 283.324219 C 214.167969 284.472656 214.609375 285.609375 215.074219 286.734375 C 215.539062 287.859375 216.035156 288.972656 216.554688 290.074219 C 217.078125 291.175781 217.625 292.261719 218.199219 293.335938 C 218.773438 294.410156 219.375 295.472656 220 296.515625 C 220.625 297.5625 221.277344 298.589844 221.957031 299.601562 C 222.632812 300.617188 223.335938 301.613281 224.058594 302.589844 C 224.785156 303.570312 225.535156 304.527344 226.308594 305.46875 C 227.082031 306.410156 227.878906 307.335938 228.695312 308.238281 C 229.515625 309.140625 230.355469 310.023438 231.214844 310.882812 C 232.078125 311.746094 232.960938 312.585938 233.863281 313.402344 C 234.765625 314.21875 235.6875 315.015625 236.628906 315.789062 C 237.574219 316.5625 238.53125 317.3125 239.511719 318.035156 C 240.492188 318.761719 241.488281 319.464844 242.5 320.140625 C 243.511719 320.816406 244.542969 321.46875 245.585938 322.09375 C 246.632812 322.722656 247.691406 323.320312 248.765625 323.894531 C 249.84375 324.46875 250.929688 325.015625 252.03125 325.539062 C 253.132812 326.058594 254.246094 326.554688 255.375 327.019531 C 256.5 327.484375 257.636719 327.921875 258.78125 328.332031 C 259.929688 328.746094 261.085938 329.125 262.253906 329.480469 C 263.417969 329.832031 264.59375 330.160156 265.777344 330.453125 C 266.957031 330.75 268.148438 331.015625 269.34375 331.253906 C 270.535156 331.492188 271.738281 331.699219 272.941406 331.878906 C 274.148438 332.058594 275.359375 332.207031 276.570312 332.328125 C 277.78125 332.445312 278.996094 332.535156 280.214844 332.59375 C 281.433594 332.65625 282.648438 332.683594 283.867188 332.683594 C 285.085938 332.683594 286.304688 332.65625 287.523438 332.59375 C 288.738281 332.535156 289.953125 332.445312 291.167969 332.328125 C 292.378906 332.207031 293.589844 332.058594 294.792969 331.878906 C 296 331.699219 297.199219 331.492188 298.394531 331.253906 C 299.589844 331.015625 300.78125 330.75 301.960938 330.453125 C 303.144531 330.160156 304.316406 329.832031 305.484375 329.480469 C 306.648438 329.125 307.808594 328.746094 308.953125 328.332031 C 310.101562 327.921875 311.238281 327.484375 312.363281 327.019531 C 313.488281 326.554688 314.605469 326.058594 315.707031 325.539062 C 316.808594 325.015625 317.894531 324.46875 318.96875 323.894531 C 320.042969 323.320312 321.105469 322.722656 322.148438 322.09375 C 323.195312 321.46875 324.226562 320.816406 325.238281 320.140625 C 326.25 319.464844 327.246094 318.761719 328.226562 318.035156 C 329.203125 317.3125 330.164062 316.5625 331.105469 315.789062 C 332.050781 315.015625 332.972656 314.21875 333.875 313.402344 C 334.777344 312.585938 335.660156 311.746094 336.523438 310.882812 C 337.382812 310.023438 338.222656 309.140625 339.042969 308.238281 C 339.859375 307.335938 340.65625 306.410156 341.429688 305.46875 C 342.203125 304.527344 342.953125 303.570312 343.675781 302.589844 C 344.402344 301.613281 345.105469 300.617188 345.78125 299.601562 C 346.460938 298.589844 347.109375 297.5625 347.738281 296.515625 C 348.363281 295.472656 348.964844 294.410156 349.539062 293.335938 C 350.113281 292.261719 350.660156 291.175781 351.183594 290.074219 C 351.703125 288.972656 352.195312 287.859375 352.664062 286.734375 C 353.128906 285.609375 353.566406 284.472656 353.980469 283.324219 C 354.390625 282.179688 354.769531 281.023438 355.125 279.855469 C 355.480469 278.691406 355.804688 277.515625 356.101562 276.335938 C 356.394531 275.152344 356.664062 273.964844 356.902344 272.769531 C 357.136719 271.574219 357.347656 270.375 357.523438 269.171875 C 357.703125 267.964844 357.851562 266.757812 357.972656 265.542969 C 358.09375 264.332031 358.183594 263.117188 358.242188 261.898438 C 358.300781 260.683594 358.332031 259.464844 358.332031 258.246094 C 358.332031 257.03125 358.300781 255.8125 358.242188 254.59375 C 358.183594 253.378906 358.09375 252.164062 357.972656 250.953125 C 357.851562 249.738281 357.703125 248.53125 357.523438 247.324219 C 357.347656 246.121094 357.136719 244.921875 356.902344 243.726562 C 356.664062 242.53125 356.394531 241.34375 356.101562 240.160156 C 355.804688 238.980469 355.480469 237.804688 355.125 236.640625 C 354.769531 235.472656 354.390625 234.316406 353.980469 233.171875 C 353.566406 232.023438 353.128906 230.886719 352.664062 229.761719 C 352.195312 228.636719 351.703125 227.523438 351.183594 226.421875 C 350.660156 225.320312 350.113281 224.234375 349.539062 223.15625 C 348.964844 222.082031 348.363281 221.023438 347.738281 219.980469 C 347.109375 218.933594 346.460938 217.90625 345.78125 216.890625 C 345.105469 215.878906 344.402344 214.882812 343.675781 213.90625 C 342.953125 212.925781 342.203125 211.964844 341.429688 211.023438 C 340.65625 210.082031 339.859375 209.160156 339.042969 208.257812 C 338.222656 207.355469 337.382812 206.472656 336.523438 205.613281 C 335.660156 204.75 334.777344 203.910156 333.875 203.09375 C 332.972656 202.273438 332.050781 201.480469 331.105469 200.707031 C 330.164062 199.933594 329.203125 199.183594 328.226562 198.457031 C 327.246094 197.734375 326.25 197.03125 325.238281 196.355469 C 324.226562 195.679688 323.195312 195.027344 322.148438 194.402344 C 321.105469 193.773438 320.042969 193.175781 318.96875 192.601562 C 317.894531 192.027344 316.808594 191.476562 315.707031 190.957031 C 314.605469 190.4375 313.488281 189.941406 312.363281 189.476562 C 311.238281 189.011719 310.101562 188.570312 308.953125 188.160156 C 307.808594 187.75 306.648438 187.367188 305.484375 187.015625 C 304.316406 186.660156 303.144531 186.335938 301.960938 186.039062 C 300.78125 185.746094 299.589844 185.476562 298.394531 185.242188 C 297.199219 185.003906 296 184.792969 294.792969 184.617188 C 293.589844 184.4375 292.378906 184.289062 291.167969 184.167969 C 289.953125 184.050781 288.738281 183.960938 287.523438 183.898438 C 286.304688 183.839844 285.085938 183.808594 283.867188 183.808594 Z M 306.207031 243.359375 C 306.207031 243.847656 306.160156 244.332031 306.0625 244.8125 C 305.96875 245.292969 305.828125 245.757812 305.640625 246.207031 C 305.453125 246.660156 305.222656 247.089844 304.953125 247.496094 C 304.679688 247.902344 304.371094 248.277344 304.027344 248.625 C 303.679688 248.96875 303.304688 249.277344 302.898438 249.550781 C 302.492188 249.820312 302.0625 250.050781 301.609375 250.238281 C 301.160156 250.425781 300.695312 250.566406 300.214844 250.660156 C 299.734375 250.757812 299.25 250.804688 298.761719 250.804688 C 298.273438 250.804688 297.789062 250.757812 297.308594 250.660156 C 296.828125 250.566406 296.363281 250.425781 295.910156 250.238281 C 295.460938 250.050781 295.03125 249.820312 294.625 249.550781 C 294.21875 249.277344 293.839844 248.96875 293.496094 248.625 C 293.148438 248.277344 292.839844 247.902344 292.570312 247.496094 C 292.296875 247.089844 292.070312 246.660156 291.882812 246.207031 C 291.695312 245.757812 291.554688 245.292969 291.457031 244.8125 C 291.363281 244.332031 291.316406 243.847656 291.316406 243.359375 L 291.316406 242.242188 C 291.316406 241.828125 291.273438 241.417969 291.195312 241.007812 C 291.113281 240.601562 290.992188 240.207031 290.832031 239.824219 C 290.675781 239.4375 290.480469 239.074219 290.25 238.726562 C 290.015625 238.382812 289.753906 238.0625 289.460938 237.769531 C 289.167969 237.476562 288.847656 237.214844 288.503906 236.984375 C 288.15625 236.75 287.792969 236.558594 287.40625 236.398438 C 287.023438 236.238281 286.628906 236.117188 286.21875 236.039062 C 285.8125 235.957031 285.402344 235.917969 284.984375 235.917969 L 282.75 235.917969 C 282.335938 235.917969 281.925781 235.957031 281.515625 236.039062 C 281.109375 236.117188 280.714844 236.238281 280.328125 236.398438 C 279.945312 236.558594 279.582031 236.753906 279.234375 236.984375 C 278.890625 237.214844 278.570312 237.476562 278.277344 237.769531 C 277.984375 238.0625 277.71875 238.382812 277.488281 238.726562 C 277.257812 239.074219 277.0625 239.4375 276.90625 239.824219 C 276.746094 240.207031 276.625 240.601562 276.542969 241.007812 C 276.464844 241.417969 276.421875 241.828125 276.421875 242.242188 C 276.421875 242.835938 276.5 243.417969 276.65625 243.988281 C 276.816406 244.558594 277.050781 245.097656 277.359375 245.605469 C 277.667969 246.109375 278.042969 246.566406 278.476562 246.96875 C 278.910156 247.371094 279.394531 247.707031 279.921875 247.976562 L 294.816406 255.417969 C 295.738281 255.902344 296.621094 256.445312 297.464844 257.058594 C 298.304688 257.671875 299.097656 258.339844 299.84375 259.070312 C 300.585938 259.796875 301.273438 260.578125 301.898438 261.410156 C 302.527344 262.238281 303.09375 263.109375 303.59375 264.023438 C 304.089844 264.9375 304.519531 265.882812 304.878906 266.859375 C 305.242188 267.835938 305.527344 268.835938 305.738281 269.855469 C 305.949219 270.871094 306.085938 271.902344 306.148438 272.941406 C 306.207031 273.980469 306.191406 275.019531 306.097656 276.054688 C 306.003906 277.09375 305.835938 278.117188 305.589844 279.128906 C 305.347656 280.140625 305.027344 281.128906 304.636719 282.09375 C 304.246094 283.058594 303.789062 283.988281 303.261719 284.886719 C 302.730469 285.785156 302.140625 286.636719 301.484375 287.445312 C 300.832031 288.257812 300.121094 289.015625 299.355469 289.71875 C 298.589844 290.425781 297.773438 291.070312 296.914062 291.652344 C 296.050781 292.238281 295.152344 292.757812 294.214844 293.207031 C 293.277344 293.660156 292.308594 294.039062 291.316406 294.351562 L 291.316406 295.464844 C 291.316406 295.957031 291.265625 296.4375 291.171875 296.917969 C 291.078125 297.398438 290.933594 297.863281 290.75 298.316406 C 290.5625 298.765625 290.332031 299.195312 290.058594 299.601562 C 289.789062 300.007812 289.480469 300.382812 289.132812 300.730469 C 288.789062 301.074219 288.414062 301.382812 288.003906 301.65625 C 287.597656 301.925781 287.171875 302.15625 286.71875 302.34375 C 286.265625 302.53125 285.800781 302.671875 285.320312 302.765625 C 284.84375 302.863281 284.359375 302.910156 283.867188 302.910156 C 283.378906 302.910156 282.894531 302.863281 282.417969 302.765625 C 281.9375 302.671875 281.472656 302.53125 281.019531 302.34375 C 280.566406 302.15625 280.136719 301.925781 279.730469 301.65625 C 279.324219 301.382812 278.949219 301.074219 278.601562 300.730469 C 278.257812 300.382812 277.949219 300.007812 277.675781 299.601562 C 277.40625 299.195312 277.175781 298.765625 276.988281 298.316406 C 276.800781 297.863281 276.660156 297.398438 276.566406 296.917969 C 276.46875 296.4375 276.421875 295.957031 276.421875 295.464844 L 276.421875 294.351562 C 275.355469 294.019531 274.320312 293.605469 273.316406 293.113281 C 272.316406 292.617188 271.359375 292.046875 270.445312 291.402344 C 269.535156 290.753906 268.679688 290.039062 267.878906 289.257812 C 267.082031 288.476562 266.347656 287.636719 265.683594 286.738281 C 265.019531 285.839844 264.429688 284.894531 263.914062 283.90625 C 263.398438 282.914062 262.964844 281.886719 262.609375 280.828125 C 262.257812 279.765625 261.992188 278.683594 261.808594 277.582031 C 261.628906 276.480469 261.535156 275.371094 261.53125 274.25 L 261.53125 273.136719 C 261.53125 272.644531 261.578125 272.164062 261.671875 271.683594 C 261.769531 271.203125 261.910156 270.738281 262.097656 270.285156 C 262.285156 269.835938 262.511719 269.40625 262.785156 269 C 263.054688 268.59375 263.367188 268.21875 263.710938 267.871094 C 264.058594 267.527344 264.433594 267.21875 264.839844 266.945312 C 265.246094 266.675781 265.675781 266.445312 266.125 266.257812 C 266.578125 266.070312 267.042969 265.929688 267.523438 265.835938 C 268.003906 265.738281 268.488281 265.691406 268.976562 265.691406 C 269.464844 265.691406 269.949219 265.738281 270.429688 265.835938 C 270.910156 265.929688 271.375 266.070312 271.824219 266.257812 C 272.277344 266.445312 272.707031 266.675781 273.113281 266.945312 C 273.519531 267.21875 273.894531 267.527344 274.242188 267.871094 C 274.585938 268.21875 274.894531 268.59375 275.167969 269 C 275.4375 269.40625 275.667969 269.835938 275.855469 270.285156 C 276.042969 270.738281 276.183594 271.203125 276.28125 271.683594 C 276.375 272.164062 276.421875 272.644531 276.421875 273.136719 L 276.421875 274.25 C 276.421875 274.667969 276.464844 275.078125 276.542969 275.484375 C 276.625 275.894531 276.746094 276.289062 276.902344 276.671875 C 277.0625 277.058594 277.257812 277.421875 277.488281 277.765625 C 277.71875 278.113281 277.984375 278.433594 278.277344 278.726562 C 278.570312 279.019531 278.890625 279.28125 279.234375 279.511719 C 279.582031 279.742188 279.945312 279.9375 280.328125 280.097656 C 280.714844 280.257812 281.109375 280.375 281.515625 280.457031 C 281.925781 280.539062 282.335938 280.578125 282.75 280.578125 L 284.984375 280.578125 C 285.402344 280.578125 285.8125 280.539062 286.21875 280.457031 C 286.628906 280.375 287.023438 280.257812 287.40625 280.097656 C 287.792969 279.9375 288.15625 279.742188 288.503906 279.511719 C 288.847656 279.28125 289.167969 279.019531 289.460938 278.726562 C 289.753906 278.433594 290.015625 278.113281 290.25 277.765625 C 290.480469 277.421875 290.675781 277.058594 290.832031 276.671875 C 290.992188 276.289062 291.113281 275.894531 291.195312 275.484375 C 291.273438 275.078125 291.316406 274.667969 291.316406 274.25 C 291.316406 273.660156 291.238281 273.078125 291.078125 272.507812 C 290.921875 271.933594 290.6875 271.394531 290.378906 270.890625 C 290.066406 270.382812 289.695312 269.929688 289.261719 269.527344 C 288.824219 269.125 288.34375 268.789062 287.816406 268.519531 L 272.921875 261.078125 C 272 260.59375 271.117188 260.046875 270.273438 259.4375 C 269.429688 258.824219 268.636719 258.15625 267.894531 257.425781 C 267.152344 256.695312 266.464844 255.917969 265.835938 255.085938 C 265.207031 254.257812 264.644531 253.386719 264.144531 252.472656 C 263.644531 251.558594 263.214844 250.613281 262.855469 249.636719 C 262.496094 248.660156 262.210938 247.660156 262 246.640625 C 261.785156 245.621094 261.648438 244.59375 261.589844 243.554688 C 261.53125 242.515625 261.546875 241.476562 261.640625 240.441406 C 261.734375 239.402344 261.902344 238.378906 262.144531 237.367188 C 262.390625 236.355469 262.707031 235.367188 263.097656 234.402344 C 263.488281 233.4375 263.949219 232.503906 264.476562 231.609375 C 265.003906 230.710938 265.597656 229.859375 266.25 229.046875 C 266.90625 228.238281 267.617188 227.480469 268.382812 226.777344 C 269.148438 226.070312 269.960938 225.425781 270.824219 224.839844 C 271.6875 224.257812 272.585938 223.738281 273.523438 223.285156 C 274.460938 222.835938 275.429688 222.453125 276.421875 222.144531 L 276.421875 221.027344 C 276.421875 220.539062 276.46875 220.054688 276.566406 219.578125 C 276.660156 219.097656 276.800781 218.632812 276.988281 218.179688 C 277.175781 217.730469 277.40625 217.300781 277.675781 216.894531 C 277.949219 216.488281 278.257812 216.109375 278.601562 215.765625 C 278.949219 215.417969 279.324219 215.109375 279.730469 214.839844 C 280.136719 214.566406 280.566406 214.339844 281.019531 214.152344 C 281.472656 213.964844 281.9375 213.824219 282.417969 213.726562 C 282.894531 213.632812 283.378906 213.585938 283.867188 213.585938 C 284.359375 213.585938 284.84375 213.632812 285.320312 213.726562 C 285.800781 213.824219 286.265625 213.964844 286.71875 214.152344 C 287.171875 214.339844 287.597656 214.566406 288.003906 214.839844 C 288.414062 215.109375 288.789062 215.417969 289.132812 215.765625 C 289.480469 216.109375 289.789062 216.488281 290.058594 216.894531 C 290.332031 217.300781 290.5625 217.730469 290.75 218.179688 C 290.933594 218.632812 291.078125 219.097656 291.171875 219.578125 C 291.265625 220.054688 291.316406 220.539062 291.316406 221.027344 L 291.316406 222.144531 C 292.382812 222.476562 293.417969 222.886719 294.421875 223.382812 C 295.421875 223.878906 296.378906 224.449219 297.292969 225.09375 C 298.203125 225.742188 299.058594 226.453125 299.859375 227.238281 C 300.65625 228.019531 301.386719 228.859375 302.054688 229.757812 C 302.71875 230.65625 303.308594 231.597656 303.824219 232.589844 C 304.339844 233.582031 304.773438 234.609375 305.128906 235.667969 C 305.480469 236.730469 305.746094 237.8125 305.929688 238.914062 C 306.109375 240.015625 306.203125 241.125 306.207031 242.242188 Z M 306.207031 243.359375 " fill-opacity="1" fill-rule="nonzero"/></g><g clip-path="url(#id5)"><path fill="#ffffff" d="M 350.886719 34.933594 L 67.925781 34.933594 C 67.4375 34.933594 66.953125 34.984375 66.476562 35.078125 C 65.996094 35.171875 65.53125 35.316406 65.078125 35.5 C 64.625 35.6875 64.195312 35.917969 63.789062 36.191406 C 63.382812 36.460938 63.007812 36.769531 62.664062 37.117188 C 62.316406 37.460938 62.007812 37.835938 61.734375 38.242188 C 61.464844 38.648438 61.234375 39.078125 61.046875 39.53125 C 60.859375 39.980469 60.71875 40.449219 60.625 40.925781 C 60.527344 41.40625 60.480469 41.890625 60.480469 42.378906 L 60.480469 49.824219 L 321.101562 49.824219 C 321.832031 49.824219 322.5625 49.859375 323.289062 49.929688 C 324.019531 50.003906 324.742188 50.109375 325.457031 50.25 C 326.175781 50.394531 326.882812 50.570312 327.585938 50.785156 C 328.285156 50.996094 328.972656 51.242188 329.648438 51.523438 C 330.324219 51.800781 330.984375 52.113281 331.628906 52.460938 C 332.277344 52.804688 332.902344 53.179688 333.511719 53.585938 C 334.117188 53.992188 334.707031 54.425781 335.273438 54.890625 C 335.835938 55.355469 336.378906 55.847656 336.894531 56.363281 C 337.414062 56.878906 337.902344 57.421875 338.367188 57.988281 C 338.832031 58.550781 339.265625 59.140625 339.675781 59.746094 C 340.082031 60.355469 340.457031 60.980469 340.800781 61.628906 C 341.144531 62.273438 341.457031 62.933594 341.738281 63.609375 C 342.019531 64.285156 342.265625 64.972656 342.476562 65.671875 C 342.6875 66.371094 342.867188 67.078125 343.007812 67.796875 C 343.152344 68.515625 343.257812 69.238281 343.332031 69.964844 C 343.402344 70.691406 343.4375 71.421875 343.4375 72.152344 L 343.4375 198.699219 L 350.886719 198.699219 C 351.375 198.699219 351.859375 198.648438 352.335938 198.554688 C 352.816406 198.460938 353.28125 198.316406 353.734375 198.132812 C 354.1875 197.945312 354.617188 197.714844 355.023438 197.441406 C 355.429688 197.171875 355.804688 196.863281 356.148438 196.515625 C 356.496094 196.171875 356.804688 195.796875 357.078125 195.390625 C 357.347656 194.984375 357.578125 194.554688 357.765625 194.101562 C 357.953125 193.652344 358.09375 193.183594 358.1875 192.707031 C 358.285156 192.226562 358.332031 191.742188 358.332031 191.253906 L 358.332031 42.378906 C 358.332031 41.890625 358.285156 41.40625 358.1875 40.925781 C 358.09375 40.449219 357.953125 39.980469 357.765625 39.53125 C 357.578125 39.078125 357.347656 38.648438 357.078125 38.242188 C 356.804688 37.835938 356.496094 37.460938 356.148438 37.117188 C 355.804688 36.769531 355.429688 36.460938 355.023438 36.191406 C 354.617188 35.917969 354.1875 35.6875 353.734375 35.5 C 353.28125 35.316406 352.816406 35.171875 352.335938 35.078125 C 351.859375 34.984375 351.375 34.933594 350.886719 34.933594 Z M 350.886719 34.933594 " fill-opacity="1" fill-rule="nonzero"/></g><path fill="#ffffff" d="M 277.6875 101.929688 L 81.554688 101.929688 C 81 103.5 80.277344 104.992188 79.386719 106.402344 C 78.5 107.8125 77.464844 109.105469 76.285156 110.285156 C 75.105469 111.464844 73.8125 112.496094 72.402344 113.386719 C 70.992188 114.273438 69.5 114.996094 67.925781 115.550781 L 67.925781 177.632812 C 69.5 178.1875 70.992188 178.910156 72.402344 179.796875 C 73.8125 180.6875 75.105469 181.71875 76.285156 182.898438 C 77.464844 184.078125 78.5 185.371094 79.386719 186.78125 C 80.277344 188.191406 81 189.683594 81.554688 191.253906 L 224.894531 191.253906 C 228.921875 187.675781 233.242188 184.496094 237.851562 181.707031 C 242.460938 178.917969 247.285156 176.570312 252.324219 174.660156 C 257.363281 172.753906 262.535156 171.316406 267.835938 170.351562 C 273.136719 169.386719 278.480469 168.910156 283.867188 168.921875 C 286.402344 168.921875 288.859375 168.921875 291.316406 168.921875 L 291.316406 115.550781 C 289.742188 114.996094 288.25 114.273438 286.839844 113.386719 C 285.429688 112.496094 284.136719 111.464844 282.957031 110.285156 C 281.777344 109.105469 280.742188 107.8125 279.855469 106.402344 C 278.964844 104.992188 278.242188 103.5 277.6875 101.929688 Z M 179.621094 183.808594 C 178.402344 183.808594 177.183594 183.75 175.972656 183.632812 C 174.757812 183.511719 173.554688 183.332031 172.359375 183.09375 C 171.160156 182.855469 169.980469 182.5625 168.8125 182.207031 C 167.648438 181.855469 166.5 181.445312 165.375 180.976562 C 164.246094 180.511719 163.144531 179.988281 162.070312 179.414062 C 160.996094 178.839844 159.949219 178.214844 158.9375 177.539062 C 157.921875 176.859375 156.945312 176.136719 156.003906 175.363281 C 155.058594 174.589844 154.15625 173.769531 153.292969 172.910156 C 152.433594 172.046875 151.613281 171.144531 150.839844 170.203125 C 150.066406 169.261719 149.34375 168.28125 148.664062 167.269531 C 147.988281 166.253906 147.359375 165.210938 146.785156 164.136719 C 146.210938 163.0625 145.691406 161.960938 145.222656 160.835938 C 144.757812 159.707031 144.347656 158.5625 143.992188 157.394531 C 143.640625 156.230469 143.34375 155.046875 143.105469 153.851562 C 142.867188 152.65625 142.6875 151.453125 142.570312 150.238281 C 142.449219 149.027344 142.390625 147.808594 142.390625 146.589844 C 142.390625 145.371094 142.449219 144.15625 142.570312 142.945312 C 142.6875 141.730469 142.867188 140.527344 143.105469 139.332031 C 143.34375 138.136719 143.640625 136.953125 143.992188 135.789062 C 144.347656 134.621094 144.757812 133.476562 145.222656 132.347656 C 145.691406 131.222656 146.210938 130.121094 146.785156 129.046875 C 147.359375 127.972656 147.988281 126.925781 148.664062 125.914062 C 149.34375 124.898438 150.066406 123.921875 150.839844 122.980469 C 151.613281 122.039062 152.433594 121.136719 153.292969 120.273438 C 154.15625 119.410156 155.058594 118.59375 156.003906 117.820312 C 156.945312 117.046875 157.921875 116.324219 158.9375 115.644531 C 159.949219 114.96875 160.996094 114.34375 162.070312 113.765625 C 163.144531 113.191406 164.246094 112.671875 165.375 112.207031 C 166.5 111.738281 167.648438 111.328125 168.8125 110.976562 C 169.980469 110.621094 171.160156 110.324219 172.359375 110.085938 C 173.554688 109.851562 174.757812 109.671875 175.972656 109.550781 C 177.183594 109.433594 178.402344 109.371094 179.621094 109.371094 C 180.839844 109.371094 182.058594 109.433594 183.269531 109.550781 C 184.484375 109.671875 185.6875 109.851562 186.882812 110.085938 C 188.082031 110.324219 189.261719 110.621094 190.429688 110.976562 C 191.597656 111.328125 192.742188 111.738281 193.867188 112.207031 C 194.996094 112.671875 196.097656 113.191406 197.171875 113.765625 C 198.246094 114.34375 199.292969 114.96875 200.304688 115.644531 C 201.320312 116.324219 202.296875 117.046875 203.242188 117.820312 C 204.183594 118.59375 205.085938 119.410156 205.949219 120.273438 C 206.808594 121.136719 207.628906 122.039062 208.402344 122.980469 C 209.175781 123.921875 209.902344 124.898438 210.578125 125.914062 C 211.253906 126.925781 211.882812 127.972656 212.457031 129.046875 C 213.03125 130.121094 213.550781 131.222656 214.019531 132.347656 C 214.484375 133.476562 214.894531 134.621094 215.25 135.789062 C 215.601562 136.953125 215.898438 138.136719 216.136719 139.332031 C 216.375 140.527344 216.554688 141.730469 216.671875 142.945312 C 216.792969 144.15625 216.851562 145.371094 216.851562 146.589844 C 216.851562 147.808594 216.792969 149.027344 216.671875 150.238281 C 216.554688 151.453125 216.375 152.65625 216.136719 153.851562 C 215.898438 155.046875 215.601562 156.230469 215.25 157.394531 C 214.894531 158.5625 214.484375 159.707031 214.019531 160.835938 C 213.550781 161.960938 213.03125 163.0625 212.457031 164.136719 C 211.882812 165.210938 211.253906 166.253906 210.578125 167.269531 C 209.902344 168.28125 209.175781 169.261719 208.402344 170.203125 C 207.628906 171.144531 206.808594 172.046875 205.949219 172.910156 C 205.085938 173.769531 204.183594 174.589844 203.242188 175.363281 C 202.296875 176.136719 201.320312 176.859375 200.304688 177.539062 C 199.292969 178.214844 198.246094 178.839844 197.171875 179.414062 C 196.097656 179.988281 194.996094 180.511719 193.867188 180.976562 C 192.742188 181.445312 191.597656 181.855469 190.429688 182.207031 C 189.261719 182.5625 188.082031 182.855469 186.882812 183.09375 C 185.6875 183.332031 184.484375 183.511719 183.269531 183.632812 C 182.058594 183.75 180.839844 183.808594 179.621094 183.808594 Z M 179.621094 183.808594 " fill-opacity="1" fill-rule="nonzero"/><path fill="#ffffff" d="M 201.960938 146.589844 C 201.960938 147.324219 201.925781 148.050781 201.851562 148.78125 C 201.78125 149.507812 201.671875 150.230469 201.53125 150.949219 C 201.386719 151.664062 201.210938 152.375 201 153.074219 C 200.785156 153.773438 200.539062 154.460938 200.257812 155.136719 C 199.980469 155.8125 199.667969 156.472656 199.320312 157.117188 C 198.976562 157.761719 198.601562 158.390625 198.195312 158.996094 C 197.789062 159.605469 197.351562 160.191406 196.890625 160.757812 C 196.425781 161.324219 195.933594 161.863281 195.417969 162.382812 C 194.898438 162.898438 194.359375 163.390625 193.792969 163.855469 C 193.226562 164.316406 192.640625 164.753906 192.03125 165.160156 C 191.421875 165.566406 190.796875 165.941406 190.152344 166.285156 C 189.507812 166.628906 188.847656 166.941406 188.167969 167.222656 C 187.492188 167.503906 186.804688 167.75 186.105469 167.960938 C 185.40625 168.171875 184.695312 168.351562 183.980469 168.492188 C 183.261719 168.636719 182.539062 168.742188 181.8125 168.816406 C 181.082031 168.886719 180.351562 168.921875 179.621094 168.921875 C 178.890625 168.921875 178.160156 168.886719 177.433594 168.816406 C 176.703125 168.742188 175.980469 168.636719 175.261719 168.492188 C 174.546875 168.351562 173.835938 168.171875 173.136719 167.960938 C 172.4375 167.75 171.75 167.503906 171.074219 167.222656 C 170.398438 166.941406 169.734375 166.628906 169.089844 166.285156 C 168.445312 165.941406 167.820312 165.566406 167.210938 165.160156 C 166.601562 164.753906 166.015625 164.316406 165.449219 163.855469 C 164.882812 163.390625 164.34375 162.898438 163.824219 162.382812 C 163.308594 161.863281 162.816406 161.324219 162.351562 160.757812 C 161.890625 160.191406 161.453125 159.605469 161.046875 158.996094 C 160.640625 158.390625 160.265625 157.761719 159.921875 157.117188 C 159.574219 156.472656 159.261719 155.8125 158.984375 155.136719 C 158.703125 154.460938 158.457031 153.773438 158.246094 153.074219 C 158.03125 152.375 157.855469 151.664062 157.710938 150.949219 C 157.570312 150.230469 157.460938 149.507812 157.390625 148.78125 C 157.320312 148.050781 157.28125 147.324219 157.28125 146.589844 C 157.28125 145.859375 157.320312 145.128906 157.390625 144.402344 C 157.460938 143.675781 157.570312 142.953125 157.710938 142.234375 C 157.855469 141.515625 158.03125 140.808594 158.246094 140.109375 C 158.457031 139.410156 158.703125 138.722656 158.984375 138.046875 C 159.261719 137.371094 159.574219 136.710938 159.921875 136.066406 C 160.265625 135.417969 160.640625 134.792969 161.046875 134.183594 C 161.453125 133.578125 161.890625 132.988281 162.351562 132.425781 C 162.816406 131.859375 163.308594 131.316406 163.824219 130.800781 C 164.34375 130.285156 164.882812 129.792969 165.449219 129.328125 C 166.015625 128.863281 166.601562 128.429688 167.210938 128.023438 C 167.820312 127.617188 168.445312 127.242188 169.089844 126.898438 C 169.734375 126.550781 170.398438 126.238281 171.074219 125.960938 C 171.75 125.679688 172.4375 125.433594 173.136719 125.222656 C 173.835938 125.007812 174.546875 124.832031 175.261719 124.6875 C 175.980469 124.546875 176.703125 124.4375 177.433594 124.367188 C 178.160156 124.296875 178.890625 124.261719 179.621094 124.261719 C 180.351562 124.261719 181.082031 124.296875 181.8125 124.367188 C 182.539062 124.4375 183.261719 124.546875 183.980469 124.6875 C 184.695312 124.832031 185.40625 125.007812 186.105469 125.222656 C 186.804688 125.433594 187.492188 125.679688 188.167969 125.960938 C 188.847656 126.238281 189.507812 126.550781 190.152344 126.898438 C 190.796875 127.242188 191.421875 127.617188 192.03125 128.023438 C 192.640625 128.429688 193.226562 128.863281 193.792969 129.328125 C 194.359375 129.792969 194.898438 130.285156 195.417969 130.800781 C 195.933594 131.316406 196.425781 131.859375 196.890625 132.425781 C 197.351562 132.988281 197.789062 133.578125 198.195312 134.183594 C 198.601562 134.792969 198.976562 135.417969 199.320312 136.066406 C 199.667969 136.710938 199.980469 137.371094 200.257812 138.046875 C 200.539062 138.722656 200.785156 139.410156 201 140.109375 C 201.210938 140.808594 201.386719 141.515625 201.53125 142.234375 C 201.671875 142.953125 201.78125 143.675781 201.851562 144.402344 C 201.925781 145.128906 201.960938 145.859375 201.960938 146.589844 Z M 201.960938 146.589844 " fill-opacity="1" fill-rule="nonzero"/><g clip-path="url(#id6)"><path fill="#ffffff" d="M 38.140625 228.472656 L 199.652344 228.472656 C 202.464844 220.460938 206.359375 213.019531 211.34375 206.140625 L 75.375 206.140625 C 74.886719 206.140625 74.402344 206.09375 73.921875 206 C 73.441406 205.902344 72.976562 205.761719 72.523438 205.574219 C 72.074219 205.386719 71.644531 205.160156 71.238281 204.886719 C 70.832031 204.617188 70.453125 204.308594 70.109375 203.960938 C 69.761719 203.617188 69.453125 203.238281 69.183594 202.832031 C 68.910156 202.425781 68.679688 201.996094 68.496094 201.546875 C 68.308594 201.09375 68.164062 200.628906 68.070312 200.148438 C 67.976562 199.671875 67.925781 199.1875 67.925781 198.699219 C 67.925781 198.207031 67.878906 197.726562 67.785156 197.246094 C 67.6875 196.765625 67.546875 196.300781 67.359375 195.847656 C 67.171875 195.398438 66.945312 194.96875 66.671875 194.5625 C 66.402344 194.15625 66.09375 193.78125 65.746094 193.433594 C 65.402344 193.089844 65.023438 192.78125 64.617188 192.507812 C 64.210938 192.238281 63.78125 192.007812 63.332031 191.820312 C 62.878906 191.632812 62.414062 191.492188 61.933594 191.398438 C 61.453125 191.300781 60.96875 191.253906 60.480469 191.253906 C 59.992188 191.253906 59.507812 191.207031 59.027344 191.109375 C 58.550781 191.015625 58.082031 190.875 57.632812 190.6875 C 57.179688 190.5 56.75 190.269531 56.34375 190 C 55.9375 189.726562 55.5625 189.417969 55.214844 189.074219 C 54.871094 188.726562 54.5625 188.351562 54.289062 187.945312 C 54.019531 187.539062 53.789062 187.109375 53.601562 186.660156 C 53.414062 186.207031 53.273438 185.742188 53.179688 185.261719 C 53.082031 184.78125 53.035156 184.300781 53.035156 183.808594 L 53.035156 109.371094 C 53.035156 108.882812 53.082031 108.398438 53.179688 107.921875 C 53.273438 107.441406 53.414062 106.976562 53.601562 106.523438 C 53.789062 106.074219 54.019531 105.644531 54.289062 105.238281 C 54.5625 104.832031 54.871094 104.453125 55.214844 104.109375 C 55.5625 103.761719 55.9375 103.453125 56.34375 103.183594 C 56.75 102.910156 57.179688 102.683594 57.632812 102.496094 C 58.082031 102.308594 58.550781 102.167969 59.027344 102.070312 C 59.507812 101.976562 59.992188 101.929688 60.480469 101.929688 C 60.96875 101.929688 61.453125 101.882812 61.933594 101.785156 C 62.414062 101.691406 62.878906 101.550781 63.332031 101.363281 C 63.78125 101.175781 64.210938 100.945312 64.617188 100.675781 C 65.023438 100.402344 65.402344 100.09375 65.746094 99.75 C 66.09375 99.402344 66.402344 99.027344 66.671875 98.621094 C 66.945312 98.214844 67.171875 97.785156 67.359375 97.332031 C 67.546875 96.882812 67.6875 96.417969 67.785156 95.9375 C 67.878906 95.457031 67.925781 94.972656 67.925781 94.484375 C 67.925781 93.996094 67.976562 93.511719 68.070312 93.03125 C 68.164062 92.554688 68.308594 92.089844 68.496094 91.636719 C 68.679688 91.183594 68.910156 90.757812 69.183594 90.351562 C 69.453125 89.941406 69.761719 89.566406 70.109375 89.222656 C 70.453125 88.875 70.832031 88.566406 71.238281 88.296875 C 71.644531 88.023438 72.074219 87.796875 72.523438 87.609375 C 72.976562 87.421875 73.441406 87.28125 73.921875 87.183594 C 74.402344 87.089844 74.886719 87.042969 75.375 87.042969 L 283.867188 87.042969 C 284.359375 87.042969 284.84375 87.089844 285.320312 87.183594 C 285.800781 87.28125 286.265625 87.421875 286.71875 87.609375 C 287.171875 87.796875 287.597656 88.023438 288.003906 88.296875 C 288.414062 88.566406 288.789062 88.875 289.132812 89.222656 C 289.480469 89.566406 289.789062 89.941406 290.058594 90.351562 C 290.332031 90.757812 290.5625 91.183594 290.75 91.636719 C 290.933594 92.089844 291.078125 92.554688 291.171875 93.03125 C 291.265625 93.511719 291.316406 93.996094 291.316406 94.484375 C 291.316406 94.972656 291.363281 95.457031 291.457031 95.9375 C 291.554688 96.417969 291.695312 96.882812 291.882812 97.332031 C 292.070312 97.785156 292.296875 98.214844 292.570312 98.621094 C 292.839844 99.027344 293.148438 99.402344 293.496094 99.75 C 293.839844 100.09375 294.21875 100.402344 294.625 100.675781 C 295.03125 100.945312 295.460938 101.175781 295.910156 101.363281 C 296.363281 101.550781 296.828125 101.691406 297.308594 101.785156 C 297.789062 101.882812 298.273438 101.929688 298.761719 101.929688 C 299.25 101.929688 299.734375 101.976562 300.214844 102.070312 C 300.695312 102.167969 301.160156 102.308594 301.609375 102.496094 C 302.0625 102.683594 302.492188 102.910156 302.898438 103.183594 C 303.304688 103.453125 303.679688 103.761719 304.027344 104.109375 C 304.371094 104.453125 304.679688 104.832031 304.953125 105.238281 C 305.222656 105.644531 305.453125 106.074219 305.640625 106.523438 C 305.828125 106.976562 305.96875 107.441406 306.0625 107.921875 C 306.160156 108.398438 306.207031 108.882812 306.207031 109.371094 L 306.207031 171.75 C 314.078125 173.769531 321.523438 176.820312 328.546875 180.90625 L 328.546875 72.152344 C 328.546875 71.664062 328.5 71.179688 328.402344 70.703125 C 328.308594 70.222656 328.167969 69.757812 327.980469 69.304688 C 327.792969 68.855469 327.5625 68.425781 327.292969 68.019531 C 327.019531 67.613281 326.710938 67.234375 326.367188 66.890625 C 326.019531 66.542969 325.644531 66.234375 325.238281 65.964844 C 324.832031 65.691406 324.402344 65.464844 323.949219 65.277344 C 323.496094 65.089844 323.03125 64.949219 322.550781 64.851562 C 322.074219 64.757812 321.589844 64.710938 321.101562 64.710938 L 38.140625 64.710938 C 37.652344 64.710938 37.167969 64.757812 36.691406 64.851562 C 36.210938 64.949219 35.746094 65.089844 35.292969 65.277344 C 34.839844 65.464844 34.414062 65.691406 34.003906 65.964844 C 33.597656 66.234375 33.222656 66.542969 32.878906 66.890625 C 32.53125 67.234375 32.222656 67.613281 31.953125 68.019531 C 31.679688 68.425781 31.449219 68.855469 31.261719 69.304688 C 31.074219 69.757812 30.933594 70.222656 30.839844 70.703125 C 30.742188 71.179688 30.695312 71.664062 30.695312 72.152344 L 30.695312 221.027344 C 30.695312 221.519531 30.742188 222 30.839844 222.480469 C 30.933594 222.960938 31.074219 223.425781 31.261719 223.878906 C 31.449219 224.328125 31.679688 224.757812 31.953125 225.164062 C 32.222656 225.570312 32.53125 225.945312 32.878906 226.292969 C 33.222656 226.636719 33.597656 226.945312 34.003906 227.21875 C 34.414062 227.488281 34.839844 227.71875 35.292969 227.90625 C 35.746094 228.09375 36.210938 228.234375 36.691406 228.328125 C 37.167969 228.425781 37.652344 228.472656 38.140625 228.472656 Z M 38.140625 228.472656 " fill-opacity="1" fill-rule="nonzero"/></g><path fill="#ffffff" d="M 149.835938 295.464844 L 202.628906 295.464844 C 200.445312 290.652344 198.683594 285.691406 197.34375 280.578125 L 149.835938 280.578125 C 149.347656 280.578125 148.863281 280.625 148.382812 280.722656 C 147.902344 280.816406 147.4375 280.957031 146.988281 281.144531 C 146.535156 281.332031 146.105469 281.5625 145.699219 281.832031 C 145.292969 282.105469 144.917969 282.414062 144.570312 282.757812 C 144.226562 283.105469 143.917969 283.480469 143.644531 283.886719 C 143.375 284.292969 143.144531 284.722656 142.957031 285.175781 C 142.769531 285.625 142.628906 286.089844 142.53125 286.570312 C 142.4375 287.050781 142.390625 287.535156 142.390625 288.023438 C 142.390625 288.511719 142.4375 288.996094 142.53125 289.476562 C 142.628906 289.953125 142.769531 290.417969 142.957031 290.871094 C 143.144531 291.324219 143.375 291.75 143.644531 292.15625 C 143.917969 292.566406 144.226562 292.941406 144.570312 293.285156 C 144.917969 293.632812 145.292969 293.941406 145.699219 294.210938 C 146.105469 294.484375 146.535156 294.710938 146.988281 294.898438 C 147.4375 295.085938 147.902344 295.226562 148.382812 295.324219 C 148.863281 295.417969 149.347656 295.464844 149.835938 295.464844 Z M 149.835938 295.464844 " fill-opacity="1" fill-rule="nonzero"/><path fill="#ffffff" d="M 149.835938 250.804688 C 149.347656 250.804688 148.863281 250.851562 148.382812 250.945312 C 147.902344 251.042969 147.4375 251.183594 146.988281 251.371094 C 146.535156 251.558594 146.105469 251.785156 145.699219 252.058594 C 145.292969 252.328125 144.917969 252.636719 144.570312 252.984375 C 144.226562 253.328125 143.917969 253.707031 143.644531 254.113281 C 143.375 254.519531 143.144531 254.949219 142.957031 255.398438 C 142.769531 255.851562 142.628906 256.316406 142.53125 256.796875 C 142.4375 257.273438 142.390625 257.757812 142.390625 258.246094 C 142.390625 258.738281 142.4375 259.21875 142.53125 259.699219 C 142.628906 260.179688 142.769531 260.644531 142.957031 261.097656 C 143.144531 261.546875 143.375 261.976562 143.644531 262.382812 C 143.917969 262.789062 144.226562 263.164062 144.570312 263.511719 C 144.917969 263.855469 145.292969 264.164062 145.699219 264.4375 C 146.105469 264.707031 146.535156 264.9375 146.988281 265.125 C 147.4375 265.3125 147.902344 265.453125 148.382812 265.546875 C 148.863281 265.644531 149.347656 265.691406 149.835938 265.691406 L 194.515625 265.691406 C 194.515625 263.234375 194.515625 260.777344 194.515625 258.246094 C 194.515625 255.71875 194.515625 253.261719 194.515625 250.804688 Z M 149.835938 250.804688 " fill-opacity="1" fill-rule="nonzero"/></svg>