<svg width="582" height="567" viewBox="0 0 582 567" fill="none" xmlns="http://www.w3.org/2000/svg">
<path d="M419.265 289.359C417.373 289.359 415.488 289.406 413.596 289.495C411.711 289.583 409.819 289.719 407.94 289.902C406.06 290.08 404.181 290.304 402.308 290.576C400.44 290.847 398.579 291.16 396.724 291.521C394.869 291.881 393.02 292.283 391.189 292.731C389.352 293.18 387.527 293.671 385.721 294.202C383.908 294.74 382.114 295.318 380.337 295.939C378.555 296.559 376.791 297.22 375.045 297.923C373.293 298.632 371.565 299.376 369.855 300.162C368.146 300.953 366.46 301.78 364.793 302.648C363.12 303.516 361.477 304.426 359.852 305.371C358.233 306.316 356.633 307.302 355.063 308.324C353.492 309.352 351.947 310.409 350.425 311.507C348.903 312.606 347.418 313.74 345.951 314.904C344.49 316.073 343.059 317.278 341.658 318.512C340.258 319.753 338.888 321.022 337.548 322.322C336.214 323.627 334.911 324.962 333.638 326.326C332.371 327.691 331.134 329.084 329.934 330.508C328.733 331.931 327.569 333.384 326.442 334.861C325.32 336.343 324.229 337.849 323.18 339.379C322.125 340.909 321.113 342.468 320.143 344.045C319.173 345.628 318.239 347.228 317.348 348.853C316.457 350.477 315.608 352.119 314.796 353.784C313.989 355.45 313.219 357.133 312.498 358.834C311.776 360.541 311.091 362.254 310.455 363.99C309.818 365.727 309.224 367.475 308.678 369.235C308.127 371.001 307.624 372.773 307.163 374.563C306.708 376.346 306.29 378.142 305.92 379.949C305.55 381.756 305.229 383.57 304.95 385.395C304.677 387.214 304.441 389.045 304.259 390.876C304.071 392.707 303.932 394.543 303.841 396.386C303.75 398.223 303.701 400.066 303.701 401.909C303.701 403.751 303.75 405.588 303.841 407.431C303.932 409.268 304.071 411.105 304.259 412.941C304.441 414.772 304.677 416.597 304.95 418.422C305.229 420.242 305.55 422.061 305.92 423.862C306.29 425.669 306.708 427.471 307.163 429.254C307.624 431.044 308.127 432.816 308.678 434.582C309.224 436.342 309.818 438.09 310.455 439.827C311.091 441.557 311.776 443.276 312.498 444.977C313.219 446.678 313.989 448.361 314.796 450.027C315.608 451.692 316.457 453.34 317.348 454.964C318.239 456.589 319.173 458.189 320.143 459.772C321.113 461.349 322.125 462.902 323.18 464.438C324.229 465.968 325.32 467.474 326.442 468.95C327.569 470.433 328.733 471.886 329.934 473.309C331.134 474.733 332.371 476.126 333.638 477.491C334.911 478.855 336.214 480.19 337.548 481.489C338.888 482.795 340.258 484.064 341.658 485.299C343.059 486.539 344.49 487.738 345.951 488.908C347.418 490.077 348.903 491.211 350.425 492.31C351.947 493.408 353.492 494.465 355.063 495.487C356.633 496.515 358.233 497.495 359.852 498.446C361.477 499.391 363.12 500.301 364.793 501.169C366.46 502.037 368.146 502.864 369.855 503.65C371.565 504.441 373.293 505.185 375.045 505.888C376.791 506.597 378.555 507.258 380.337 507.878C382.114 508.499 383.908 509.077 385.721 509.609C387.527 510.146 389.352 510.637 391.189 511.086C393.02 511.534 394.869 511.936 396.724 512.296C398.579 512.657 400.44 512.97 402.308 513.241C404.181 513.507 406.06 513.737 407.94 513.915C409.819 514.098 411.711 514.234 413.596 514.322C415.488 514.411 417.373 514.458 419.265 514.458C421.156 514.458 423.048 514.411 424.939 514.322C426.824 514.234 428.71 514.098 430.595 513.915C432.475 513.737 434.354 513.507 436.221 513.241C438.095 512.97 439.956 512.657 441.811 512.296C443.666 511.936 445.515 511.534 447.346 511.086C449.183 510.637 451.002 510.146 452.814 509.609C454.627 509.077 456.422 508.499 458.198 507.878C459.98 507.258 461.744 506.597 463.49 505.888C465.243 505.185 466.97 504.441 468.68 503.65C470.39 502.864 472.075 502.037 473.742 501.169C475.415 500.301 477.058 499.391 478.677 498.446C480.302 497.495 481.902 496.515 483.472 495.487C485.043 494.465 486.589 493.408 488.11 492.31C489.626 491.211 491.117 490.077 492.584 488.908C494.045 487.738 495.476 486.539 496.877 485.299C498.277 484.064 499.647 482.795 500.987 481.489C502.321 480.19 503.624 478.855 504.897 477.491C506.164 476.126 507.401 474.733 508.602 473.309C509.802 471.886 510.966 470.433 512.094 468.956C513.215 467.474 514.306 465.968 515.355 464.438C516.41 462.902 517.416 461.349 518.392 459.772C519.362 458.189 520.296 456.589 521.187 454.964C522.078 453.34 522.927 451.692 523.74 450.027C524.546 448.361 525.31 446.678 526.037 444.977C526.759 443.276 527.438 441.557 528.08 439.827C528.717 438.09 529.305 436.342 529.857 434.582C530.408 432.816 530.912 431.044 531.372 429.254C531.827 427.471 532.245 425.669 532.615 423.862C532.979 422.061 533.306 420.242 533.585 418.422C533.858 416.597 534.088 414.772 534.276 412.941C534.464 411.105 534.604 409.268 534.695 407.431C534.785 405.588 534.834 403.751 534.834 401.909C534.834 400.066 534.785 398.223 534.695 396.386C534.604 394.543 534.464 392.707 534.276 390.876C534.088 389.045 533.858 387.214 533.585 385.395C533.306 383.57 532.979 381.756 532.615 379.949C532.245 378.142 531.827 376.346 531.372 374.563C530.912 372.773 530.408 371.001 529.857 369.235C529.305 367.475 528.717 365.727 528.08 363.99C527.438 362.254 526.759 360.541 526.037 358.834C525.31 357.133 524.546 355.45 523.74 353.784C522.927 352.119 522.078 350.477 521.187 348.853C520.296 347.228 519.362 345.628 518.392 344.045C517.416 342.468 516.41 340.909 515.355 339.379C514.306 337.849 513.215 336.343 512.094 334.861C510.966 333.384 509.802 331.931 508.602 330.508C507.401 329.084 506.164 327.691 504.897 326.326C503.624 324.962 502.321 323.627 500.987 322.322C499.647 321.022 498.277 319.753 496.877 318.512C495.476 317.278 494.045 316.073 492.584 314.904C491.117 313.74 489.626 312.606 488.11 311.507C486.589 310.409 485.043 309.352 483.472 308.324C481.902 307.302 480.302 306.316 478.677 305.371C477.058 304.426 475.415 303.516 473.742 302.648C472.075 301.78 470.39 300.953 468.68 300.162C466.97 299.376 465.243 298.632 463.49 297.923C461.744 297.22 459.98 296.559 458.198 295.939C456.422 295.318 454.627 294.74 452.814 294.202C451.002 293.671 449.183 293.18 447.346 292.731C445.515 292.283 443.666 291.881 441.811 291.521C439.956 291.16 438.095 290.847 436.221 290.576C434.354 290.304 432.475 290.08 430.595 289.902C428.71 289.719 426.824 289.583 424.939 289.495C423.048 289.406 421.156 289.359 419.265 289.359ZM453.936 379.4C453.936 380.138 453.863 380.87 453.718 381.591C453.566 382.317 453.348 383.02 453.057 383.705C452.766 384.385 452.408 385.034 451.99 385.649C451.566 386.263 451.087 386.836 450.553 387.356C450.014 387.881 449.432 388.348 448.801 388.755C448.171 389.169 447.504 389.511 446.8 389.795C446.103 390.078 445.382 390.291 444.636 390.439C443.89 390.58 443.139 390.651 442.381 390.651C441.623 390.651 440.871 390.58 440.126 390.439C439.38 390.291 438.658 390.078 437.955 389.795C437.258 389.511 436.591 389.169 435.961 388.755C435.33 388.348 434.748 387.881 434.209 387.356C433.675 386.836 433.19 386.263 432.772 385.649C432.347 385.034 431.996 384.385 431.705 383.705C431.414 383.02 431.196 382.317 431.044 381.591C430.898 380.87 430.826 380.138 430.826 379.4V377.711C430.826 377.079 430.759 376.458 430.638 375.844C430.51 375.224 430.323 374.628 430.074 374.049C429.831 373.47 429.528 372.915 429.171 372.395C428.813 371.869 428.401 371.391 427.946 370.942C427.491 370.499 426.994 370.103 426.461 369.755C425.921 369.406 425.357 369.111 424.757 368.869C424.163 368.633 423.551 368.45 422.92 368.326C422.284 368.202 421.647 368.142 420.998 368.142H417.537C416.888 368.142 416.251 368.202 415.615 368.326C414.984 368.45 414.372 368.633 413.772 368.869C413.178 369.111 412.614 369.406 412.074 369.755C411.541 370.103 411.044 370.499 410.589 370.942C410.134 371.391 409.722 371.869 409.364 372.395C409.007 372.915 408.704 373.47 408.461 374.049C408.213 374.628 408.025 375.23 407.897 375.844C407.776 376.458 407.709 377.079 407.709 377.711C407.709 378.608 407.831 379.488 408.073 380.351C408.322 381.213 408.685 382.028 409.164 382.79C409.643 383.558 410.225 384.243 410.898 384.851C411.571 385.46 412.323 385.968 413.141 386.375L436.258 397.632C437.688 398.359 439.059 399.186 440.368 400.113C441.672 401.034 442.902 402.05 444.06 403.149C445.212 404.253 446.279 405.429 447.255 406.687C448.225 407.945 449.104 409.262 449.88 410.644C450.65 412.02 451.317 413.449 451.881 414.926C452.439 416.408 452.881 417.914 453.208 419.456C453.542 420.998 453.748 422.551 453.845 424.122C453.936 425.693 453.912 427.264 453.766 428.835C453.621 430.4 453.36 431.948 452.978 433.477C452.602 435.007 452.105 436.501 451.499 437.96C450.893 439.419 450.183 440.831 449.365 442.183C448.54 443.542 447.625 444.835 446.612 446.058C445.594 447.28 444.491 448.426 443.302 449.495C442.114 450.558 440.847 451.533 439.513 452.419C438.173 453.299 436.779 454.084 435.324 454.769C433.869 455.449 432.366 456.027 430.826 456.494V458.183C430.826 458.922 430.747 459.654 430.601 460.38C430.456 461.101 430.232 461.804 429.947 462.489C429.656 463.174 429.298 463.824 428.874 464.438C428.455 465.052 427.976 465.619 427.437 466.139C426.903 466.665 426.321 467.131 425.685 467.539C425.054 467.952 424.393 468.301 423.69 468.578C422.987 468.862 422.265 469.074 421.52 469.222C420.78 469.364 420.028 469.435 419.265 469.435C418.507 469.435 417.755 469.364 417.015 469.222C416.27 469.074 415.548 468.862 414.845 468.578C414.142 468.301 413.475 467.952 412.844 467.539C412.214 467.131 411.632 466.665 411.098 466.139C410.559 465.619 410.08 465.052 409.655 464.438C409.237 463.824 408.879 463.174 408.588 462.489C408.297 461.804 408.079 461.101 407.934 460.38C407.782 459.654 407.709 458.922 407.709 458.183V456.494C406.054 455.992 404.448 455.372 402.89 454.622C401.338 453.878 399.852 453.015 398.434 452.035C397.021 451.06 395.694 449.979 394.451 448.798C393.214 447.611 392.074 446.341 391.044 444.989C390.013 443.63 389.098 442.201 388.297 440.701C387.497 439.201 386.824 437.647 386.272 436.047C385.727 434.446 385.315 432.81 385.03 431.139C384.751 429.473 384.605 427.796 384.599 426.106V424.417C384.599 423.679 384.672 422.947 384.817 422.22C384.969 421.5 385.187 420.791 385.478 420.112C385.769 419.426 386.121 418.777 386.545 418.163C386.97 417.548 387.449 416.981 387.982 416.462C388.522 415.936 389.104 415.469 389.734 415.062C390.365 414.648 391.031 414.3 391.729 414.022C392.432 413.739 393.153 413.52 393.899 413.378C394.645 413.237 395.396 413.16 396.154 413.16C396.912 413.16 397.664 413.237 398.41 413.378C399.155 413.52 399.877 413.739 400.574 414.022C401.277 414.3 401.944 414.648 402.574 415.062C403.205 415.469 403.787 415.936 404.327 416.462C404.86 416.981 405.339 417.548 405.763 418.163C406.182 418.777 406.539 419.426 406.83 420.112C407.121 420.791 407.34 421.5 407.491 422.22C407.637 422.947 407.709 423.679 407.709 424.417V426.106C407.709 426.732 407.776 427.359 407.897 427.973C408.025 428.587 408.213 429.184 408.461 429.768C408.704 430.347 409.007 430.896 409.364 431.422C409.722 431.942 410.134 432.426 410.589 432.869C411.044 433.312 411.541 433.714 412.074 434.062C412.614 434.411 413.178 434.706 413.772 434.942C414.372 435.184 414.984 435.367 415.615 435.491C416.251 435.61 416.888 435.675 417.537 435.675H420.998C421.647 435.675 422.284 435.61 422.92 435.491C423.551 435.367 424.163 435.184 424.757 434.942C425.357 434.706 425.921 434.411 426.461 434.062C426.994 433.714 427.491 433.312 427.946 432.869C428.401 432.426 428.813 431.942 429.171 431.422C429.528 430.896 429.831 430.347 430.074 429.768C430.323 429.184 430.51 428.587 430.638 427.973C430.759 427.359 430.826 426.732 430.826 426.106C430.826 425.209 430.704 424.329 430.456 423.466C430.213 422.604 429.85 421.789 429.371 421.021C428.892 420.259 428.31 419.574 427.637 418.96C426.958 418.352 426.212 417.844 425.394 417.442L402.277 406.185C400.847 405.458 399.477 404.631 398.167 403.704C396.858 402.783 395.627 401.767 394.475 400.662C393.323 399.564 392.256 398.382 391.28 397.13C390.31 395.872 389.431 394.555 388.655 393.173C387.879 391.791 387.218 390.362 386.654 388.885C386.097 387.409 385.654 385.903 385.327 384.361C384.993 382.82 384.787 381.26 384.69 379.689C384.599 378.118 384.623 376.553 384.769 374.982C384.914 373.417 385.175 371.863 385.551 370.334C385.933 368.804 386.424 367.31 387.03 365.851C387.636 364.392 388.352 362.986 389.17 361.628C389.995 360.275 390.91 358.982 391.923 357.759C392.941 356.531 394.045 355.391 395.233 354.322C396.421 353.259 397.682 352.284 399.022 351.398C400.362 350.512 401.756 349.733 403.211 349.048C404.666 348.362 406.17 347.79 407.709 347.323V345.634C407.709 344.895 407.782 344.163 407.934 343.437C408.079 342.71 408.297 342.007 408.588 341.328C408.879 340.643 409.237 339.993 409.655 339.379C410.08 338.765 410.559 338.198 411.098 337.672C411.632 337.152 412.214 336.686 412.844 336.272C413.475 335.865 414.142 335.516 414.845 335.233C415.548 334.949 416.27 334.737 417.015 334.595C417.755 334.447 418.507 334.376 419.265 334.376C420.028 334.376 420.78 334.447 421.52 334.595C422.265 334.737 422.987 334.949 423.69 335.233C424.393 335.516 425.054 335.865 425.691 336.272C426.321 336.686 426.903 337.152 427.437 337.672C427.976 338.198 428.455 338.765 428.874 339.379C429.298 339.993 429.656 340.643 429.947 341.328C430.232 342.007 430.456 342.71 430.601 343.437C430.747 344.163 430.826 344.895 430.826 345.634V347.323C432.481 347.819 434.087 348.445 435.645 349.195C437.197 349.939 438.683 350.802 440.101 351.782C441.514 352.757 442.842 353.838 444.084 355.019C445.321 356.2 446.455 357.47 447.492 358.828C448.522 360.187 449.438 361.616 450.238 363.116C451.038 364.616 451.711 366.164 452.263 367.77C452.808 369.371 453.221 371.007 453.506 372.673C453.784 374.344 453.93 376.021 453.936 377.711V379.4Z" fill="#0A91E4"/>
<path d="M523.279 64.26H84.1235C83.3657 64.26 82.6139 64.3309 81.8743 64.4726C81.1286 64.6203 80.4072 64.8329 79.7039 65.1164C79.0007 65.3999 78.3399 65.7425 77.7033 66.1559C77.0728 66.5694 76.4908 67.0359 75.9573 67.5557C75.4177 68.0754 74.9388 68.6484 74.5205 69.2626C74.0961 69.8769 73.7384 70.5265 73.4474 71.2058C73.1564 71.8909 72.9382 72.5937 72.7927 73.3202C72.6411 74.0408 72.5684 74.7731 72.5684 75.5114V86.7687H477.052C478.186 86.7687 479.32 86.8219 480.447 86.9341C481.581 87.0404 482.703 87.1999 483.812 87.4184C484.927 87.631 486.025 87.9027 487.116 88.2217C488.201 88.5465 489.268 88.9186 490.317 89.3379C491.366 89.7632 492.39 90.2357 493.391 90.7554C494.397 91.2752 495.367 91.8422 496.313 92.4624C497.259 93.0766 498.168 93.7322 499.047 94.435C499.92 95.132 500.763 95.8762 501.563 96.6558C502.369 97.4413 503.127 98.2564 503.849 99.1128C504.57 99.9692 505.249 100.855 505.879 101.777C506.51 102.692 507.092 103.643 507.625 104.617C508.159 105.592 508.644 106.59 509.081 107.612C509.517 108.634 509.899 109.673 510.226 110.73C510.56 111.794 510.833 112.863 511.051 113.949C511.275 115.03 511.439 116.123 511.554 117.227C511.663 118.326 511.718 119.43 511.718 120.535V311.868H523.279C524.037 311.868 524.788 311.797 525.528 311.649C526.274 311.507 526.995 311.295 527.698 311.011C528.402 310.728 529.069 310.379 529.699 309.972C530.33 309.558 530.912 309.092 531.451 308.572C531.985 308.046 532.464 307.479 532.888 306.865C533.306 306.251 533.664 305.601 533.955 304.922C534.246 304.237 534.464 303.534 534.61 302.808C534.761 302.081 534.834 301.355 534.834 300.61V75.5114C534.834 74.7731 534.761 74.0408 534.61 73.3202C534.464 72.5937 534.246 71.8909 533.955 71.2058C533.664 70.5265 533.306 69.8769 532.888 69.2626C532.464 68.6484 531.985 68.0754 531.451 67.5557C530.912 67.0359 530.33 66.5694 529.699 66.1559C529.069 65.7425 528.402 65.3999 527.698 65.1164C526.995 64.8329 526.274 64.6203 525.528 64.4726C524.788 64.3309 524.037 64.26 523.279 64.26Z" fill="#0A91E4"/>
<path d="M409.673 165.552H105.275C104.414 167.932 103.293 170.183 101.91 172.315C100.534 174.447 98.9277 176.408 97.0968 178.186C95.2659 179.969 93.2592 181.535 91.0707 182.875C88.8821 184.222 86.5662 185.309 84.123 186.153V280.015C86.5662 280.854 88.8821 281.947 91.0707 283.293C93.2592 284.634 95.2659 286.199 97.0968 287.977C98.9277 289.761 100.534 291.722 101.91 293.848C103.293 295.98 104.414 298.236 105.275 300.61H327.739C333.989 295.206 340.694 290.393 347.848 286.176C355.002 281.958 362.489 278.409 370.309 275.527C378.13 272.638 386.157 270.471 394.384 269.012C402.61 267.553 410.904 266.833 419.264 266.85C423.199 266.85 427.012 266.85 430.825 266.85V186.153C428.382 185.309 426.066 184.222 423.878 182.875C421.689 181.535 419.682 179.969 417.852 178.186C416.021 176.408 414.414 174.447 413.038 172.315C411.656 170.183 410.534 167.932 409.673 165.552ZM257.474 289.359C255.583 289.359 253.697 289.27 251.812 289.087C249.926 288.904 248.059 288.638 246.204 288.278C244.343 287.918 242.512 287.469 240.699 286.937C238.893 286.4 237.11 285.78 235.364 285.077C233.612 284.368 231.903 283.583 230.235 282.714C228.568 281.846 226.943 280.895 225.373 279.874C223.797 278.852 222.281 277.753 220.82 276.584C219.353 275.414 217.953 274.18 216.619 272.875C215.279 271.575 214.006 270.211 212.806 268.782C211.605 267.358 210.484 265.882 209.429 264.346C208.38 262.816 207.404 261.239 206.513 259.609C205.622 257.985 204.815 256.319 204.088 254.618C203.366 252.917 202.73 251.181 202.178 249.421C201.632 247.655 201.172 245.871 200.802 244.064C200.432 242.257 200.153 240.432 199.971 238.601C199.783 236.764 199.692 234.927 199.692 233.084C199.692 231.242 199.783 229.405 199.971 227.568C200.153 225.731 200.432 223.912 200.802 222.105C201.172 220.297 201.632 218.514 202.178 216.748C202.73 214.982 203.366 213.251 204.088 211.55C204.815 209.843 205.622 208.184 206.513 206.553C207.404 204.929 208.38 203.352 209.429 201.817C210.484 200.287 211.605 198.81 212.806 197.381C214.006 195.958 215.279 194.593 216.619 193.294C217.953 191.989 219.353 190.754 220.82 189.585C222.281 188.415 223.797 187.317 225.373 186.295C226.943 185.267 228.568 184.322 230.235 183.454C231.903 182.586 233.612 181.8 235.364 181.092C237.11 180.389 238.893 179.769 240.699 179.231C242.512 178.7 244.343 178.251 246.204 177.89C248.059 177.53 249.926 177.258 251.812 177.081C253.697 176.898 255.583 176.81 257.474 176.81C259.366 176.81 261.257 176.898 263.137 177.081C265.022 177.258 266.889 177.53 268.75 177.89C270.606 178.251 272.436 178.7 274.249 179.231C276.062 179.769 277.838 180.389 279.59 181.092C281.336 181.8 283.046 182.586 284.713 183.454C286.38 184.322 288.005 185.267 289.575 186.295C291.151 187.317 292.667 188.415 294.134 189.585C295.595 190.754 296.996 191.989 298.335 193.294C299.669 194.593 300.942 195.958 302.143 197.381C303.343 198.81 304.471 200.287 305.519 201.817C306.568 203.352 307.544 204.929 308.436 206.553C309.327 208.184 310.133 209.843 310.861 211.55C311.582 213.251 312.219 214.982 312.77 216.748C313.316 218.514 313.777 220.297 314.146 222.105C314.516 223.912 314.795 225.731 314.977 227.568C315.165 229.405 315.256 231.242 315.256 233.084C315.256 234.927 315.165 236.764 314.977 238.601C314.795 240.432 314.516 242.257 314.146 244.064C313.777 245.871 313.322 247.655 312.77 249.421C312.219 251.181 311.582 252.917 310.861 254.618C310.133 256.319 309.327 257.985 308.436 259.609C307.544 261.239 306.568 262.816 305.519 264.346C304.471 265.882 303.343 267.358 302.143 268.782C300.942 270.211 299.669 271.575 298.335 272.875C296.996 274.18 295.595 275.414 294.134 276.584C292.667 277.753 291.151 278.852 289.575 279.874C288.005 280.895 286.38 281.846 284.713 282.714C283.046 283.583 281.336 284.368 279.59 285.077C277.838 285.78 276.062 286.4 274.249 286.937C272.436 287.469 270.606 287.918 268.75 288.278C266.889 288.638 265.022 288.904 263.137 289.087C261.257 289.27 259.366 289.359 257.474 289.359Z" fill="#0A91E4"/>
<path d="M292.146 233.084C292.146 234.189 292.091 235.293 291.976 236.392C291.867 237.496 291.697 238.589 291.479 239.67C291.254 240.756 290.982 241.826 290.654 242.883C290.321 243.946 289.939 244.985 289.508 246.007C289.072 247.029 288.587 248.027 288.053 249.002C287.514 249.976 286.932 250.921 286.301 251.843C285.671 252.764 284.998 253.65 284.276 254.506C283.555 255.357 282.791 256.178 281.991 256.957C281.185 257.743 280.348 258.481 279.469 259.184C278.59 259.887 277.68 260.542 276.735 261.157C275.795 261.771 274.819 262.338 273.819 262.864C272.818 263.383 271.794 263.856 270.745 264.275C269.696 264.7 268.623 265.073 267.538 265.391C266.453 265.716 265.349 265.982 264.24 266.201C263.124 266.413 262.003 266.579 260.875 266.685C259.742 266.791 258.608 266.85 257.474 266.85C256.34 266.85 255.207 266.791 254.079 266.685C252.945 266.579 251.824 266.413 250.708 266.201C249.599 265.982 248.496 265.716 247.41 265.391C246.325 265.073 245.258 264.7 244.209 264.275C243.161 263.856 242.13 263.383 241.13 262.864C240.129 262.338 239.159 261.771 238.214 261.157C237.268 260.542 236.358 259.887 235.479 259.184C234.6 258.481 233.764 257.743 232.957 256.957C232.157 256.178 231.393 255.357 230.672 254.506C229.956 253.65 229.277 252.764 228.647 251.843C228.016 250.921 227.434 249.976 226.901 249.002C226.361 248.027 225.876 247.029 225.446 246.007C225.009 244.985 224.628 243.946 224.3 242.883C223.967 241.826 223.694 240.756 223.47 239.67C223.251 238.589 223.082 237.496 222.972 236.392C222.863 235.293 222.803 234.189 222.803 233.084C222.803 231.98 222.863 230.875 222.972 229.777C223.082 228.672 223.251 227.58 223.47 226.499C223.694 225.412 223.967 224.343 224.3 223.28C224.628 222.223 225.009 221.183 225.446 220.161C225.876 219.14 226.361 218.141 226.901 217.167C227.434 216.192 228.016 215.241 228.647 214.326C229.277 213.405 229.956 212.519 230.672 211.662C231.393 210.806 232.157 209.991 232.957 209.205C233.764 208.426 234.6 207.681 235.479 206.985C236.358 206.282 237.268 205.626 238.214 205.012C239.159 204.392 240.129 203.825 241.13 203.305C242.13 202.785 243.161 202.313 244.209 201.887C245.258 201.468 246.325 201.096 247.41 200.771C248.496 200.452 249.599 200.181 250.708 199.968C251.824 199.749 252.945 199.59 254.079 199.484C255.207 199.371 256.34 199.318 257.474 199.318C258.608 199.318 259.742 199.371 260.875 199.484C262.003 199.59 263.124 199.749 264.24 199.968C265.349 200.181 266.453 200.452 267.538 200.771C268.623 201.096 269.696 201.468 270.745 201.887C271.794 202.313 272.818 202.785 273.819 203.305C274.819 203.825 275.795 204.392 276.735 205.012C277.68 205.626 278.59 206.282 279.469 206.985C280.348 207.681 281.185 208.426 281.991 209.205C282.791 209.991 283.555 210.806 284.276 211.662C284.998 212.519 285.671 213.405 286.301 214.326C286.932 215.241 287.514 216.192 288.053 217.167C288.587 218.141 289.072 219.14 289.508 220.161C289.939 221.183 290.321 222.223 290.654 223.28C290.982 224.343 291.254 225.412 291.479 226.499C291.697 227.58 291.867 228.672 291.976 229.777C292.091 230.875 292.146 231.98 292.146 233.084Z" fill="#0A91E4"/>
<path d="M37.903 356.885H288.563C292.928 344.777 298.978 333.52 306.708 323.125H95.6847C94.9269 323.125 94.1751 323.048 93.4294 322.907C92.6837 322.765 91.9623 322.546 91.259 322.269C90.5619 321.985 89.895 321.637 89.2645 321.223C88.634 320.816 88.0459 320.349 87.5124 319.829C86.9729 319.304 86.4939 318.737 86.0756 318.122C85.6512 317.508 85.2935 316.858 85.0086 316.173C84.7176 315.494 84.4994 314.791 84.3478 314.065C84.2023 313.338 84.1235 312.606 84.1235 311.868C84.1235 311.129 84.0507 310.397 83.9052 309.671C83.7537 308.95 83.5354 308.241 83.2444 307.562C82.9534 306.877 82.6018 306.227 82.1774 305.613C81.7591 304.999 81.2802 304.432 80.7406 303.912C80.2071 303.386 79.619 302.92 78.9885 302.512C78.358 302.099 77.6912 301.75 76.994 301.473C76.2907 301.189 75.5693 300.971 74.8236 300.829C74.0779 300.687 73.3262 300.61 72.5684 300.61C71.8105 300.61 71.0588 300.54 70.3131 300.398C69.5735 300.25 68.846 300.037 68.1488 299.754C67.4455 299.476 66.7787 299.128 66.1482 298.715C65.5177 298.307 64.9357 297.84 64.3961 297.315C63.8626 296.795 63.3837 296.228 62.9593 295.614C62.541 294.999 62.1833 294.35 61.8923 293.665C61.6013 292.98 61.383 292.277 61.2375 291.556C61.086 290.83 61.0132 290.097 61.0132 289.359V176.81C61.0132 176.071 61.086 175.339 61.2375 174.612C61.383 173.886 61.6013 173.183 61.8923 172.504C62.1833 171.819 62.541 171.169 62.9593 170.555C63.3837 169.941 63.8626 169.374 64.3961 168.848C64.9357 168.328 65.5177 167.862 66.1482 167.448C66.7787 167.041 67.4455 166.692 68.1488 166.409C68.846 166.125 69.5735 165.912 70.3131 165.771C71.0588 165.623 71.8105 165.552 72.5684 165.552C73.3262 165.552 74.0779 165.481 74.8236 165.34C75.5693 165.192 76.2907 164.979 76.994 164.696C77.6912 164.412 78.358 164.07 78.9885 163.656C79.619 163.249 80.2071 162.782 80.7406 162.257C81.2802 161.737 81.7591 161.164 82.1774 160.55C82.6018 159.935 82.9534 159.286 83.2444 158.606C83.5354 157.921 83.7537 157.218 83.9052 156.492C84.0507 155.771 84.1235 155.039 84.1235 154.301C84.1235 153.563 84.2023 152.83 84.3478 152.104C84.4994 151.377 84.7176 150.674 85.0086 149.989C85.2996 149.31 85.6512 148.66 86.0756 148.046C86.4939 147.432 86.9729 146.865 87.5124 146.339C88.0459 145.819 88.634 145.353 89.2645 144.939C89.895 144.532 90.5619 144.183 91.259 143.9C91.9623 143.616 92.6837 143.404 93.4294 143.262C94.1751 143.114 94.9269 143.043 95.6847 143.043H419.265C420.028 143.043 420.78 143.114 421.52 143.262C422.266 143.404 422.987 143.616 423.69 143.9C424.393 144.183 425.054 144.532 425.691 144.939C426.321 145.353 426.903 145.819 427.437 146.339C427.976 146.865 428.455 147.432 428.874 148.046C429.298 148.66 429.656 149.31 429.947 149.989C430.232 150.674 430.456 151.377 430.601 152.104C430.747 152.83 430.826 153.563 430.826 154.301C430.826 155.039 430.898 155.771 431.044 156.492C431.196 157.218 431.414 157.921 431.705 158.606C431.996 159.286 432.347 159.935 432.772 160.55C433.19 161.164 433.675 161.737 434.209 162.257C434.748 162.782 435.33 163.249 435.961 163.656C436.591 164.07 437.258 164.412 437.955 164.696C438.659 164.979 439.38 165.192 440.126 165.34C440.871 165.481 441.623 165.552 442.381 165.552C443.139 165.552 443.89 165.623 444.636 165.771C445.382 165.912 446.103 166.125 446.8 166.409C447.504 166.692 448.171 167.041 448.801 167.448C449.432 167.862 450.014 168.328 450.553 168.848C451.087 169.374 451.566 169.941 451.99 170.555C452.408 171.169 452.766 171.819 453.057 172.504C453.348 173.183 453.566 173.886 453.718 174.612C453.863 175.339 453.936 176.071 453.936 176.81V271.126C466.152 274.174 477.707 278.787 488.607 284.971V120.535C488.607 119.796 488.535 119.064 488.383 118.338C488.238 117.611 488.019 116.908 487.728 116.229C487.437 115.544 487.08 114.894 486.661 114.28C486.237 113.666 485.758 113.099 485.225 112.573C484.685 112.053 484.103 111.587 483.473 111.173C482.842 110.766 482.175 110.417 481.472 110.134C480.769 109.85 480.047 109.638 479.308 109.496C478.562 109.348 477.81 109.277 477.052 109.277H37.903C37.1391 109.277 36.3874 109.348 35.6477 109.496C34.902 109.638 34.1806 109.85 33.4774 110.134C32.7741 110.417 32.1133 110.766 31.4767 111.173C30.8462 111.587 30.2642 112.053 29.7307 112.573C29.1912 113.099 28.7122 113.666 28.2939 114.28C27.8695 114.894 27.5119 115.544 27.2209 116.229C26.9359 116.908 26.7116 117.611 26.5661 118.338C26.4206 119.064 26.3418 119.796 26.3418 120.535V345.634C26.3418 346.372 26.4206 347.104 26.5661 347.831C26.7116 348.551 26.9359 349.254 27.2209 349.939C27.5119 350.625 27.8695 351.274 28.2939 351.888C28.7122 352.503 29.1912 353.07 29.7307 353.589C30.2642 354.115 30.8462 354.582 31.4767 354.989C32.1133 355.403 32.7741 355.751 33.4774 356.029C34.1806 356.312 34.902 356.525 35.6477 356.673C36.3874 356.814 37.1391 356.885 37.903 356.885Z" fill="#0A91E4"/>
<path d="M211.248 458.183H293.182C289.793 450.907 287.059 443.406 284.98 435.675H211.248C210.49 435.675 209.738 435.745 208.992 435.887C208.247 436.035 207.525 436.247 206.828 436.531C206.125 436.814 205.458 437.157 204.827 437.57C204.197 437.978 203.615 438.445 203.075 438.97C202.542 439.49 202.063 440.063 201.638 440.677C201.22 441.291 200.862 441.935 200.571 442.62C200.28 443.305 200.062 444.008 199.917 444.729C199.765 445.455 199.692 446.188 199.692 446.926C199.692 447.664 199.765 448.397 199.917 449.123C200.062 449.85 200.28 450.552 200.571 451.232C200.862 451.917 201.22 452.566 201.638 453.181C202.063 453.795 202.542 454.362 203.075 454.888C203.615 455.407 204.197 455.874 204.827 456.287C205.458 456.695 206.125 457.043 206.828 457.327C207.525 457.61 208.247 457.823 208.992 457.965C209.738 458.112 210.49 458.183 211.248 458.183Z" fill="#0A91E4"/>
<path d="M211.248 390.651C210.49 390.651 209.738 390.722 208.992 390.87C208.247 391.011 207.525 391.224 206.828 391.508C206.125 391.791 205.458 392.14 204.827 392.547C204.197 392.961 203.615 393.427 203.075 393.947C202.542 394.473 202.063 395.04 201.638 395.654C201.22 396.268 200.862 396.918 200.571 397.603C200.28 398.282 200.062 398.985 199.917 399.711C199.765 400.438 199.692 401.17 199.692 401.908C199.692 402.647 199.765 403.379 199.917 404.106C200.062 404.826 200.28 405.529 200.571 406.214C200.862 406.899 201.22 407.549 201.638 408.163C202.063 408.777 202.542 409.344 203.075 409.864C203.615 410.39 204.197 410.856 204.827 411.264C205.458 411.677 206.125 412.026 206.828 412.303C207.525 412.587 208.247 412.8 208.992 412.947C209.738 413.089 210.49 413.16 211.248 413.16H280.59C280.59 409.451 280.59 405.736 280.59 401.908C280.59 398.081 280.59 394.366 280.59 390.651H211.248Z" fill="#0A91E4"/>
<path d="M440.561 277.919C438.67 277.919 436.784 277.966 434.893 278.054C433.001 278.149 431.116 278.285 429.237 278.462C427.357 278.645 425.478 278.869 423.605 279.141C421.737 279.407 419.87 279.726 418.021 280.086C416.166 280.441 414.317 280.848 412.486 281.297C410.649 281.74 408.824 282.23 407.018 282.768C405.205 283.305 403.41 283.878 401.628 284.498C399.852 285.118 398.088 285.786 396.342 286.489C394.589 287.191 392.862 287.941 391.152 288.727C389.442 289.513 387.757 290.345 386.084 291.214C384.417 292.082 382.774 292.985 381.149 293.936C379.53 294.881 377.93 295.868 376.36 296.889C374.789 297.911 373.243 298.974 371.722 300.073C370.2 301.166 368.715 302.3 367.248 303.469C365.787 304.638 364.356 305.837 362.955 307.078C361.555 308.312 360.185 309.582 358.845 310.887C357.511 312.187 356.208 313.521 354.935 314.886C353.668 316.25 352.431 317.644 351.23 319.067C350.03 320.497 348.866 321.944 347.738 323.426C346.611 324.903 345.526 326.409 344.477 327.945C343.422 329.474 342.41 331.028 341.44 332.61C340.47 334.187 339.536 335.788 338.645 337.418C337.754 339.042 336.905 340.684 336.092 342.35C335.286 344.015 334.516 345.699 333.795 347.4C333.073 349.101 332.388 350.819 331.752 352.556C331.115 354.286 330.521 356.035 329.975 357.801C329.424 359.561 328.92 361.338 328.46 363.122C327.999 364.912 327.587 366.707 327.217 368.515C326.847 370.322 326.526 372.135 326.247 373.954C325.974 375.779 325.738 377.604 325.556 379.441C325.368 381.272 325.228 383.109 325.137 384.946C325.047 386.788 324.998 388.631 324.998 390.468C324.998 392.311 325.047 394.154 325.137 395.99C325.228 397.833 325.368 399.67 325.556 401.501C325.738 403.338 325.974 405.163 326.247 406.988C326.526 408.807 326.847 410.62 327.217 412.428C327.587 414.235 327.999 416.03 328.46 417.82C328.92 419.604 329.424 421.381 329.975 423.141C330.521 424.907 331.115 426.656 331.752 428.386C332.388 430.123 333.073 431.841 333.795 433.542C334.516 435.243 335.286 436.927 336.092 438.592C336.905 440.258 337.754 441.9 338.645 443.524C339.536 445.148 340.47 446.755 341.44 448.332C342.41 449.914 343.422 451.468 344.477 452.998C345.526 454.533 346.617 456.039 347.738 457.516C348.866 458.998 350.03 460.445 351.23 461.869C352.431 463.298 353.668 464.692 354.935 466.056C356.208 467.421 357.511 468.755 358.845 470.055C360.185 471.36 361.555 472.63 362.955 473.864C364.356 475.099 365.787 476.304 367.248 477.473C368.715 478.642 370.2 479.776 371.722 480.869C373.243 481.968 374.789 483.031 376.36 484.053C377.93 485.074 379.53 486.061 381.149 487.006C382.774 487.957 384.417 488.86 386.084 489.729C387.757 490.597 389.442 491.43 391.152 492.215C392.862 493.001 394.589 493.751 396.342 494.454C398.088 495.156 399.852 495.818 401.628 496.438C403.41 497.064 405.205 497.637 407.018 498.174C408.824 498.706 410.649 499.202 412.486 499.645C414.317 500.094 416.166 500.496 418.021 500.856C419.87 501.216 421.737 501.529 423.605 501.801C425.478 502.073 427.357 502.297 429.237 502.48C431.116 502.657 433.001 502.793 434.893 502.882C436.784 502.976 438.67 503.018 440.561 503.018C442.453 503.018 444.344 502.976 446.236 502.882C448.121 502.793 450.007 502.657 451.892 502.48C453.772 502.297 455.651 502.073 457.518 501.801C459.392 501.529 461.253 501.216 463.108 500.856C464.963 500.496 466.812 500.094 468.643 499.645C470.48 499.202 472.299 498.706 474.111 498.174C475.918 497.637 477.718 497.064 479.495 496.444C481.277 495.818 483.041 495.156 484.787 494.454C486.533 493.751 488.267 493.001 489.977 492.215C491.686 491.43 493.372 490.597 495.039 489.729C496.706 488.86 498.355 487.957 499.974 487.006C501.599 486.061 503.199 485.074 504.769 484.053C506.34 483.031 507.885 481.968 509.407 480.869C510.923 479.776 512.414 478.642 513.875 477.473C515.342 476.304 516.773 475.099 518.174 473.864C519.574 472.63 520.944 471.36 522.284 470.055C523.618 468.755 524.921 467.421 526.194 466.056C527.461 464.692 528.698 463.298 529.898 461.869C531.099 460.445 532.263 458.998 533.384 457.516C534.512 456.039 535.603 454.533 536.652 452.998C537.707 451.468 538.713 449.914 539.689 448.332C540.659 446.755 541.593 445.148 542.484 443.524C543.375 441.9 544.224 440.258 545.036 438.592C545.843 436.927 546.607 435.243 547.334 433.542C548.056 431.841 548.735 430.123 549.377 428.386C550.014 426.656 550.602 424.907 551.154 423.141C551.705 421.381 552.208 419.604 552.669 417.82C553.124 416.03 553.542 414.235 553.912 412.428C554.276 410.62 554.603 408.807 554.876 406.988C555.155 405.163 555.385 403.338 555.573 401.501C555.761 399.67 555.9 397.833 555.991 395.99C556.082 394.154 556.131 392.311 556.131 390.468C556.131 388.631 556.082 386.788 555.991 384.946C555.9 383.109 555.761 381.272 555.573 379.441C555.385 377.604 555.155 375.779 554.876 373.954C554.603 372.135 554.276 370.322 553.912 368.515C553.542 366.707 553.124 364.912 552.669 363.122C552.208 361.338 551.705 359.561 551.154 357.801C550.602 356.035 550.014 354.286 549.377 352.556C548.735 350.819 548.056 349.101 547.334 347.4C546.607 345.699 545.843 344.015 545.036 342.35C544.224 340.684 543.375 339.042 542.484 337.418C541.593 335.788 540.659 334.187 539.689 332.61C538.713 331.028 537.707 329.474 536.652 327.939C535.603 326.409 534.512 324.903 533.384 323.426C532.263 321.944 531.099 320.497 529.898 319.067C528.698 317.644 527.461 316.25 526.194 314.886C524.921 313.521 523.618 312.187 522.284 310.887C520.944 309.582 519.574 308.312 518.174 307.078C516.773 305.837 515.342 304.638 513.875 303.469C512.414 302.3 510.923 301.166 509.407 300.073C507.885 298.974 506.34 297.911 504.769 296.889C503.199 295.868 501.599 294.881 499.974 293.936C498.355 292.985 496.706 292.082 495.039 291.214C493.372 290.345 491.686 289.513 489.977 288.727C488.267 287.941 486.533 287.191 484.787 286.489C483.041 285.786 481.277 285.118 479.495 284.498C477.718 283.878 475.918 283.305 474.111 282.768C472.299 282.23 470.48 281.74 468.643 281.297C466.812 280.848 464.963 280.441 463.108 280.086C461.253 279.726 459.392 279.407 457.518 279.141C455.651 278.869 453.772 278.645 451.892 278.462C450.007 278.285 448.121 278.149 446.236 278.054C444.344 277.966 442.453 277.919 440.561 277.919ZM475.233 367.959C475.233 368.698 475.16 369.43 475.009 370.156C474.863 370.883 474.645 371.586 474.354 372.265C474.063 372.95 473.705 373.6 473.287 374.214C472.862 374.828 472.383 375.395 471.85 375.921C471.31 376.441 470.728 376.907 470.098 377.321C469.467 377.728 468.801 378.077 468.097 378.36C467.4 378.644 466.679 378.856 465.933 378.998C465.187 379.146 464.436 379.217 463.678 379.217C462.92 379.217 462.168 379.146 461.422 378.998C460.677 378.856 459.955 378.644 459.252 378.36C458.555 378.077 457.888 377.728 457.258 377.321C456.627 376.907 456.039 376.441 455.505 375.921C454.966 375.395 454.487 374.828 454.069 374.214C453.644 373.6 453.293 372.95 453.002 372.265C452.711 371.586 452.492 370.883 452.341 370.156C452.195 369.43 452.123 368.698 452.123 367.959V366.27C452.123 365.644 452.056 365.024 451.935 364.404C451.807 363.79 451.619 363.193 451.371 362.614C451.128 362.029 450.825 361.48 450.468 360.96C450.104 360.435 449.698 359.95 449.243 359.508C448.788 359.065 448.291 358.669 447.758 358.32C447.218 357.972 446.654 357.677 446.054 357.434C445.46 357.192 444.848 357.015 444.211 356.891C443.581 356.767 442.944 356.708 442.295 356.708H438.828C438.185 356.708 437.548 356.767 436.912 356.891C436.281 357.015 435.669 357.192 435.069 357.434C434.475 357.677 433.911 357.972 433.371 358.32C432.838 358.669 432.341 359.065 431.886 359.508C431.431 359.95 431.019 360.435 430.661 360.96C430.304 361.48 430.001 362.029 429.758 362.614C429.509 363.193 429.322 363.79 429.194 364.404C429.073 365.024 429.006 365.644 429.006 366.27C429.006 367.168 429.128 368.048 429.37 368.91C429.619 369.778 429.982 370.588 430.461 371.355C430.94 372.117 431.522 372.808 432.195 373.417C432.868 374.025 433.62 374.533 434.438 374.941L457.555 386.192C458.985 386.924 460.355 387.745 461.665 388.673C462.968 389.6 464.199 390.61 465.357 391.714C466.509 392.819 467.576 393.994 468.546 395.252C469.522 396.504 470.401 397.821 471.177 399.203C471.947 400.585 472.614 402.015 473.172 403.491C473.735 404.968 474.178 406.48 474.505 408.021C474.833 409.557 475.045 411.116 475.142 412.687C475.233 414.258 475.209 415.83 475.063 417.395C474.918 418.966 474.657 420.513 474.275 422.043C473.899 423.573 473.402 425.067 472.796 426.526C472.189 427.985 471.48 429.39 470.662 430.749C469.837 432.107 468.922 433.395 467.903 434.623C466.891 435.846 465.787 436.992 464.599 438.055C463.411 439.124 462.144 440.098 460.81 440.978C459.47 441.864 458.076 442.65 456.621 443.329C455.166 444.014 453.662 444.587 452.123 445.06V446.743C452.123 447.487 452.044 448.213 451.898 448.94C451.753 449.666 451.528 450.369 451.244 451.054C450.953 451.734 450.595 452.383 450.17 452.998C449.752 453.612 449.273 454.179 448.734 454.704C448.2 455.224 447.618 455.691 446.982 456.104C446.351 456.512 445.69 456.86 444.987 457.144C444.284 457.427 443.562 457.64 442.817 457.782C442.077 457.929 441.325 458 440.561 458C439.804 458 439.052 457.929 438.312 457.782C437.567 457.64 436.845 457.427 436.142 457.144C435.439 456.86 434.772 456.512 434.141 456.104C433.511 455.691 432.929 455.224 432.389 454.704C431.856 454.179 431.377 453.612 430.952 452.998C430.534 452.383 430.176 451.734 429.885 451.054C429.594 450.369 429.376 449.666 429.231 448.94C429.079 448.213 429.006 447.487 429.006 446.743V445.06C427.351 444.558 425.745 443.931 424.187 443.187C422.635 442.437 421.149 441.575 419.731 440.6C418.318 439.62 416.99 438.539 415.748 437.358C414.511 436.177 413.371 434.907 412.34 433.548C411.31 432.19 410.394 430.761 409.594 429.266C408.794 427.766 408.121 426.213 407.569 424.612C407.024 423.006 406.611 421.37 406.326 419.704C406.048 418.038 405.902 416.361 405.896 414.666V412.983C405.896 412.244 405.969 411.512 406.114 410.786C406.266 410.059 406.484 409.356 406.775 408.671C407.066 407.992 407.418 407.342 407.842 406.728C408.26 406.114 408.745 405.547 409.279 405.021C409.818 404.501 410.4 404.035 411.031 403.621C411.661 403.214 412.328 402.865 413.026 402.582C413.729 402.298 414.45 402.086 415.196 401.944C415.942 401.796 416.693 401.725 417.451 401.725C418.209 401.725 418.961 401.796 419.706 401.944C420.452 402.086 421.174 402.298 421.871 402.582C422.574 402.865 423.241 403.214 423.871 403.621C424.502 404.035 425.084 404.501 425.623 405.021C426.157 405.547 426.636 406.114 427.06 406.728C427.479 407.342 427.836 407.992 428.127 408.671C428.418 409.356 428.636 410.059 428.788 410.786C428.934 411.512 429.006 412.244 429.006 412.983V414.666C429.006 415.298 429.073 415.918 429.194 416.532C429.322 417.153 429.509 417.749 429.752 418.328C430.001 418.913 430.304 419.462 430.661 419.982C431.019 420.507 431.431 420.992 431.886 421.435C432.341 421.878 432.838 422.273 433.371 422.622C433.911 422.97 434.475 423.265 435.069 423.508C435.669 423.75 436.281 423.927 436.912 424.051C437.548 424.175 438.185 424.234 438.828 424.234H442.295C442.944 424.234 443.581 424.175 444.211 424.051C444.848 423.927 445.46 423.75 446.054 423.508C446.654 423.265 447.218 422.97 447.758 422.622C448.291 422.273 448.788 421.878 449.243 421.435C449.698 420.992 450.104 420.507 450.468 419.982C450.825 419.462 451.128 418.913 451.371 418.328C451.619 417.749 451.807 417.153 451.935 416.532C452.056 415.918 452.123 415.298 452.123 414.666C452.123 413.774 452.001 412.894 451.753 412.032C451.51 411.164 451.147 410.354 450.668 409.587C450.183 408.819 449.607 408.134 448.934 407.525C448.255 406.917 447.509 406.409 446.691 406.002L423.574 394.75C422.144 394.018 420.773 393.191 419.464 392.269C418.154 391.342 416.924 390.332 415.772 389.228C414.62 388.123 413.553 386.948 412.577 385.69C411.601 384.438 410.728 383.121 409.952 381.739C409.176 380.357 408.509 378.927 407.951 377.451C407.393 375.974 406.951 374.462 406.624 372.921C406.29 371.379 406.078 369.826 405.987 368.255C405.896 366.684 405.92 365.113 406.066 363.547C406.211 361.976 406.472 360.429 406.848 358.899C407.23 357.369 407.721 355.875 408.327 354.416C408.933 352.957 409.649 351.546 410.467 350.193C411.286 348.835 412.207 347.547 413.22 346.319C414.238 345.096 415.341 343.95 416.53 342.887C417.718 341.818 418.979 340.844 420.319 339.964C421.659 339.078 423.053 338.292 424.508 337.607C425.963 336.928 427.466 336.349 429.006 335.883V334.193C429.006 333.455 429.079 332.723 429.231 332.002C429.376 331.276 429.594 330.573 429.885 329.888C430.176 329.208 430.534 328.559 430.952 327.945C431.377 327.33 431.856 326.757 432.389 326.238C432.929 325.718 433.511 325.251 434.141 324.838C434.772 324.424 435.439 324.082 436.142 323.798C436.845 323.515 437.567 323.302 438.312 323.155C439.052 323.013 439.804 322.942 440.561 322.942C441.325 322.942 442.077 323.013 442.817 323.155C443.562 323.302 444.284 323.515 444.987 323.798C445.69 324.082 446.351 324.424 446.982 324.838C447.618 325.251 448.2 325.718 448.734 326.238C449.273 326.757 449.752 327.33 450.17 327.945C450.595 328.559 450.953 329.208 451.244 329.888C451.528 330.573 451.753 331.276 451.898 332.002C452.044 332.723 452.123 333.455 452.123 334.193V335.883C453.778 336.385 455.384 337.011 456.942 337.755C458.494 338.505 459.98 339.367 461.398 340.342C462.811 341.322 464.138 342.403 465.381 343.584C466.618 344.766 467.752 346.035 468.788 347.394C469.819 348.752 470.734 350.176 471.535 351.676C472.335 353.176 473.008 354.729 473.56 356.33C474.105 357.936 474.517 359.572 474.802 361.238C475.081 362.904 475.227 364.581 475.233 366.27V367.959Z" fill="white"/>
<path d="M544.576 52.8196H105.42C104.663 52.8196 103.911 52.8964 103.171 53.0381C102.425 53.1799 101.704 53.3984 101.001 53.6819C100.298 53.9595 99.6307 54.308 99.0002 54.7214C98.3697 55.1289 97.7877 55.5955 97.2542 56.1212C96.7146 56.6409 96.2357 57.2079 95.8113 57.8222C95.393 58.4364 95.0353 59.0861 94.7443 59.7713C94.4533 60.4505 94.235 61.1592 94.0895 61.8798C93.938 62.6063 93.8652 63.3386 93.8652 64.0769V75.3342H498.349C499.483 75.3342 500.617 75.3874 501.744 75.4937C502.878 75.6059 503.999 75.7654 505.109 75.978C506.224 76.1965 507.322 76.4623 508.413 76.7872C509.498 77.1061 510.565 77.4782 511.614 77.9034C512.663 78.3228 513.687 78.7953 514.688 79.3209C515.694 79.8407 516.664 80.4077 517.61 81.0219C518.549 81.6362 519.465 82.2977 520.344 82.9946C521.217 83.6975 522.06 84.4417 522.86 85.2213C523.666 86.0009 524.424 86.8219 525.145 87.6783C525.867 88.5288 526.54 89.4206 527.176 90.3361C527.807 91.2575 528.389 92.2025 528.922 93.1829C529.456 94.1574 529.941 95.1556 530.377 96.1774C530.814 97.1992 531.196 98.2387 531.523 99.2959C531.851 100.353 532.129 101.428 532.348 102.509C532.572 103.596 532.736 104.688 532.851 105.787C532.96 106.885 533.015 107.99 533.015 109.094V300.433H544.576C545.334 300.433 546.085 300.356 546.825 300.215C547.571 300.073 548.292 299.854 548.995 299.577C549.699 299.293 550.365 298.945 550.996 298.531C551.626 298.124 552.208 297.657 552.742 297.138C553.281 296.612 553.76 296.045 554.185 295.431C554.603 294.816 554.961 294.167 555.252 293.482C555.543 292.802 555.761 292.1 555.907 291.373C556.058 290.647 556.131 289.914 556.131 289.176V64.0769C556.131 63.3386 556.058 62.6063 555.907 61.8798C555.761 61.1592 555.543 60.4505 555.252 59.7713C554.961 59.0861 554.603 58.4364 554.185 57.8222C553.76 57.2079 553.281 56.6409 552.742 56.1212C552.208 55.5955 551.626 55.1289 550.996 54.7214C550.365 54.308 549.699 53.9595 548.995 53.6819C548.292 53.3984 547.571 53.1799 546.825 53.0381C546.085 52.8964 545.334 52.8196 544.576 52.8196Z" fill="white"/>
<path d="M430.971 154.118H126.573C125.712 156.492 124.591 158.748 123.208 160.88C121.832 163.013 120.226 164.967 118.395 166.751C116.564 168.535 114.557 170.094 112.369 171.441C110.18 172.781 107.864 173.874 105.421 174.713V268.581C107.864 269.42 110.18 270.512 112.369 271.853C114.557 273.2 116.564 274.759 118.395 276.542C120.226 278.326 121.832 280.281 123.208 282.413C124.591 284.545 125.712 286.802 126.573 289.176H349.036C355.287 283.766 361.992 278.958 369.146 274.741C376.299 270.524 383.787 266.974 391.607 264.086C399.428 261.204 407.455 259.03 415.681 257.572C423.908 256.113 432.202 255.392 440.562 255.41C444.497 255.41 448.31 255.41 452.123 255.41V174.713C449.68 173.874 447.364 172.781 445.176 171.441C442.987 170.094 440.98 168.535 439.149 166.751C437.319 164.967 435.712 163.013 434.336 160.88C432.954 158.748 431.832 156.492 430.971 154.118ZM278.772 277.919C276.881 277.919 274.989 277.83 273.11 277.653C271.224 277.47 269.357 277.198 267.502 276.838C265.641 276.477 263.81 276.035 261.997 275.497C260.19 274.965 258.408 274.345 256.662 273.637C254.91 272.934 253.2 272.142 251.533 271.274C249.866 270.406 248.241 269.461 246.671 268.439C245.095 267.411 243.579 266.319 242.118 265.149C240.651 263.98 239.251 262.74 237.911 261.44C236.577 260.135 235.304 258.771 234.104 257.347C232.903 255.924 231.782 254.441 230.727 252.912C229.678 251.376 228.702 249.799 227.811 248.175C226.919 246.55 226.113 244.885 225.386 243.184C224.664 241.477 224.028 239.746 223.476 237.981C222.93 236.22 222.47 234.431 222.1 232.624C221.73 230.816 221.451 228.997 221.269 227.16C221.081 225.329 220.99 223.487 220.99 221.644C220.99 219.801 221.081 217.964 221.269 216.133C221.451 214.296 221.73 212.477 222.1 210.67C222.47 208.863 222.93 207.073 223.476 205.313C224.028 203.547 224.664 201.817 225.386 200.11C226.113 198.409 226.919 196.743 227.811 195.119C228.702 193.495 229.678 191.912 230.727 190.382C231.782 188.852 232.903 187.37 234.104 185.946C235.304 184.523 236.577 183.159 237.911 181.853C239.251 180.548 240.651 179.314 242.118 178.144C243.579 176.975 245.095 175.882 246.671 174.855C248.241 173.833 249.866 172.888 251.533 172.02C253.2 171.145 254.91 170.36 256.662 169.657C258.408 168.948 260.19 168.328 261.997 167.797C263.81 167.259 265.641 166.81 267.502 166.456C269.357 166.096 271.224 165.824 273.11 165.641C274.989 165.464 276.881 165.369 278.772 165.369C280.664 165.369 282.555 165.464 284.434 165.641C286.32 165.824 288.187 166.096 290.042 166.456C291.903 166.81 293.734 167.259 295.547 167.797C297.36 168.328 299.136 168.948 300.882 169.657C302.634 170.36 304.344 171.145 306.011 172.02C307.678 172.888 309.303 173.833 310.873 174.855C312.449 175.882 313.965 176.975 315.432 178.144C316.893 179.314 318.293 180.548 319.633 181.853C320.967 183.159 322.24 184.523 323.441 185.946C324.641 187.37 325.769 188.852 326.817 190.382C327.866 191.912 328.842 193.495 329.733 195.119C330.625 196.743 331.431 198.409 332.158 200.11C332.88 201.817 333.516 203.547 334.068 205.313C334.614 207.073 335.074 208.863 335.444 210.67C335.814 212.477 336.093 214.296 336.275 216.133C336.463 217.964 336.554 219.801 336.554 221.644C336.554 223.487 336.463 225.329 336.275 227.16C336.093 228.997 335.814 230.816 335.444 232.624C335.074 234.431 334.614 236.22 334.068 237.981C333.516 239.746 332.88 241.477 332.158 243.184C331.431 244.885 330.625 246.55 329.733 248.175C328.842 249.799 327.866 251.376 326.817 252.912C325.769 254.441 324.641 255.924 323.441 257.347C322.24 258.771 320.967 260.135 319.633 261.44C318.293 262.74 316.893 263.98 315.432 265.149C313.965 266.319 312.449 267.411 310.873 268.439C309.303 269.461 307.678 270.406 306.011 271.274C304.344 272.142 302.634 272.934 300.882 273.637C299.136 274.345 297.36 274.965 295.547 275.497C293.734 276.035 291.903 276.477 290.042 276.838C288.187 277.198 286.32 277.47 284.434 277.653C282.555 277.83 280.664 277.919 278.772 277.919Z" fill="white"/>
<path d="M313.443 221.644C313.443 222.754 313.389 223.853 313.274 224.957C313.165 226.056 312.995 227.148 312.777 228.235C312.552 229.316 312.279 230.391 311.952 231.448C311.619 232.505 311.237 233.545 310.8 234.567C310.37 235.589 309.885 236.587 309.345 237.561C308.812 238.536 308.23 239.487 307.599 240.408C306.969 241.323 306.29 242.209 305.574 243.066C304.853 243.922 304.089 244.737 303.289 245.523C302.482 246.302 301.646 247.047 300.767 247.749C299.888 248.446 298.978 249.108 298.033 249.722C297.087 250.336 296.117 250.903 295.117 251.423C294.116 251.943 293.092 252.415 292.037 252.841C290.988 253.266 289.921 253.638 288.836 253.957C287.751 254.276 286.647 254.548 285.538 254.76C284.422 254.979 283.301 255.138 282.173 255.25C281.039 255.357 279.906 255.41 278.772 255.41C277.638 255.41 276.505 255.357 275.377 255.25C274.243 255.138 273.122 254.979 272.006 254.76C270.897 254.548 269.793 254.276 268.708 253.957C267.623 253.638 266.556 253.266 265.507 252.841C264.458 252.415 263.428 251.943 262.428 251.423C261.427 250.903 260.457 250.336 259.511 249.722C258.566 249.108 257.656 248.446 256.777 247.749C255.898 247.047 255.062 246.302 254.255 245.523C253.455 244.737 252.691 243.922 251.97 243.066C251.254 242.209 250.575 241.323 249.945 240.408C249.314 239.487 248.732 238.536 248.199 237.561C247.659 236.587 247.174 235.589 246.744 234.567C246.307 233.545 245.925 232.505 245.598 231.448C245.265 230.391 244.992 229.316 244.767 228.235C244.549 227.148 244.379 226.056 244.27 224.957C244.161 223.853 244.101 222.754 244.101 221.644C244.101 220.539 244.161 219.435 244.27 218.336C244.379 217.238 244.549 216.145 244.767 215.058C244.992 213.978 245.265 212.903 245.598 211.845C245.925 210.788 246.307 209.749 246.744 208.727C247.174 207.705 247.659 206.707 248.199 205.732C248.732 204.752 249.314 203.807 249.945 202.886C250.575 201.97 251.254 201.078 251.97 200.228C252.691 199.371 253.455 198.55 254.255 197.771C255.062 196.991 255.898 196.247 256.777 195.544C257.656 194.847 258.566 194.186 259.511 193.571C260.457 192.957 261.427 192.39 262.428 191.87C263.428 191.345 264.458 190.872 265.507 190.453C266.556 190.028 267.623 189.656 268.708 189.337C269.793 189.012 270.897 188.746 272.006 188.528C273.122 188.315 274.243 188.155 275.377 188.043C276.505 187.937 277.638 187.884 278.772 187.884C279.906 187.884 281.039 187.937 282.173 188.043C283.301 188.155 284.422 188.315 285.538 188.528C286.647 188.746 287.751 189.012 288.836 189.337C289.921 189.656 290.988 190.028 292.037 190.453C293.092 190.872 294.116 191.345 295.117 191.87C296.117 192.39 297.087 192.957 298.033 193.571C298.978 194.186 299.888 194.847 300.767 195.544C301.646 196.247 302.482 196.991 303.289 197.771C304.089 198.55 304.853 199.371 305.574 200.228C306.29 201.078 306.969 201.97 307.599 202.886C308.23 203.807 308.812 204.752 309.345 205.732C309.885 206.707 310.37 207.705 310.8 208.727C311.237 209.749 311.619 210.788 311.952 211.845C312.279 212.903 312.552 213.978 312.777 215.058C312.995 216.145 313.165 217.238 313.274 218.336C313.389 219.435 313.443 220.539 313.443 221.644Z" fill="white"/>
<path d="M59.1938 345.451H309.86C314.225 333.337 320.269 322.086 328.005 311.685H116.982C116.224 311.685 115.472 311.614 114.726 311.472C113.981 311.324 113.259 311.112 112.556 310.828C111.859 310.545 111.192 310.202 110.561 309.789C109.931 309.381 109.343 308.915 108.809 308.389C108.27 307.869 107.791 307.296 107.372 306.682C106.948 306.068 106.59 305.418 106.305 304.739C106.014 304.054 105.79 303.351 105.645 302.624C105.499 301.904 105.42 301.171 105.42 300.433C105.42 299.695 105.348 298.963 105.202 298.236C105.051 297.51 104.832 296.807 104.541 296.122C104.25 295.442 103.899 294.793 103.474 294.178C103.056 293.564 102.577 292.997 102.037 292.472C101.504 291.952 100.916 291.485 100.285 291.072C99.6549 290.664 98.988 290.316 98.2909 290.032C97.5876 289.749 96.8662 289.536 96.1205 289.394C95.3748 289.247 94.623 289.176 93.8652 289.176C93.1074 289.176 92.3557 289.105 91.61 288.957C90.8704 288.816 90.1429 288.603 89.4457 288.32C88.7424 288.036 88.0755 287.688 87.445 287.28C86.8145 286.867 86.2325 286.4 85.693 285.88C85.1595 285.355 84.6805 284.788 84.2562 284.173C83.8379 283.559 83.4802 282.909 83.1892 282.23C82.8982 281.545 82.6799 280.842 82.5344 280.116C82.3829 279.389 82.3101 278.663 82.3101 277.919V165.369C82.3101 164.631 82.3829 163.898 82.5344 163.178C82.6799 162.451 82.8982 161.749 83.1892 161.063C83.4802 160.384 83.8379 159.735 84.2562 159.12C84.6805 158.506 85.1595 157.933 85.693 157.413C86.2325 156.894 86.8145 156.427 87.445 156.014C88.0755 155.6 88.7424 155.258 89.4457 154.974C90.1429 154.691 90.8704 154.478 91.61 154.33C92.3557 154.189 93.1074 154.118 93.8652 154.118C94.623 154.118 95.3748 154.047 96.1205 153.899C96.8662 153.757 97.5876 153.545 98.2909 153.261C98.988 152.978 99.6549 152.629 100.285 152.222C100.916 151.808 101.504 151.342 102.037 150.822C102.577 150.296 103.056 149.729 103.474 149.115C103.899 148.501 104.25 147.851 104.541 147.166C104.832 146.487 105.051 145.784 105.202 145.058C105.348 144.331 105.42 143.599 105.42 142.86C105.42 142.122 105.499 141.39 105.645 140.663C105.79 139.943 106.014 139.24 106.305 138.555C106.59 137.87 106.948 137.226 107.372 136.612C107.791 135.997 108.27 135.424 108.809 134.905C109.343 134.379 109.931 133.912 110.561 133.505C111.192 133.091 111.859 132.749 112.556 132.465C113.259 132.182 113.981 131.969 114.726 131.822C115.472 131.68 116.224 131.609 116.982 131.609H440.561C441.325 131.609 442.077 131.68 442.817 131.822C443.562 131.969 444.284 132.182 444.987 132.465C445.69 132.749 446.351 133.091 446.982 133.505C447.618 133.912 448.2 134.379 448.734 134.905C449.273 135.424 449.752 135.997 450.171 136.612C450.595 137.226 450.953 137.87 451.244 138.555C451.529 139.24 451.753 139.943 451.898 140.663C452.044 141.39 452.123 142.122 452.123 142.86C452.123 143.599 452.195 144.331 452.341 145.058C452.492 145.784 452.711 146.487 453.002 147.166C453.293 147.851 453.644 148.501 454.069 149.115C454.487 149.729 454.966 150.296 455.505 150.822C456.039 151.342 456.627 151.808 457.258 152.222C457.888 152.629 458.555 152.978 459.252 153.261C459.955 153.545 460.677 153.757 461.422 153.899C462.168 154.047 462.92 154.118 463.678 154.118C464.436 154.118 465.187 154.189 465.933 154.33C466.679 154.478 467.4 154.691 468.097 154.974C468.801 155.258 469.467 155.6 470.098 156.014C470.728 156.427 471.31 156.894 471.85 157.413C472.383 157.933 472.862 158.506 473.287 159.12C473.705 159.735 474.063 160.384 474.354 161.063C474.645 161.749 474.863 162.451 475.009 163.178C475.16 163.898 475.233 164.631 475.233 165.369V259.686C487.449 262.74 499.004 267.352 509.904 273.53V109.094C509.904 108.356 509.832 107.624 509.68 106.903C509.534 106.177 509.316 105.474 509.025 104.789C508.734 104.109 508.377 103.46 507.958 102.846C507.534 102.231 507.055 101.658 506.521 101.139C505.982 100.619 505.4 100.152 504.769 99.7388C504.139 99.3254 503.472 98.9828 502.769 98.6993C502.065 98.4158 501.344 98.2032 500.598 98.0556C499.859 97.9138 499.107 97.8429 498.349 97.8429H59.1938C58.436 97.8429 57.6842 97.9138 56.9446 98.0556C56.1989 98.2032 55.4775 98.4158 54.7742 98.6993C54.071 98.9828 53.4102 99.3254 52.7736 99.7388C52.1431 100.152 51.5611 100.619 51.0276 101.139C50.488 101.658 50.0091 102.231 49.5908 102.846C49.1664 103.46 48.8087 104.109 48.5177 104.789C48.2267 105.474 48.0085 106.177 47.863 106.903C47.7114 107.624 47.6387 108.356 47.6387 109.094V334.193C47.6387 334.938 47.7114 335.664 47.863 336.39C48.0085 337.117 48.2267 337.82 48.5177 338.505C48.8087 339.184 49.1664 339.834 49.5908 340.448C50.0091 341.062 50.488 341.629 51.0276 342.155C51.5611 342.675 52.1431 343.141 52.7736 343.555C53.4102 343.962 54.071 344.311 54.7742 344.594C55.4775 344.878 56.1989 345.09 56.9446 345.232C57.6842 345.38 58.436 345.451 59.1938 345.451Z" fill="white"/>
<path d="M232.545 446.743H314.48C311.091 439.466 308.357 431.965 306.277 424.234H232.545C231.788 424.234 231.036 424.305 230.29 424.453C229.544 424.594 228.823 424.807 228.126 425.091C227.423 425.374 226.756 425.723 226.125 426.13C225.495 426.543 224.913 427.01 224.373 427.53C223.84 428.055 223.361 428.622 222.936 429.237C222.518 429.851 222.16 430.501 221.869 431.186C221.578 431.865 221.36 432.568 221.208 433.294C221.063 434.021 220.99 434.753 220.99 435.491C220.99 436.23 221.063 436.962 221.208 437.689C221.36 438.409 221.578 439.112 221.869 439.797C222.16 440.482 222.518 441.126 222.936 441.746C223.361 442.36 223.84 442.927 224.373 443.447C224.913 443.973 225.495 444.439 226.125 444.847C226.756 445.26 227.423 445.603 228.126 445.886C228.823 446.17 229.544 446.383 230.29 446.53C231.036 446.672 231.788 446.743 232.545 446.743Z" fill="white"/>
<path d="M232.545 379.217C231.788 379.217 231.036 379.288 230.29 379.429C229.544 379.577 228.823 379.79 228.126 380.073C227.423 380.357 226.756 380.699 226.125 381.113C225.495 381.526 224.913 381.993 224.373 382.512C223.84 383.032 223.361 383.605 222.936 384.219C222.518 384.834 222.16 385.483 221.869 386.162C221.578 386.848 221.36 387.55 221.208 388.277C221.063 388.997 220.99 389.73 220.99 390.468C220.99 391.212 221.063 391.939 221.208 392.665C221.36 393.392 221.578 394.095 221.869 394.78C222.16 395.459 222.518 396.109 222.936 396.723C223.361 397.337 223.84 397.904 224.373 398.43C224.913 398.949 225.495 399.416 226.125 399.829C226.756 400.237 227.423 400.585 228.126 400.869C228.823 401.152 229.544 401.365 230.29 401.507C231.036 401.655 231.788 401.725 232.545 401.725H301.888C301.888 398.01 301.888 394.295 301.888 390.468C301.888 386.647 301.888 382.932 301.888 379.217H232.545Z" fill="white"/>
</svg>
